G04 DesignSpark PCB Gerber Version 13.0 Build *
%FSLAX35Y35*%
%MOIN*%
%ADD117R,0.01000X0.02756*%
%ADD113R,0.02165X0.04724*%
%ADD114R,0.02362X0.04724*%
%ADD21R,0.02400X0.02400*%
%ADD126R,0.03200X0.03900*%
%ADD124R,0.03900X0.13800*%
%ADD78R,0.03937X0.04291*%
%ADD25R,0.03940X0.04330*%
%ADD123R,0.05900X0.13400*%
%ADD29R,0.06000X0.06000*%
%ADD10C,0.00500*%
%ADD14C,0.00800*%
%ADD13C,0.01000*%
%ADD16C,0.01500*%
%ADD17C,0.02000*%
%ADD19C,0.03000*%
%ADD18C,0.03200*%
%ADD77C,0.03600*%
%ADD70C,0.04000*%
%ADD76R,0.04600X0.01800*%
%ADD112R,0.04724X0.02362*%
%ADD23R,0.02400X0.02400*%
%ADD125R,0.05900X0.02800*%
%ADD118R,0.13200X0.03200*%
%ADD115R,0.04291X0.03937*%
%ADD26R,0.04330X0.03940*%
%AMT121*0 Rectangle Pad at angle 45*21,1,0.05500,0.06300,0,0,45*%
%ADD121T121*%
%AMT75*0 Rectangle Pad at angle 45*21,1,0.06000,0.06000,0,0,45*%
%ADD75T75*%
%AMT116*0 Rectangle Pad at angle 45*21,1,0.06300,0.06300,0,0,45*%
%ADD116T116*%
%AMT119*0 Rectangle Pad at angle 135*21,1,0.02700,0.06300,0,0,135*%
%ADD119T119*%
%AMT122*0 Rectangle Pad at angle 135*21,1,0.04700,0.06300,0,0,135*%
%ADD122T122*%
%AMT120*0 Rectangle Pad at angle 135*21,1,0.04700,0.08700,0,0,135*%
%ADD120T120*%
%AMT127*0 Rectangle Pad at angle 135*21,1,0.05500,0.05500,0,0,135*%
%ADD127T127*%
X0Y0D02*
D02*
D10*
X25718Y192982D02*
X2850Y170115D01*
Y162496D01*
G75*
G02*
X23750Y161050I10400J-1446D01*
G01*
G75*
G02*
X2850Y159604I-10500J0D01*
G01*
Y82496D01*
G75*
G02*
X23750Y81050I10400J-1446D01*
G01*
G75*
G02*
X2850Y79604I-10500J0D01*
G01*
Y72285D01*
X72085Y3050D01*
X120850D01*
Y3200D01*
X106100D01*
Y3600D01*
X100471D01*
G75*
G02*
X99229I-621J2450D01*
G01*
X83950D01*
G75*
G02*
X82218Y4318I0J2450D01*
G01*
X78387Y8149D01*
G75*
G02*
X77658Y8654I1101J2364D01*
G01*
X75804Y10481D01*
X74512Y9190D01*
X68290Y15412D01*
X69669Y16791D01*
X67616Y18844D01*
G75*
G02*
X66898Y20576I1732J1733D01*
G01*
Y20645D01*
X62843Y24700D01*
X70762Y32620D01*
X75854Y27529D01*
X71798Y23473D01*
Y21591D01*
X73133Y20256D01*
X74512Y21635D01*
X80735Y15412D01*
X79491Y14169D01*
X81317Y12370D01*
G75*
G02*
X81851Y11613I-1830J-1858D01*
G01*
X84965Y8500D01*
X99229D01*
G75*
G02*
X100471I621J-2450D01*
G01*
X101100D01*
Y17850D01*
G75*
G02*
X101671Y19229I1950J0D01*
G01*
X104871Y22429D01*
G75*
G02*
X106100Y22994I1379J-1379D01*
G01*
Y30443D01*
X84655D01*
X90210Y24888D01*
X83988Y18665D01*
X77765Y24888D01*
X83321Y30443D01*
X73650D01*
G75*
G02*
X72513Y30914I0J1607D01*
G01*
X26513Y76913D01*
G75*
G02*
X26042Y78050I1137J1137D01*
G01*
Y123702D01*
X22029Y127715D01*
X27685Y133371D01*
X33342Y127715D01*
X29257Y123629D01*
Y120800D01*
X34757Y126300D01*
X40413Y120643D01*
X34757Y114987D01*
X33957Y115786D01*
Y99316D01*
X90616Y42658D01*
X91646D01*
G75*
G02*
X91313Y42913I805J1392D01*
G01*
X35613Y98613D01*
G75*
G02*
X35143Y99750I1137J1137D01*
G01*
Y109550D01*
G75*
G02*
X35613Y110687I1607J0D01*
G01*
X37335Y112408D01*
X36171Y113572D01*
X41828Y119229D01*
X47484Y113572D01*
X41828Y107916D01*
X39608Y110135D01*
X38357Y108884D01*
Y100416D01*
X93116Y45657D01*
X97059D01*
G75*
G02*
X96100Y47650I1591J1993D01*
G01*
G75*
G02*
X96103Y47778I2548J2D01*
G01*
X95228Y46904D01*
X91522Y50610D01*
X89940D01*
G75*
G02*
X88561Y51181I0J1950D01*
G01*
X87933Y51809D01*
G75*
G02*
X85600Y54350I217J2541D01*
G01*
G75*
G02*
X88510Y56874I2550J0D01*
G01*
X85789Y59596D01*
X85717Y59525D01*
G75*
G02*
X84692Y59100I-1025J1025D01*
G01*
X80550D01*
G75*
G02*
X79525Y59525I0J1450D01*
G01*
X39525Y99525D01*
G75*
G02*
X39100Y100550I1025J1025D01*
G01*
Y103050D01*
G75*
G02*
X39525Y104075I1450J0D01*
G01*
X47700Y112251D01*
Y118449D01*
X39525Y126625D01*
G75*
G02*
Y128675I1025J1025D01*
G01*
X40270Y129420D01*
X38033Y131657D01*
X44043Y137667D01*
X50054Y131657D01*
X44324Y125927D01*
X45385Y124866D01*
X51115Y130596D01*
X57125Y124585D01*
X52800Y120261D01*
Y118139D01*
X58185Y123525D01*
X64196Y117515D01*
X59200Y112519D01*
Y111851D01*
X59927Y111124D01*
X65257Y116454D01*
X68353Y113357D01*
X76550D01*
G75*
G02*
X77692Y112881I0J-1607D01*
G01*
X88620Y101857D01*
X103070D01*
G75*
G02*
X107600Y100250I1980J-1607D01*
G01*
G75*
G02*
X104669Y97729I-2550J0D01*
G01*
G75*
G02*
X106300Y95350I-919J-2379D01*
G01*
G75*
G02*
X101200I-2550J0D01*
G01*
G75*
G02*
X104131Y97871I2550J0D01*
G01*
G75*
G02*
X103070Y98643I919J2379D01*
G01*
X99342D01*
G75*
G02*
X98800Y94952I-1992J-1593D01*
G01*
Y85048D01*
G75*
G02*
X99900Y82950I-1450J-2098D01*
G01*
G75*
G02*
X94800I-2550J0D01*
G01*
G75*
G02*
X95900Y85048I2550J0D01*
G01*
Y94952D01*
G75*
G02*
X95252Y95600I1450J2098D01*
G01*
X94193D01*
G75*
G02*
X94157Y91670I-1643J-1950D01*
G01*
Y81930D01*
G75*
G02*
X94009Y77859I-1607J-1980D01*
G01*
X106853D01*
G75*
G02*
X111200Y76050I1797J-1809D01*
G01*
G75*
G02*
X106522Y74644I-2550J0D01*
G01*
X103205D01*
G75*
G02*
X104008Y71365I-1455J-2094D01*
G01*
X109100Y66273D01*
G75*
G02*
X114200Y66250I2550J-23D01*
G01*
G75*
G02*
X113557Y64557I-2550J0D01*
G01*
X122850D01*
G75*
G02*
X123987Y64087I0J-1607D01*
G01*
X131216Y56857D01*
X137956D01*
G75*
G02*
X142400Y55150I1894J-1707D01*
G01*
G75*
G02*
X137793Y53643I-2550J0D01*
G01*
X130550D01*
G75*
G02*
X129413Y54113I0J1607D01*
G01*
X122184Y61343D01*
X110150D01*
G75*
G02*
X109013Y61813I0J1607D01*
G01*
X100498Y70328D01*
G75*
G02*
X99528Y71298I1252J2222D01*
G01*
X99413Y71413D01*
G75*
G02*
X99517Y73782I1137J1137D01*
G01*
G75*
G02*
X100295Y74644I2233J-1232D01*
G01*
X88604D01*
X85861Y71969D01*
X86468Y71362D01*
X87046Y71935D01*
G75*
G02*
X92100Y71450I2504J-485D01*
G01*
G75*
G02*
X90015Y68943I-2550J0D01*
G01*
X89448Y68381D01*
X89979Y67850D01*
G75*
G02*
X90792Y68099I812J-1202D01*
G01*
X94150D01*
G75*
G02*
X95175Y67674I0J-1450D01*
G01*
X104875Y57975D01*
G75*
G02*
X105300Y56950I-1025J-1025D01*
G01*
Y49748D01*
G75*
G02*
X106100Y48850I-1450J-2098D01*
G01*
Y58901D01*
X121799D01*
Y53400D01*
X122843D01*
G75*
G02*
X126100Y50950I707J-2450D01*
G01*
G75*
G02*
X122843Y48500I-2550J0D01*
G01*
X121799D01*
Y18850D01*
X153661D01*
G75*
G02*
X155657Y23500I1289J2200D01*
G01*
X158901D01*
Y29100D01*
X154548D01*
G75*
G02*
X149900Y30550I-2098J1450D01*
G01*
G75*
G02*
X151000Y32648I2550J0D01*
G01*
Y54150D01*
G75*
G02*
X151425Y55175I1450J0D01*
G01*
X156300Y60051D01*
Y69460D01*
G75*
G02*
X154300Y71950I550J2490D01*
G01*
G75*
G02*
X159400I2550J0D01*
G01*
G75*
G02*
X159107Y70762I-2550J0D01*
G01*
G75*
G02*
X159200Y70250I-1356J-512D01*
G01*
Y59450D01*
G75*
G02*
X159092Y58901I-1450J0D01*
G01*
X173900D01*
Y61049D01*
X159849Y75100D01*
X155972D01*
G75*
G02*
X152322Y74237I-2222J1250D01*
G01*
Y70220D01*
X140177D01*
Y71743D01*
X138665D01*
Y70630D01*
X131834D01*
Y77070D01*
X137777D01*
G75*
G02*
X137560Y77260I1274J1678D01*
G01*
X137190Y77630D01*
X131834D01*
Y84070D01*
X136472D01*
X136234Y84308D01*
G75*
G02*
X134226Y85600I216J2542D01*
G01*
X132169D01*
Y84133D01*
X126800D01*
Y82748D01*
G75*
G02*
X127900Y80650I-1450J-2098D01*
G01*
G75*
G02*
X122800I-2550J0D01*
G01*
G75*
G02*
X123900Y82748I2550J0D01*
G01*
Y83549D01*
X123316Y84133D01*
X118730D01*
Y90964D01*
X125169D01*
Y86382D01*
X125730Y85821D01*
Y90964D01*
X131500D01*
Y95299D01*
X131843D01*
Y99550D01*
G75*
G02*
X133950Y101657I2107J0D01*
G01*
X135196D01*
Y101941D01*
X142421D01*
Y97078D01*
X136057D01*
Y95299D01*
X140031D01*
Y96067D01*
X146470D01*
Y90708D01*
X147031Y91255D01*
Y96067D01*
X148300D01*
Y97078D01*
X145480D01*
Y109421D01*
X148300D01*
Y110901D01*
X144100D01*
Y109332D01*
G75*
G02*
X143236Y107246I-2950J0D01*
G01*
X142421Y106431D01*
Y104559D01*
X140479D01*
G75*
G02*
X137138I-1670J2431D01*
G01*
X135196D01*
Y109421D01*
X137067D01*
X138200Y110554D01*
Y110937D01*
X137929D01*
Y117199D01*
X137370Y117758D01*
Y110937D01*
X130929D01*
Y112400D01*
X129793D01*
G75*
G02*
X130700Y110450I-1643J-1950D01*
G01*
G75*
G02*
X125600I-2550J0D01*
G01*
G75*
G02*
X126507Y112400I2550J0D01*
G01*
X122060D01*
G75*
G02*
X117000Y112850I-2510J450D01*
G01*
G75*
G02*
X119333Y115391I2550J0D01*
G01*
X119671Y115729D01*
G75*
G02*
X121050Y116300I1379J-1379D01*
G01*
X130929D01*
Y117763D01*
X137365D01*
X133678Y121450D01*
X99250D01*
Y117550D01*
X73550D01*
X57850Y133250D01*
Y160850D01*
X25718Y192982D01*
X21757Y139300D02*
G75*
G02*
X22650Y139457I893J-2449D01*
G01*
X31692D01*
X36972Y144738D01*
X42983Y138728D01*
X36972Y132717D01*
X34776Y134913D01*
G75*
G02*
X33030Y134243I-1746J1937D01*
G01*
X25728D01*
X20615Y129129D01*
X14958Y134785D01*
X20615Y140442D01*
X21757Y139300D01*
X23891Y145799D02*
X29901Y151809D01*
X35911Y145799D01*
X29901Y139789D01*
X23891Y145799D01*
X27650Y65592D02*
X24800Y62743D01*
X19709Y67834D01*
X27629Y75754D01*
X32720Y70662D01*
X30408Y68350D01*
X30967Y67791D01*
G75*
G02*
X33300Y65250I-217J-2541D01*
G01*
G75*
G02*
X28209Y65033I-2550J0D01*
G01*
X27650Y65592D01*
X36008Y57192D02*
G75*
G02*
X40321Y52879I2157J-2157D01*
G01*
G75*
G02*
X36008Y57192I-2157J2157D01*
G01*
X44500Y162750D02*
G75*
G02*
X39400I-2550J0D01*
G01*
G75*
G02*
X44500I2550J0D01*
G01*
X58282Y34918D02*
G75*
G02*
X62595Y30605I2157J-2157D01*
G01*
G75*
G02*
X58282Y34918I-2157J2157D01*
G01*
X97700Y114750D02*
G75*
G02*
X92600I-2550J0D01*
G01*
G75*
G02*
X97700I2550J0D01*
G01*
X109300Y96850D02*
G75*
G02*
X114400I2550J0D01*
G01*
G75*
G02*
X109300I-2550J0D01*
G01*
X115349Y103050D02*
G75*
G02*
X113900Y105350I1101J2300D01*
G01*
G75*
G02*
X119000I2550J0D01*
G01*
G75*
G02*
X117551Y103050I-2550J0D01*
G01*
G75*
G02*
X119000Y100750I-1101J-2300D01*
G01*
G75*
G02*
X113900I-2550J0D01*
G01*
G75*
G02*
X115349Y103050I2550J0D01*
G01*
X123000Y67150D02*
G75*
G02*
X128100I2550J0D01*
G01*
G75*
G02*
X123000I-2550J0D01*
G01*
X131000Y100250D02*
G75*
G02*
X125900I-2550J0D01*
G01*
G75*
G02*
X131000I2550J0D01*
G01*
X135300Y67450D02*
G75*
G02*
X140400I2550J0D01*
G01*
G75*
G02*
X135300I-2550J0D01*
G01*
X137300Y59650D02*
G75*
G02*
X132200I-2550J0D01*
G01*
G75*
G02*
X137300I2550J0D01*
G01*
X143000Y57250D02*
G75*
G02*
X148100I2550J0D01*
G01*
G75*
G02*
X143000I-2550J0D01*
G01*
X152201Y63273D02*
G75*
G02*
X150800Y65550I1149J2276D01*
G01*
G75*
G02*
X155900I2550J0D01*
G01*
G75*
G02*
X154599Y63327I-2550J0D01*
G01*
G75*
G02*
X156000Y61050I-1149J-2277D01*
G01*
G75*
G02*
X150900I-2550J0D01*
G01*
G75*
G02*
X152201Y63273I2550J0D01*
G01*
X164900Y63450D02*
G75*
G02*
X159800I-2550J0D01*
G01*
G75*
G02*
X164900I2550J0D01*
G01*
X57389Y32761D02*
G36*
X57389Y32761D02*
X42374D01*
X71835Y3300D01*
X106100D01*
Y3600D01*
X100471D01*
G75*
G02*
X99229I-621J2450D01*
G01*
X83950D01*
G75*
G02*
X82218Y4318I-2J2445D01*
G01*
X78387Y8149D01*
G75*
G02*
X77658Y8654I1091J2349D01*
G01*
X75804Y10481D01*
X74512Y9190D01*
X68290Y15412D01*
X69669Y16791D01*
X67616Y18844D01*
G75*
G02*
X66898Y20574I1727J1730D01*
G01*
G75*
G02*
Y20576I2506J1D01*
G01*
Y20645D01*
X62843Y24700D01*
X70762Y32620D01*
X75854Y27529D01*
X71798Y23473D01*
Y21591D01*
X73133Y20256D01*
X74512Y21635D01*
X80735Y15412D01*
X79491Y14169D01*
X81317Y12370D01*
G75*
G02*
X81851Y11613I-1855J-1875D01*
G01*
X84965Y8500D01*
X99229D01*
G75*
G02*
X100471I621J-2462D01*
G01*
X101100D01*
Y17850D01*
G75*
G02*
X101671Y19229I1950J0D01*
G01*
X104871Y22429D01*
G75*
G02*
X106100Y22994I1378J-1378D01*
G01*
Y30443D01*
X84655D01*
X90210Y24888D01*
X83988Y18665D01*
X77765Y24888D01*
X83321Y30443D01*
X73650D01*
G75*
G02*
X72513Y30914I-2J1603D01*
G01*
X70666Y32761D01*
X63489D01*
G75*
G02*
X62595Y30605I-3050J0D01*
G01*
G75*
G02*
X57389Y32761I-2157J2157D01*
G01*
G37*
X121799D02*
G36*
X121799Y32761D02*
Y18850D01*
X153661D01*
G75*
G02*
X152400Y21050I1289J2200D01*
G01*
G75*
G02*
X155657Y23500I2550J0D01*
G01*
X158901D01*
Y29100D01*
X154548D01*
G75*
G02*
X149900Y30549I-2098J1449D01*
G01*
G75*
G02*
Y30550I3470J0D01*
G01*
G75*
G02*
Y30551I2603J1D01*
G01*
G75*
G02*
X151000Y32648I2548J0D01*
G01*
Y32761D01*
X121799D01*
G37*
X35115Y55035D02*
G36*
X35115Y55035D02*
X20100D01*
X42374Y32761D01*
X57389D01*
G75*
G02*
X58282Y34918I3050J0D01*
G01*
G75*
G02*
X63489Y32761I2157J-2157D01*
G01*
X70666D01*
X48391Y55035D01*
X41215D01*
G75*
G02*
X40321Y52879I-3050J0D01*
G01*
G75*
G02*
X35115Y55035I-2157J2157D01*
G01*
G37*
X79191D02*
G36*
X79191Y55035D02*
X78239D01*
X90616Y42658D01*
X91646D01*
G75*
G02*
X91313Y42913I783J1363D01*
G01*
X79191Y55035D01*
G37*
X85600Y54349D02*
G36*
X85600Y54349D02*
G75*
G02*
Y54350I2374J0D01*
G01*
G75*
G02*
X85694Y55035I2550J0D01*
G01*
X83738D01*
X93116Y45657D01*
X97059D01*
G75*
G02*
X96100Y47649I1589J1991D01*
G01*
G75*
G02*
Y47650I2417J1D01*
G01*
G75*
G02*
Y47671I1748J11D01*
G01*
G75*
G02*
X96103Y47778I1763J2D01*
G01*
X95228Y46904D01*
X91522Y50610D01*
X89940D01*
G75*
G02*
X88561Y51181I-1J1948D01*
G01*
X87933Y51809D01*
G75*
G02*
X85600Y54349I216J2540D01*
G01*
G37*
X105300Y55035D02*
G36*
X105300Y55035D02*
Y49748D01*
G75*
G02*
X106100Y48850I-1456J-2103D01*
G01*
Y55035D01*
X105300D01*
G37*
X121799Y48500D02*
G36*
X121799Y48500D02*
Y32761D01*
X151000D01*
Y54150D01*
Y54150D01*
G75*
G02*
X151302Y55035I1448J0D01*
G01*
X146814D01*
G75*
G02*
X144286I-1264J2215D01*
G01*
X142397D01*
G75*
G02*
X137793Y53643I-2547J115D01*
G01*
X130550D01*
G75*
G02*
X129413Y54113I-2J1603D01*
G01*
X128491Y55035D01*
X121799D01*
Y53400D01*
X122843D01*
G75*
G02*
X126100Y50950I707J-2450D01*
G01*
Y50950D01*
G75*
G02*
X122843Y48500I-2550J0D01*
G01*
X121799D01*
G37*
X15485Y59650D02*
G36*
X15485Y59650D02*
X20100Y55035D01*
X35115D01*
G75*
G02*
X36008Y57192I3050J0D01*
G01*
G75*
G02*
X41215Y55035I2157J-2157D01*
G01*
X48391D01*
X43777Y59650D01*
X15485D01*
G37*
X74577D02*
G36*
X74577Y59650D02*
X73624D01*
X78239Y55035D01*
X79191D01*
X74577Y59650D01*
G37*
X79400D02*
G36*
X79400Y59650D02*
X79123D01*
X83738Y55035D01*
X85694D01*
G75*
G02*
X88510Y56874I2456J-685D01*
G01*
X85789Y59596D01*
X85717Y59525D01*
G75*
G02*
X84692Y59100I-1025J1024D01*
G01*
X80550D01*
G75*
G02*
X79525Y59525I-1J1446D01*
G01*
X79400Y59650D01*
G37*
X103200D02*
G36*
X103200Y59650D02*
X104875Y57975D01*
G75*
G02*
X105300Y56950I-1028J-1026D01*
G01*
Y55035D01*
X106100D01*
Y58901D01*
X121799D01*
Y55035D01*
X128491D01*
X123877Y59650D01*
X103200D01*
G37*
X128423D02*
G36*
X128423Y59650D02*
X131216Y56857D01*
X137956D01*
G75*
G02*
X142400Y55150I1894J-1708D01*
G01*
G75*
G02*
X142397Y55035I-2551J4D01*
G01*
X144286D01*
G75*
G02*
X143000Y57250I1264J2215D01*
G01*
G75*
G02*
X144688Y59650I2550J0D01*
G01*
X137300D01*
G75*
G02*
X132200I-2550J0D01*
G01*
X128423D01*
G37*
X148100Y57250D02*
G36*
X148100Y57250D02*
G75*
G02*
X146814Y55035I-2550J0D01*
G01*
X151302D01*
G75*
G02*
X151425Y55175I1146J-884D01*
G01*
X155899Y59650D01*
X155581D01*
G75*
G02*
X151319I-2131J1400D01*
G01*
X146412D01*
G75*
G02*
X148100Y57250I-862J-2400D01*
G01*
G37*
X159200Y59450D02*
G36*
X159200Y59450D02*
G75*
G02*
X159092Y58901I-1465J3D01*
G01*
X173650D01*
Y59650D01*
X159200D01*
Y59450D01*
G37*
X11685Y63450D02*
G36*
X11685Y63450D02*
X15485Y59650D01*
X43777D01*
X39976Y63450D01*
X32557D01*
G75*
G02*
X28943I-1807J1800D01*
G01*
X25508D01*
X24800Y62743D01*
X24093Y63450D01*
X11685D01*
G37*
X70777D02*
G36*
X70777Y63450D02*
X69824D01*
X73624Y59650D01*
X74577D01*
X70777Y63450D01*
G37*
X75600D02*
G36*
X75600Y63450D02*
X75323D01*
X79123Y59650D01*
X79400D01*
X75600Y63450D01*
G37*
X99400D02*
G36*
X99400Y63450D02*
X103200Y59650D01*
X123877D01*
X122184Y61343D01*
X110150D01*
G75*
G02*
X109013Y61813I-2J1603D01*
G01*
X107377Y63450D01*
X99400D01*
G37*
X124623D02*
G36*
X124623Y63450D02*
X128423Y59650D01*
X132200D01*
G75*
G02*
X137300I2550J0D01*
G01*
X144688D01*
G75*
G02*
X146412I862J-2400D01*
G01*
X151319D01*
G75*
G02*
X150900Y61050I2131J1400D01*
G01*
G75*
G02*
Y61051I2374J0D01*
G01*
G75*
G02*
X152201Y63273I2548J0D01*
G01*
G75*
G02*
X151903Y63450I1146J2276D01*
G01*
X124623D01*
G37*
X154796D02*
G36*
X154796Y63450D02*
G75*
G02*
X154599Y63327I-1446J2099D01*
G01*
G75*
G02*
X156000Y61050I-1149J-2277D01*
G01*
G75*
G02*
X155581Y59650I-2550J0D01*
G01*
X155899D01*
X156300Y60051D01*
Y63450D01*
X154796D01*
G37*
X159200D02*
G36*
X159200Y63450D02*
Y59650D01*
X173650D01*
Y61299D01*
X171499Y63450D01*
X164900D01*
G75*
G02*
X159800I-2550J0D01*
G01*
X159200D01*
G37*
X5909Y69227D02*
G36*
X5909Y69227D02*
X11685Y63450D01*
X24093D01*
X19709Y67834D01*
X21102Y69227D01*
X5909D01*
G37*
X27650Y65592D02*
G36*
X27650Y65592D02*
X25508Y63450D01*
X28943D01*
G75*
G02*
X28209Y65033I1807J1800D01*
G01*
X27650Y65592D01*
G37*
X30408Y68350D02*
G36*
X30408Y68350D02*
X30967Y67791D01*
G75*
G02*
X33300Y65250I-218J-2541D01*
G01*
Y65250D01*
G75*
G02*
X32557Y63450I-2550J0D01*
G01*
X39976D01*
X34200Y69227D01*
X31285D01*
X30408Y68350D01*
G37*
X65000Y69227D02*
G36*
X65000Y69227D02*
X64047D01*
X69824Y63450D01*
X70777D01*
X65000Y69227D01*
G37*
X69823D02*
G36*
X69823Y69227D02*
X69546D01*
X75323Y63450D01*
X75600D01*
X69823Y69227D01*
G37*
X89448Y68381D02*
G36*
X89448Y68381D02*
X89979Y67850D01*
G75*
G02*
X90792Y68099I813J-1205D01*
G01*
X94150D01*
G75*
G02*
X95175Y67674I-1J-1453D01*
G01*
X99400Y63450D01*
X107377D01*
X101600Y69227D01*
X90799D01*
G75*
G02*
X90015Y68943I-1250J2224D01*
G01*
X89448Y68381D01*
G37*
X106147Y69227D02*
G36*
X106147Y69227D02*
X109100Y66273D01*
G75*
G02*
X114200Y66250I2550J-23D01*
G01*
G75*
G02*
X113557Y64557I-2550J0D01*
G01*
X122850D01*
G75*
G02*
X123987Y64087I-1J-1609D01*
G01*
X124623Y63450D01*
X151903D01*
G75*
G02*
X150800Y65548I1444J2098D01*
G01*
G75*
G02*
Y65550I2820J1D01*
G01*
G75*
G02*
X155900I2550J0D01*
G01*
Y65550D01*
G75*
G02*
X154796Y63450I-2549J0D01*
G01*
X156300D01*
Y69227D01*
X139679D01*
G75*
G02*
X140400Y67450I-1829J-1777D01*
G01*
G75*
G02*
X135300I-2550J0D01*
G01*
G75*
G02*
X136021Y69227I2550J0D01*
G01*
X127030D01*
G75*
G02*
X128100Y67150I-1480J-2077D01*
G01*
G75*
G02*
X123000I-2550J0D01*
G01*
G75*
G02*
X124070Y69227I2550J0D01*
G01*
X106147D01*
G37*
X159200D02*
G36*
X159200Y69227D02*
Y63450D01*
X159800D01*
G75*
G02*
X164900I2550J0D01*
G01*
X171499D01*
X165722Y69227D01*
X159200D01*
G37*
X3100Y78361D02*
G36*
X3100Y78361D02*
Y72035D01*
X5909Y69227D01*
X21102D01*
X27629Y75754D01*
X32720Y70662D01*
X31285Y69227D01*
X34200D01*
X26513Y76913D01*
G75*
G02*
X26042Y78048I1132J1135D01*
G01*
G75*
G02*
Y78050I1659J1D01*
G01*
Y96850D01*
X3100D01*
Y83738D01*
G75*
G02*
X23750Y81050I10150J-2689D01*
G01*
Y81050D01*
G75*
G02*
X3100Y78361I-10500J0D01*
G01*
G37*
X37377Y96850D02*
G36*
X37377Y96850D02*
X36423D01*
X64047Y69227D01*
X65000D01*
X37377Y96850D01*
G37*
X42200D02*
G36*
X42200Y96850D02*
X41923D01*
X69546Y69227D01*
X69823D01*
X42200Y96850D01*
G37*
X85861Y71969D02*
G36*
X85861Y71969D02*
X86468Y71362D01*
X87046Y71935D01*
G75*
G02*
X92100Y71450I2504J-486D01*
G01*
G75*
G02*
X90799Y69227I-2551J0D01*
G01*
X101600D01*
X100498Y70328D01*
G75*
G02*
X99528Y71298I1250J2220D01*
G01*
X99413Y71413D01*
G75*
G02*
X98943Y72550I1137J1137D01*
G01*
G75*
G02*
X99517Y73782I1607J0D01*
G01*
G75*
G02*
X100295Y74644I2238J-1236D01*
G01*
X88604D01*
X85861Y71969D01*
G37*
X94157Y91670D02*
G36*
X94157Y91670D02*
Y81930D01*
G75*
G02*
X95100Y79950I-1608J-1980D01*
G01*
G75*
G02*
X94009Y77859I-2550J0D01*
G01*
X106853D01*
G75*
G02*
X111200Y76050I1797J-1810D01*
G01*
G75*
G02*
X106522Y74644I-2550J0D01*
G01*
X103205D01*
G75*
G02*
X104300Y72550I-1456J-2094D01*
G01*
G75*
G02*
X104008Y71365I-2550J0D01*
G01*
X106147Y69227D01*
X124070D01*
G75*
G02*
X127030I1480J-2076D01*
G01*
X136021D01*
G75*
G02*
X139679I1829J-1777D01*
G01*
X156300D01*
Y69460D01*
G75*
G02*
X154300Y71949I549J2489D01*
G01*
G75*
G02*
Y71950I2820J0D01*
G01*
G75*
G02*
X159400I2550J0D01*
G01*
G75*
G02*
X159107Y70762I-2552J0D01*
G01*
G75*
G02*
X159200Y70250I-1367J-513D01*
G01*
Y69227D01*
X165722D01*
X159849Y75100D01*
X155972D01*
G75*
G02*
X152322Y74237I-2222J1249D01*
G01*
Y70220D01*
X140177D01*
Y71743D01*
X138665D01*
Y70630D01*
X131834D01*
Y77070D01*
X137777D01*
G75*
G02*
X137560Y77260I1248J1649D01*
G01*
X137190Y77630D01*
X131834D01*
Y84070D01*
X136472D01*
X136234Y84308D01*
G75*
G02*
X134226Y85600I216J2541D01*
G01*
X132169D01*
Y84133D01*
X126800D01*
Y82748D01*
G75*
G02*
X127900Y80650I-1450J-2098D01*
G01*
G75*
G02*
X122800I-2550J0D01*
G01*
G75*
G02*
Y80651I2603J1D01*
G01*
G75*
G02*
X123900Y82748I2548J0D01*
G01*
Y83549D01*
X123316Y84133D01*
X118730D01*
Y90964D01*
X125169D01*
Y86382D01*
X125730Y85821D01*
Y90964D01*
X131500D01*
Y95299D01*
X131843D01*
Y96850D01*
X114400D01*
G75*
G02*
X109300I-2550J0D01*
G01*
X105812D01*
G75*
G02*
X106300Y95350I-2063J-1501D01*
G01*
G75*
G02*
X101200I-2550J0D01*
G01*
G75*
G02*
X101688Y96850I2550J0D01*
G01*
X99892D01*
G75*
G02*
X98800Y94952I-2543J200D01*
G01*
Y85048D01*
G75*
G02*
X99900Y82950I-1450J-2098D01*
G01*
G75*
G02*
X94800I-2550J0D01*
G01*
G75*
G02*
Y82951I2603J1D01*
G01*
G75*
G02*
X95900Y85048I2548J0D01*
G01*
Y94952D01*
G75*
G02*
X95252Y95600I1449J2097D01*
G01*
X94193D01*
G75*
G02*
X95100Y93650I-1644J-1950D01*
G01*
G75*
G02*
X94157Y91670I-2550J0D01*
G01*
G37*
X136057Y96850D02*
G36*
X136057Y96850D02*
Y95299D01*
X140031D01*
Y96067D01*
X146470D01*
Y90708D01*
X147031Y91255D01*
Y96067D01*
X148300D01*
Y96850D01*
X136057D01*
G37*
X3100Y100250D02*
G36*
X3100Y100250D02*
Y96850D01*
X26042D01*
Y100250D01*
X3100D01*
G37*
X33957D02*
G36*
X33957Y100250D02*
Y99316D01*
X36423Y96850D01*
X37377D01*
X35613Y98613D01*
G75*
G02*
X35143Y99748I1132J1135D01*
G01*
G75*
G02*
Y99750I1659J1D01*
G01*
Y100250D01*
X33957D01*
G37*
X39131D02*
G36*
X39131Y100250D02*
X38523D01*
X41923Y96850D01*
X42200D01*
X39525Y99525D01*
G75*
G02*
X39131Y100250I1022J1024D01*
G01*
G37*
X99900Y97050D02*
G36*
X99900Y97050D02*
G75*
G02*
X99892Y96850I-2548J0D01*
G01*
X101688D01*
G75*
G02*
X104131Y97871I2062J-1500D01*
G01*
G75*
G02*
X103070Y98643I913J2371D01*
G01*
X99342D01*
G75*
G02*
X99900Y97050I-1993J-1593D01*
G01*
G37*
X104669Y97729D02*
G36*
X104669Y97729D02*
G75*
G02*
X105812Y96850I-920J-2380D01*
G01*
X109300D01*
G75*
G02*
X114400I2550J0D01*
G01*
X131843D01*
Y99550D01*
Y99550D01*
G75*
G02*
X131962Y100250I2107J0D01*
G01*
X131000D01*
G75*
G02*
X125900I-2550J0D01*
G01*
X118950D01*
G75*
G02*
X113950I-2500J500D01*
G01*
X107600D01*
G75*
G02*
X104669Y97729I-2550J0D01*
G01*
G37*
X136057Y97078D02*
G36*
X136057Y97078D02*
Y96850D01*
X148300D01*
Y97078D01*
X145480D01*
Y100250D01*
X142421D01*
Y97078D01*
X136057D01*
G37*
X3100Y103050D02*
G36*
X3100Y103050D02*
Y100250D01*
X26042D01*
Y103050D01*
X3100D01*
G37*
X33957D02*
G36*
X33957Y103050D02*
Y100250D01*
X35143D01*
Y103050D01*
X33957D01*
G37*
X38357D02*
G36*
X38357Y103050D02*
Y100416D01*
X38523Y100250D01*
X39131D01*
G75*
G02*
X39100Y100549I1416J298D01*
G01*
G75*
G02*
Y100550I1354J1D01*
G01*
Y103050D01*
X38357D01*
G37*
X87438D02*
G36*
X87438Y103050D02*
X88620Y101857D01*
X103070D01*
G75*
G02*
X107600Y100250I1980J-1607D01*
G01*
X113950D01*
G75*
G02*
X113900Y100750I2501J500D01*
G01*
G75*
G02*
Y100751I3222J0D01*
G01*
G75*
G02*
X115349Y103050I2549J0D01*
G01*
X87438D01*
G37*
X119000Y100750D02*
G36*
X119000Y100750D02*
G75*
G02*
X118950Y100250I-2550J0D01*
G01*
X125900D01*
G75*
G02*
X131000I2550J0D01*
G01*
X131962D01*
G75*
G02*
X133950Y101657I1987J-700D01*
G01*
X135196D01*
Y101941D01*
X142421D01*
Y100250D01*
X145480D01*
Y103050D01*
X117551D01*
G75*
G02*
X119000Y100750I-1102J-2300D01*
G01*
G37*
X3100Y114750D02*
G36*
X3100Y114750D02*
Y103050D01*
X26042D01*
Y114750D01*
X3100D01*
G37*
X33957D02*
G36*
X33957Y114750D02*
Y103050D01*
X35143D01*
Y109550D01*
G75*
G02*
Y109551I1650J1D01*
G01*
G75*
G02*
X35613Y110687I1604J0D01*
G01*
X37335Y112408D01*
X36171Y113572D01*
X37348Y114750D01*
X33957D01*
G37*
X38357Y108884D02*
G36*
X38357Y108884D02*
Y103050D01*
X39100D01*
Y103050D01*
G75*
G02*
X39525Y104075I1448J0D01*
G01*
X47700Y112251D01*
Y114750D01*
X46307D01*
X47484Y113572D01*
X41828Y107916D01*
X39608Y110135D01*
X38357Y108884D01*
G37*
X59200Y112519D02*
G36*
X59200Y112519D02*
Y111851D01*
X59927Y111124D01*
X63553Y114750D01*
X61431D01*
X59200Y112519D01*
G37*
X66960Y114750D02*
G36*
X66960Y114750D02*
X68353Y113357D01*
X76550D01*
G75*
G02*
X77692Y112881I-2J-1612D01*
G01*
X87438Y103050D01*
X115349D01*
G75*
G02*
X113900Y105349I1099J2299D01*
G01*
G75*
G02*
Y105350I2256J1D01*
G01*
G75*
G02*
X119000I2550J0D01*
G01*
Y105350D01*
G75*
G02*
X117551Y103050I-2550J0D01*
G01*
X145480D01*
Y109421D01*
X148300D01*
Y110901D01*
X144100D01*
Y109332D01*
G75*
G02*
X143236Y107246I-2950J0D01*
G01*
X142421Y106431D01*
Y104559D01*
X140479D01*
G75*
G02*
X137138I-1670J2430D01*
G01*
X135196D01*
Y109421D01*
X137067D01*
X138200Y110554D01*
Y110937D01*
X137929D01*
Y114750D01*
X137370D01*
Y110937D01*
X130929D01*
Y112400D01*
X129793D01*
G75*
G02*
X130700Y110450I-1644J-1950D01*
G01*
G75*
G02*
X125600I-2550J0D01*
G01*
G75*
G02*
Y110451I2256J1D01*
G01*
G75*
G02*
X126507Y112400I2548J0D01*
G01*
X122060D01*
G75*
G02*
X117000Y112850I-2510J450D01*
G01*
Y112850D01*
G75*
G02*
X117849Y114750I2550J0D01*
G01*
X97700D01*
G75*
G02*
X92600I-2550J0D01*
G01*
X66960D01*
G37*
X3100Y136933D02*
G36*
X3100Y136933D02*
Y114750D01*
X26042D01*
Y123702D01*
X22029Y127715D01*
X27685Y133371D01*
X33342Y127715D01*
X29257Y123629D01*
Y120800D01*
X34757Y126300D01*
X40413Y120643D01*
X34757Y114987D01*
X33957Y115786D01*
Y114750D01*
X37348D01*
X41828Y119229D01*
X46307Y114750D01*
X47700D01*
Y118449D01*
X39525Y126625D01*
G75*
G02*
X39100Y127650I1025J1025D01*
G01*
G75*
G02*
X39525Y128675I1450J0D01*
G01*
X40270Y129420D01*
X38033Y131657D01*
X43309Y136933D01*
X41188D01*
X36972Y132717D01*
X34776Y134913D01*
G75*
G02*
X33030Y134243I-1745J1935D01*
G01*
X25728D01*
X20615Y129129D01*
X14958Y134785D01*
X17106Y136933D01*
X3100D01*
G37*
X44324Y125927D02*
G36*
X44324Y125927D02*
X45385Y124866D01*
X51115Y130596D01*
X57125Y124585D01*
X52800Y120261D01*
Y118139D01*
X58185Y123525D01*
X64196Y117515D01*
X61431Y114750D01*
X63553D01*
X65257Y116454D01*
X66960Y114750D01*
X92600D01*
G75*
G02*
X97700I2550J0D01*
G01*
X117849D01*
G75*
G02*
X119333Y115391I1701J-1900D01*
G01*
X119671Y115729D01*
G75*
G02*
X121050Y116300I1380J-1381D01*
G01*
X130929D01*
Y117763D01*
X137365D01*
X133678Y121450D01*
X99250D01*
Y117550D01*
X73550D01*
X57850Y133250D01*
Y136933D01*
X44777D01*
X50054Y131657D01*
X44324Y125927D01*
G37*
X137370Y117758D02*
G36*
X137370Y117758D02*
Y114750D01*
X137929D01*
Y117199D01*
X137370Y117758D01*
G37*
X3100Y145799D02*
G36*
X3100Y145799D02*
Y136933D01*
X17106D01*
X20615Y140442D01*
X21757Y139300D01*
G75*
G02*
X22650Y139457I897J-2469D01*
G01*
X31692D01*
X36972Y144738D01*
X42983Y138728D01*
X41188Y136933D01*
X43309D01*
X44043Y137667D01*
X44777Y136933D01*
X57850D01*
Y145799D01*
X35911D01*
X29901Y139789D01*
X23891Y145799D01*
X3100D01*
G37*
Y158361D02*
G36*
X3100Y158361D02*
Y145799D01*
X23891D01*
X29901Y151809D01*
X35911Y145799D01*
X57850D01*
Y160850D01*
X55950Y162750D01*
X44500D01*
G75*
G02*
X39400I-2550J0D01*
G01*
X23611D01*
G75*
G02*
X23750Y161050I-10362J-1700D01*
G01*
Y161050D01*
G75*
G02*
X3100Y158361I-10500J0D01*
G01*
G37*
Y170365D02*
G36*
X3100Y170365D02*
Y163738D01*
G75*
G02*
X23611Y162750I10150J-2689D01*
G01*
X39400D01*
G75*
G02*
X44500I2550J0D01*
G01*
X55950D01*
X25968Y192732D01*
X25468D01*
X3100Y170365D01*
G37*
X26718Y193982D02*
X59350Y161350D01*
Y133452D01*
X74048Y118753D01*
X98047D01*
Y121450D01*
G75*
G02*
X98150Y121937I1203J0D01*
G01*
Y123350D01*
X131778D01*
X127864Y127264D01*
G75*
G02*
X132036Y131436I2086J2086D01*
G01*
X140122Y123350D01*
X161078D01*
X159864Y124564D01*
G75*
G02*
X164036Y128736I2086J2086D01*
G01*
X167036Y125736D01*
X168547Y127247D01*
Y161250D01*
G75*
G02*
X168550Y161337I1203J0D01*
G01*
Y162350D01*
X207932Y201732D01*
X170215Y239450D01*
X72185D01*
X26718Y193982D01*
X62400Y203200D02*
X57800D01*
Y211700D01*
X66300D01*
Y203200D01*
X65100D01*
Y199409D01*
X69109Y195400D01*
X69168D01*
X67684Y196884D01*
G75*
G02*
X67243Y197950I1066J1066D01*
G01*
Y201850D01*
G75*
G02*
X67668Y202900I1507J0D01*
G01*
X67959Y203200D01*
X67800D01*
Y211700D01*
X75491D01*
X73991Y213200D01*
X67800D01*
Y221700D01*
X76300D01*
Y214709D01*
X77800Y213209D01*
Y221700D01*
X86300D01*
Y215509D01*
X87505Y214305D01*
G75*
G02*
X87800Y213860I-955J-954D01*
G01*
Y221700D01*
X96300D01*
Y214909D01*
X97800Y213409D01*
Y221700D01*
X106300D01*
Y214109D01*
X107505Y212905D01*
G75*
G02*
X107900Y211950I-955J-954D01*
G01*
Y211700D01*
X115800D01*
Y211791D01*
X114391Y213200D01*
X107800D01*
Y221700D01*
X116300D01*
Y215109D01*
X117800Y213609D01*
Y221700D01*
X126300D01*
Y215109D01*
X127800Y213609D01*
Y221700D01*
X136300D01*
Y215109D01*
X137800Y213609D01*
Y221700D01*
X146300D01*
Y215109D01*
X147705Y213705D01*
G75*
G02*
X147800Y213598I-957J-954D01*
G01*
Y221700D01*
X156300D01*
Y215109D01*
X157800Y213609D01*
Y221700D01*
X166300D01*
Y213200D01*
X163400D01*
Y211700D01*
X166300D01*
Y205109D01*
X167800Y203609D01*
Y211700D01*
X176300D01*
Y203200D01*
X168133D01*
G75*
G02*
X168300Y202550I-1183J-650D01*
G01*
Y198009D01*
X169000Y197309D01*
Y202400D01*
X176100D01*
Y193100D01*
X169000D01*
Y193908D01*
G75*
G02*
X168195Y194295I150J1342D01*
G01*
X165995Y196495D01*
G75*
G02*
X165600Y197450I955J954D01*
G01*
Y201991D01*
X164391Y203200D01*
X158500D01*
Y202318D01*
X164500D01*
Y192900D01*
X157400D01*
Y196891D01*
X156195Y198095D01*
G75*
G02*
X155900Y198540I955J954D01*
G01*
Y192900D01*
X148800D01*
Y193700D01*
X148750D01*
G75*
G02*
X147795Y194095I0J1350D01*
G01*
X145795Y196095D01*
G75*
G02*
X145400Y197050I955J954D01*
G01*
Y203200D01*
X142300D01*
Y202118D01*
X144500D01*
Y192700D01*
X137400D01*
Y196315D01*
G75*
G02*
X137236Y196454I791J1095D01*
G01*
X136195Y197495D01*
G75*
G02*
X135900Y197940I955J954D01*
G01*
Y192700D01*
X128800D01*
Y193500D01*
X128550D01*
G75*
G02*
X127595Y193895I0J1350D01*
G01*
X125995Y195495D01*
G75*
G02*
X125600Y196450I955J954D01*
G01*
Y203200D01*
X122500D01*
Y201918D01*
X124700D01*
Y192500D01*
X117600D01*
Y196291D01*
X116195Y197695D01*
G75*
G02*
X116100Y197802I957J954D01*
G01*
Y192500D01*
X109000D01*
Y193300D01*
X108350D01*
G75*
G02*
X107395Y193695I0J1350D01*
G01*
X105595Y195495D01*
G75*
G02*
X105200Y196450I955J954D01*
G01*
Y203200D01*
X102300D01*
Y201518D01*
X104500D01*
Y192100D01*
X97400D01*
Y195891D01*
X95995Y197295D01*
G75*
G02*
X95900Y197402I957J954D01*
G01*
Y192100D01*
X88800D01*
Y192900D01*
X88750D01*
G75*
G02*
X87795Y193295I0J1350D01*
G01*
X85595Y195495D01*
G75*
G02*
X85200Y196450I955J954D01*
G01*
Y203200D01*
X82900D01*
Y201318D01*
X85100D01*
Y191900D01*
X78000D01*
Y195376D01*
G75*
G02*
X77595Y195654I550J1233D01*
G01*
X76500Y196750D01*
Y191900D01*
X69400D01*
Y192700D01*
X68550D01*
G75*
G02*
X67595Y193095I0J1350D01*
G01*
X62795Y197895D01*
G75*
G02*
X62400Y198850I955J954D01*
G01*
Y203200D01*
X66300Y221700D02*
Y213200D01*
X57800D01*
Y221700D01*
X66300D01*
X73048Y172205D02*
G75*
G02*
X71500Y174550I1002J2345D01*
G01*
G75*
G02*
X75405Y176710I2550J0D01*
G01*
G75*
G02*
X80500Y176575I2545J-160D01*
G01*
G75*
G02*
X83214Y176819I1550J-2025D01*
G01*
G75*
G02*
X88300Y176550I2536J-269D01*
G01*
G75*
G02*
X87100Y174387I-2550J0D01*
G01*
Y173150D01*
G75*
G02*
X86705Y172195I-1350J0D01*
G01*
X84300Y169791D01*
Y159822D01*
X74894D01*
Y168670D01*
X73488Y170080D01*
G75*
G02*
X73048Y171144I1067J1065D01*
G01*
Y172205D01*
X73300Y138050D02*
G75*
G02*
X68200I-2550J0D01*
G01*
G75*
G02*
X73300I2550J0D01*
G01*
X91702Y172273D02*
G75*
G02*
X90300Y174550I1148J2277D01*
G01*
G75*
G02*
X94604Y176400I2550J0D01*
G01*
G75*
G02*
X94600Y176550I2548J149D01*
G01*
G75*
G02*
X99700I2550J0D01*
G01*
G75*
G02*
X98457Y174361I-2550J0D01*
G01*
Y173267D01*
X99997Y171699D01*
X101243Y172967D01*
Y174570D01*
G75*
G02*
X100300Y176550I1607J1980D01*
G01*
G75*
G02*
X105400I2550J0D01*
G01*
G75*
G02*
X104257Y174424I-2550J0D01*
G01*
Y172667D01*
X106599Y175008D01*
G75*
G02*
X106000Y176650I1951J1642D01*
G01*
G75*
G02*
X111100I2550J0D01*
G01*
G75*
G02*
X111046Y176126I-2550J0D01*
G01*
G75*
G02*
X114025Y176906I2004J-1576D01*
G01*
G75*
G02*
X119075I2525J-356D01*
G01*
G75*
G02*
X121025I975J-2357D01*
G01*
G75*
G02*
X125900Y177540I2525J-356D01*
G01*
G75*
G02*
X130800Y176550I2350J-990D01*
G01*
G75*
G02*
X129914Y174617I-2550J0D01*
G01*
X132906Y171622D01*
Y174059D01*
G75*
G02*
X130900Y176550I544J2491D01*
G01*
G75*
G02*
X136000I2550J0D01*
G01*
G75*
G02*
X135859Y175713I-2550J0D01*
G01*
G75*
G02*
X135920Y175287I-1446J-426D01*
G01*
Y172927D01*
X137689Y174715D01*
G75*
G02*
X136800Y176650I1661J1935D01*
G01*
G75*
G02*
X141900I2550J0D01*
G01*
G75*
G02*
X140857Y174593I-2550J0D01*
G01*
Y174250D01*
G75*
G02*
X140824Y173933I-1507J1D01*
G01*
X141611Y174720D01*
G75*
G02*
X141800Y175257I1339J-170D01*
G01*
G75*
G02*
X146800Y174550I2450J-707D01*
G01*
G75*
G02*
X143024Y172314I-2550J0D01*
G01*
X140100Y169391D01*
Y159822D01*
X130694D01*
Y169569D01*
X127283Y172985D01*
G75*
G02*
X126843Y174050I1067J1065D01*
G01*
Y174424D01*
G75*
G02*
X125900Y175560I1408J2126D01*
G01*
G75*
G02*
X124700Y174274I-2350J990D01*
G01*
Y172350D01*
G75*
G02*
X124305Y171395I-1350J0D01*
G01*
X122500Y169591D01*
Y159822D01*
X113094D01*
Y169970D01*
X111982Y171086D01*
G75*
G02*
X111543Y172150I1067J1064D01*
G01*
Y172493D01*
G75*
G02*
X110554Y175074I1508J2057D01*
G01*
G75*
G02*
X109726Y174387I-2005J1576D01*
G01*
G75*
G02*
X109505Y174095I-1176J663D01*
G01*
X104700Y169291D01*
Y159822D01*
X95294D01*
Y168752D01*
X91796Y172172D01*
G75*
G02*
X91702Y172273I1055J1075D01*
G01*
X100333Y147309D02*
G75*
G02*
X98000Y149850I217J2541D01*
G01*
G75*
G02*
X103091Y150067I2550J0D01*
G01*
X103758Y149400D01*
X110400D01*
Y149900D01*
X126700D01*
Y149813D01*
G75*
G02*
X129994Y146000I1350J-2163D01*
G01*
X134600D01*
Y141857D01*
X140550D01*
G75*
G02*
X142026Y141254I0J-2108D01*
G01*
X146456Y136907D01*
G75*
G02*
X149703Y134450I694J-2457D01*
G01*
G75*
G02*
X145685Y132359I-2553J0D01*
G01*
G75*
G02*
X144474Y132946I265J2091D01*
G01*
X139689Y137643D01*
X134600D01*
Y137300D01*
X125800D01*
Y141100D01*
X122800D01*
Y132900D01*
X114000D01*
Y137700D01*
X113518D01*
G75*
G02*
X111182I-1168J1950D01*
G01*
X110530D01*
G75*
G02*
X106337Y139650I-1643J1950D01*
G01*
G75*
G02*
X110400Y141702I2550J0D01*
G01*
Y145500D01*
X102950D01*
G75*
G02*
X101571Y146071I0J1950D01*
G01*
X100333Y147309D01*
X149494Y159822D02*
Y170196D01*
X149737D01*
Y174497D01*
G75*
G02*
X148700Y176550I1513J2053D01*
G01*
G75*
G02*
X153791Y176768I2550J0D01*
G01*
G75*
G02*
X157900Y174750I1559J-2018D01*
G01*
G75*
G02*
X156631Y172545I-2550J0D01*
G01*
G75*
G02*
X156332Y172100I-1381J606D01*
G01*
X154720Y170439D01*
Y170196D01*
X157869D01*
X160199Y172526D01*
G75*
G02*
X159200Y174550I1551J2024D01*
G01*
G75*
G02*
X164300I2550J0D01*
G01*
G75*
G02*
X163100Y172387I-2550J0D01*
G01*
Y172168D01*
G75*
G02*
X162705Y171213I-1350J0D01*
G01*
X158900Y167409D01*
Y159822D01*
X149494D01*
X165700Y139600D02*
X157200D01*
Y148100D01*
X165700D01*
Y139600D01*
Y149600D02*
X157200D01*
Y158100D01*
X165700D01*
Y149600D01*
X176300Y221700D02*
Y213200D01*
X167800D01*
Y221700D01*
X176300D01*
X177600Y193100D02*
Y202518D01*
X184600D01*
Y202991D01*
X184391Y203200D01*
X177800D01*
Y211700D01*
X186300D01*
Y205109D01*
X186905Y204505D01*
G75*
G02*
X187300Y203550I-955J-954D01*
G01*
Y198850D01*
G75*
G02*
X186905Y197895I-1350J0D01*
G01*
X185864Y196854D01*
G75*
G02*
X184909Y196459I-954J955D01*
G01*
X184700D01*
Y193100D01*
X177600D01*
X186300Y221700D02*
Y213200D01*
X177800D01*
Y221700D01*
X186300D01*
X59350Y138050D02*
G36*
X59350Y138050D02*
Y133452D01*
X73798Y119003D01*
X98047D01*
Y121450D01*
Y121450D01*
G75*
G02*
X98150Y121937I1202J0D01*
G01*
Y123350D01*
X131778D01*
X127864Y127264D01*
G75*
G02*
X127000Y129350I2086J2086D01*
G01*
G75*
G02*
X132036Y131436I2950J0D01*
G01*
X140122Y123350D01*
X161078D01*
X159864Y124564D01*
G75*
G02*
X159000Y126650I2086J2086D01*
G01*
G75*
G02*
X164036Y128736I2950J0D01*
G01*
X167036Y125736D01*
X168547Y127247D01*
Y138050D01*
X145291D01*
X146456Y136907D01*
G75*
G02*
X149703Y134450I694J-2457D01*
G01*
G75*
G02*
X145685Y132359I-2553J0D01*
G01*
G75*
G02*
X144474Y132946I261J2083D01*
G01*
X139689Y137643D01*
X134600D01*
Y137300D01*
X125800D01*
Y138050D01*
X122800D01*
Y132900D01*
X114000D01*
Y137700D01*
X113518D01*
G75*
G02*
X111182I-1168J1948D01*
G01*
X110530D01*
G75*
G02*
X106900Y138050I-1644J1949D01*
G01*
X73300D01*
G75*
G02*
X68200I-2550J0D01*
G01*
X59350D01*
G37*
Y143850D02*
G36*
X59350Y143850D02*
Y138050D01*
X68200D01*
G75*
G02*
X73300I2550J0D01*
G01*
X106900D01*
G75*
G02*
X106337Y139649I1986J1599D01*
G01*
G75*
G02*
Y139650I2820J0D01*
G01*
G75*
G02*
X110400Y141702I2550J0D01*
G01*
Y143850D01*
X59350D01*
G37*
X122800Y141100D02*
G36*
X122800Y141100D02*
Y138050D01*
X125800D01*
Y141100D01*
X122800D01*
G37*
X134600Y143850D02*
G36*
X134600Y143850D02*
Y141857D01*
X140550D01*
G75*
G02*
X142026Y141254I-2J-2113D01*
G01*
X145291Y138050D01*
X168547D01*
Y143850D01*
X165700D01*
Y139600D01*
X157200D01*
Y143850D01*
X134600D01*
G37*
X59350Y153850D02*
G36*
X59350Y153850D02*
Y143850D01*
X110400D01*
Y145500D01*
X102950D01*
G75*
G02*
X101571Y146071I-1J1948D01*
G01*
X100333Y147309D01*
G75*
G02*
X98000Y149849I216J2540D01*
G01*
G75*
G02*
Y149850I2374J0D01*
G01*
G75*
G02*
X103091Y150067I2550J0D01*
G01*
X103758Y149400D01*
X110400D01*
Y149900D01*
X126700D01*
Y149813D01*
G75*
G02*
X130600Y147650I1350J-2163D01*
G01*
G75*
G02*
X129994Y146000I-2550J0D01*
G01*
X134600D01*
Y143850D01*
X157200D01*
Y148100D01*
X165700D01*
Y143850D01*
X168547D01*
Y153850D01*
X165700D01*
Y149600D01*
X157200D01*
Y153850D01*
X59350D01*
G37*
Y161350D02*
G36*
X59350Y161350D02*
Y153850D01*
X157200D01*
Y158100D01*
X165700D01*
Y153850D01*
X168547D01*
Y161250D01*
G75*
G02*
Y161264I801J7D01*
G01*
G75*
G02*
X168550Y161337I810J2D01*
G01*
Y162350D01*
X175661Y169461D01*
X160952D01*
X158900Y167409D01*
Y159822D01*
X149494D01*
Y169461D01*
X140170D01*
X140100Y169391D01*
Y159822D01*
X130694D01*
Y169461D01*
X122500D01*
Y159822D01*
X113094D01*
Y169461D01*
X104870D01*
X104700Y169291D01*
Y159822D01*
X95294D01*
Y168752D01*
X94570Y169461D01*
X84300D01*
Y159822D01*
X74894D01*
Y168670D01*
X74106Y169461D01*
X51239D01*
X59350Y161350D01*
G37*
X26968Y194232D02*
G36*
X26968Y194232D02*
Y193732D01*
X51239Y169461D01*
X74106D01*
X73488Y170080D01*
G75*
G02*
X73048Y171143I1063J1063D01*
G01*
G75*
G02*
Y171144I1410J1D01*
G01*
Y172205D01*
G75*
G02*
X71500Y174549I1000J2344D01*
G01*
G75*
G02*
Y174550I2707J1D01*
G01*
G75*
G02*
X75405Y176710I2550J0D01*
G01*
G75*
G02*
X80500Y176575I2545J-161D01*
G01*
G75*
G02*
X83214Y176819I1550J-2025D01*
G01*
G75*
G02*
X88300Y176550I2536J-269D01*
G01*
G75*
G02*
X87100Y174387I-2552J1D01*
G01*
Y173150D01*
Y173150D01*
G75*
G02*
X86705Y172195I-1350J0D01*
G01*
X84300Y169791D01*
Y169461D01*
X94570D01*
X91796Y172172D01*
G75*
G02*
X91702Y172273I850J885D01*
G01*
G75*
G02*
X90300Y174549I1146J2276D01*
G01*
G75*
G02*
Y174550I2148J0D01*
G01*
G75*
G02*
X94604Y176400I2550J0D01*
G01*
G75*
G02*
X94600Y176533I2012J132D01*
G01*
G75*
G02*
Y176550I2024J8D01*
G01*
G75*
G02*
X99700I2550J0D01*
G01*
G75*
G02*
Y176549I-3222J0D01*
G01*
G75*
G02*
X98457Y174361I-2549J0D01*
G01*
Y173267D01*
X99997Y171699D01*
X101243Y172967D01*
Y174570D01*
G75*
G02*
X100300Y176550I1607J1979D01*
G01*
Y176550D01*
G75*
G02*
X105400I2550J0D01*
G01*
G75*
G02*
X104257Y174424I-2551J0D01*
G01*
Y172667D01*
X106599Y175008D01*
G75*
G02*
X106000Y176649I1949J1641D01*
G01*
G75*
G02*
Y176650I2820J0D01*
G01*
G75*
G02*
X111100I2550J0D01*
G01*
G75*
G02*
X111046Y176126I-2577J3D01*
G01*
G75*
G02*
X114025Y176906I2004J-1576D01*
G01*
G75*
G02*
X119075I2525J-357D01*
G01*
G75*
G02*
X121025I975J-2358D01*
G01*
G75*
G02*
X125900Y177540I2525J-357D01*
G01*
G75*
G02*
X130800Y176550I2350J-990D01*
G01*
G75*
G02*
X129914Y174617I-2551J0D01*
G01*
X132906Y171622D01*
Y174059D01*
G75*
G02*
X130900Y176549I544J2491D01*
G01*
G75*
G02*
Y176550I2654J0D01*
G01*
G75*
G02*
X136000I2550J0D01*
G01*
G75*
G02*
X135859Y175713I-2575J4D01*
G01*
G75*
G02*
X135920Y175287I-1481J-431D01*
G01*
Y172927D01*
X137689Y174715D01*
G75*
G02*
X136800Y176648I1657J1933D01*
G01*
G75*
G02*
Y176650I2578J1D01*
G01*
G75*
G02*
X141900I2550J0D01*
G01*
G75*
G02*
X140857Y174593I-2550J0D01*
G01*
Y174250D01*
G75*
G02*
X140824Y173933I-1530J3D01*
G01*
X141611Y174720D01*
G75*
G02*
X141800Y175257I1331J-167D01*
G01*
G75*
G02*
X146800Y174550I2450J-707D01*
G01*
G75*
G02*
X143024Y172314I-2550J0D01*
G01*
X140170Y169461D01*
X149494D01*
Y170196D01*
X149737D01*
Y174497D01*
G75*
G02*
X148700Y176548I1510J2051D01*
G01*
G75*
G02*
Y176550I2820J1D01*
G01*
G75*
G02*
X153791Y176768I2550J0D01*
G01*
G75*
G02*
X157900Y174750I1559J-2018D01*
G01*
G75*
G02*
X156631Y172545I-2550J0D01*
G01*
G75*
G02*
X156332Y172100I-1375J602D01*
G01*
X154720Y170439D01*
Y170196D01*
X157869D01*
X160199Y172526D01*
G75*
G02*
X159200Y174548I1548J2022D01*
G01*
G75*
G02*
Y174550I2578J1D01*
G01*
G75*
G02*
X164300I2550J0D01*
G01*
G75*
G02*
X163100Y172387I-2552J1D01*
G01*
Y172168D01*
Y172168D01*
G75*
G02*
X162705Y171213I-1350J0D01*
G01*
X160952Y169461D01*
X175661D01*
X207682Y201482D01*
Y201982D01*
X202865Y206800D01*
X186300D01*
Y205109D01*
X186905Y204505D01*
G75*
G02*
X187300Y203550I-956J-955D01*
G01*
Y198850D01*
Y198850D01*
G75*
G02*
X186905Y197895I-1350J0D01*
G01*
X185864Y196854D01*
G75*
G02*
X184909Y196459I-953J952D01*
G01*
X184700D01*
Y193100D01*
X177600D01*
Y202518D01*
X184600D01*
Y202991D01*
X184391Y203200D01*
X177800D01*
Y206800D01*
X176300D01*
Y203200D01*
X168133D01*
G75*
G02*
X168300Y202550I-1187J-651D01*
G01*
Y198009D01*
X169000Y197309D01*
Y202400D01*
X176100D01*
Y193100D01*
X169000D01*
Y193908D01*
G75*
G02*
X168195Y194295I148J1337D01*
G01*
X165995Y196495D01*
G75*
G02*
X165600Y197448I950J952D01*
G01*
G75*
G02*
Y197450I1456J1D01*
G01*
Y201991D01*
X164391Y203200D01*
X158500D01*
Y202318D01*
X164500D01*
Y192900D01*
X157400D01*
Y196891D01*
X156195Y198095D01*
G75*
G02*
X155900Y198540I942J946D01*
G01*
Y192900D01*
X148800D01*
Y193700D01*
X148750D01*
G75*
G02*
X147795Y194095I-2J1345D01*
G01*
X145795Y196095D01*
G75*
G02*
X145400Y197048I950J952D01*
G01*
G75*
G02*
Y197050I1456J1D01*
G01*
Y203200D01*
X142300D01*
Y202118D01*
X144500D01*
Y192700D01*
X137400D01*
Y196315D01*
G75*
G02*
X137236Y196454I707J997D01*
G01*
X136195Y197495D01*
G75*
G02*
X135900Y197940I942J946D01*
G01*
Y192700D01*
X128800D01*
Y193500D01*
X128550D01*
G75*
G02*
X127595Y193895I-2J1345D01*
G01*
X125995Y195495D01*
G75*
G02*
X125600Y196448I950J952D01*
G01*
G75*
G02*
Y196450I1456J1D01*
G01*
Y203200D01*
X122500D01*
Y201918D01*
X124700D01*
Y192500D01*
X117600D01*
Y196291D01*
X116195Y197695D01*
G75*
G02*
X116100Y197802I804J817D01*
G01*
Y192500D01*
X109000D01*
Y193300D01*
X108350D01*
G75*
G02*
X107395Y193695I-2J1345D01*
G01*
X105595Y195495D01*
G75*
G02*
X105200Y196448I950J952D01*
G01*
G75*
G02*
Y196450I1456J1D01*
G01*
Y203200D01*
X102300D01*
Y201518D01*
X104500D01*
Y192100D01*
X97400D01*
Y195891D01*
X95995Y197295D01*
G75*
G02*
X95900Y197402I804J817D01*
G01*
Y192100D01*
X88800D01*
Y192900D01*
X88750D01*
G75*
G02*
X87795Y193295I-2J1345D01*
G01*
X85595Y195495D01*
G75*
G02*
X85200Y196448I950J952D01*
G01*
G75*
G02*
Y196450I1456J1D01*
G01*
Y203200D01*
X82900D01*
Y201318D01*
X85100D01*
Y191900D01*
X78000D01*
Y195376D01*
G75*
G02*
X77595Y195654I542J1221D01*
G01*
X76500Y196750D01*
Y191900D01*
X69400D01*
Y192700D01*
X68550D01*
G75*
G02*
X67595Y193095I-2J1345D01*
G01*
X62795Y197895D01*
G75*
G02*
X62400Y198848I950J952D01*
G01*
G75*
G02*
Y198850I1456J1D01*
G01*
Y203200D01*
X57800D01*
Y206800D01*
X39535D01*
X26968Y194232D01*
G37*
X65100Y203200D02*
G36*
X65100Y203200D02*
Y199409D01*
X69109Y195400D01*
X69168D01*
X67684Y196884D01*
G75*
G02*
X67243Y197949I1065J1065D01*
G01*
G75*
G02*
Y197950I1735J1D01*
G01*
Y201850D01*
Y201850D01*
G75*
G02*
X67668Y202900I1507J0D01*
G01*
X67959Y203200D01*
X67800D01*
Y206800D01*
X66300D01*
Y203200D01*
X65100D01*
G37*
X109505Y174095D02*
G36*
X109505Y174095D02*
X104870Y169461D01*
X113094D01*
Y169970D01*
X111982Y171086D01*
G75*
G02*
X111543Y172149I1066J1063D01*
G01*
G75*
G02*
Y172150I1253J0D01*
G01*
Y172493D01*
G75*
G02*
X110500Y174550I1506J2056D01*
G01*
G75*
G02*
X110554Y175074I2548J1D01*
G01*
G75*
G02*
X109726Y174387I-2004J1576D01*
G01*
G75*
G02*
X109505Y174095I-1182J667D01*
G01*
G37*
X122500Y169591D02*
G36*
X122500Y169591D02*
Y169461D01*
X130694D01*
Y169569D01*
X127283Y172985D01*
G75*
G02*
X126843Y174049I1065J1065D01*
G01*
G75*
G02*
Y174050I1880J0D01*
G01*
Y174424D01*
G75*
G02*
X125900Y175560I1403J2122D01*
G01*
G75*
G02*
X124700Y174274I-2351J991D01*
G01*
Y172350D01*
Y172350D01*
G75*
G02*
X124305Y171395I-1350J0D01*
G01*
X122500Y169591D01*
G37*
X166300Y206800D02*
G36*
X166300Y206800D02*
Y205109D01*
X167800Y203609D01*
Y206800D01*
X166300D01*
G37*
X50185Y217450D02*
G36*
X50185Y217450D02*
X39535Y206800D01*
X57800D01*
Y211700D01*
X66300D01*
Y206800D01*
X67800D01*
Y211700D01*
X75491D01*
X73991Y213200D01*
X67800D01*
Y217450D01*
X66300D01*
Y213200D01*
X57800D01*
Y217450D01*
X50185D01*
G37*
X76300D02*
G36*
X76300Y217450D02*
Y214709D01*
X77800Y213209D01*
Y217450D01*
X76300D01*
G37*
X86300D02*
G36*
X86300Y217450D02*
Y215509D01*
X87505Y214305D01*
G75*
G02*
X87800Y213860I-965J-961D01*
G01*
Y217450D01*
X86300D01*
G37*
X96300D02*
G36*
X96300Y217450D02*
Y214909D01*
X97800Y213409D01*
Y217450D01*
X96300D01*
G37*
X106300D02*
G36*
X106300Y217450D02*
Y214109D01*
X107505Y212905D01*
G75*
G02*
X107900Y211950I-956J-955D01*
G01*
Y211700D01*
X115800D01*
Y211791D01*
X114391Y213200D01*
X107800D01*
Y217450D01*
X106300D01*
G37*
X116300D02*
G36*
X116300Y217450D02*
Y215109D01*
X117800Y213609D01*
Y217450D01*
X116300D01*
G37*
X126300D02*
G36*
X126300Y217450D02*
Y215109D01*
X127800Y213609D01*
Y217450D01*
X126300D01*
G37*
X136300D02*
G36*
X136300Y217450D02*
Y215109D01*
X137800Y213609D01*
Y217450D01*
X136300D01*
G37*
X146300D02*
G36*
X146300Y217450D02*
Y215109D01*
X147705Y213705D01*
G75*
G02*
X147800Y213598I-1089J-1072D01*
G01*
Y217450D01*
X146300D01*
G37*
X156300D02*
G36*
X156300Y217450D02*
Y215109D01*
X157800Y213609D01*
Y217450D01*
X156300D01*
G37*
X163400Y213200D02*
G36*
X163400Y213200D02*
Y211700D01*
X166300D01*
Y206800D01*
X167800D01*
Y211700D01*
X176300D01*
Y206800D01*
X177800D01*
Y211700D01*
X186300D01*
Y206800D01*
X202865D01*
X192215Y217450D01*
X186300D01*
Y213200D01*
X177800D01*
Y217450D01*
X176300D01*
Y213200D01*
X167800D01*
Y217450D01*
X166300D01*
Y213200D01*
X163400D01*
G37*
X50185Y217450D02*
G36*
X50185Y217450D02*
X57800D01*
Y221700D01*
X66300D01*
Y217450D01*
X67800D01*
Y221700D01*
X76300D01*
Y217450D01*
X77800D01*
Y221700D01*
X86300D01*
Y217450D01*
X87800D01*
Y221700D01*
X96300D01*
Y217450D01*
X97800D01*
Y221700D01*
X106300D01*
Y217450D01*
X107800D01*
Y221700D01*
X116300D01*
Y217450D01*
X117800D01*
Y221700D01*
X126300D01*
Y217450D01*
X127800D01*
Y221700D01*
X136300D01*
Y217450D01*
X137800D01*
Y221700D01*
X146300D01*
Y217450D01*
X147800D01*
Y221700D01*
X156300D01*
Y217450D01*
X157800D01*
Y221700D01*
X166300D01*
Y217450D01*
X167800D01*
Y221700D01*
X176300D01*
Y217450D01*
X177800D01*
Y221700D01*
X186300D01*
Y217450D01*
X192215D01*
X170465Y239200D01*
X71935D01*
X50185Y217450D01*
G37*
X50600Y112449D02*
Y111650D01*
G75*
G02*
X50175Y110625I-1450J0D01*
G01*
X42000Y102449D01*
Y101151D01*
X81151Y62000D01*
X83385D01*
X64681Y80703D01*
X70904Y86926D01*
X73514Y84316D01*
G75*
G02*
X76487Y86562I2536J-266D01*
G01*
X50600Y112449D01*
X51033Y95509D02*
G75*
G02*
X48700Y98050I217J2541D01*
G01*
G75*
G02*
X53791Y98267I2550J0D01*
G01*
X53876Y98182D01*
X55135Y99442D01*
X61358Y93219D01*
X55701Y87562D01*
X49478Y93785D01*
X51118Y95424D01*
X51033Y95509D01*
X49478Y93785D02*
G36*
X49478Y93785D02*
X49775Y94081D01*
X49070D01*
X80901Y62250D01*
X83135D01*
X64681Y80703D01*
X70904Y86926D01*
X73514Y84316D01*
G75*
G02*
X76487Y86562I2537J-266D01*
G01*
X68968Y94081D01*
X60496D01*
X61358Y93219D01*
X55701Y87562D01*
X49478Y93785D01*
G37*
X42250Y102699D02*
G36*
X42250Y102699D02*
Y100901D01*
X49070Y94081D01*
X49775D01*
X51118Y95424D01*
X51033Y95509D01*
G75*
G02*
X48700Y98049I216J2540D01*
G01*
G75*
G02*
Y98050I2374J0D01*
G01*
G75*
G02*
X53791Y98267I2550J0D01*
G01*
X53876Y98182D01*
X55135Y99442D01*
X60496Y94081D01*
X68968D01*
X50850Y112199D01*
X50600D01*
Y111650D01*
G75*
G02*
X50175Y110625I-1451J0D01*
G01*
X42250Y102699D01*
G37*
X79849Y77981D02*
X83587Y74243D01*
X86230Y76820D01*
X81898Y81152D01*
G75*
G02*
X81900Y81050I-2552J-100D01*
G01*
G75*
G02*
X80625Y78841I-2550J0D01*
G01*
G75*
G02*
X80375Y78507I-1274J693D01*
G01*
X79849Y77981D01*
G36*
X79849Y77981D02*
X83587Y74243D01*
X86230Y76820D01*
X81898Y81152D01*
G75*
G02*
X81900Y81050I-2552J-100D01*
G01*
G75*
G02*
X80625Y78841I-2550J0D01*
G01*
G75*
G02*
X80375Y78507I-1274J693D01*
G01*
X79849Y77981D01*
G37*
X168014Y124714D02*
G75*
G02*
X168600Y122950I-2364J-1765D01*
G01*
Y122370D01*
X169047D01*
Y115933D01*
X168600D01*
Y113921D01*
X169921D01*
Y109059D01*
X168010D01*
G75*
G02*
X164607I-1702J2431D01*
G01*
X162696D01*
Y111300D01*
X160799D01*
Y110799D01*
X152200D01*
Y109421D01*
X152704D01*
Y109098D01*
X153901D01*
Y109100D01*
X158799D01*
Y100299D01*
X158231D01*
G75*
G02*
X157840Y99760I-1880J952D01*
G01*
X156140Y98060D01*
G75*
G02*
X154650Y97443I-1490J1490D01*
G01*
X152704D01*
Y97078D01*
X152200D01*
Y96067D01*
X153470D01*
Y95027D01*
G75*
G02*
X157459Y92492I1480J-2077D01*
G01*
X179051Y70900D01*
X206500D01*
Y73700D01*
X215000D01*
Y65200D01*
X206500D01*
Y68000D01*
X178450D01*
G75*
G02*
X177425Y68425I0J1450D01*
G01*
X155408Y90441D01*
G75*
G02*
X153470Y90873I-458J2509D01*
G01*
Y89236D01*
X150998D01*
X149403Y87681D01*
X152322D01*
Y80456D01*
X152157D01*
G75*
G02*
X151540Y79023I-2107J57D01*
G01*
X149961Y77444D01*
X151447D01*
G75*
G02*
X155694Y78000I2303J-1094D01*
G01*
X160450D01*
G75*
G02*
X161475Y77575I0J-1450D01*
G01*
X176375Y62675D01*
G75*
G02*
X176800Y61650I-1025J-1025D01*
G01*
Y42150D01*
G75*
G02*
X176375Y41125I-1450J0D01*
G01*
X175275Y40025D01*
G75*
G02*
X174600Y39643I-1025J1025D01*
G01*
Y37500D01*
X174606D01*
G75*
G02*
X179100Y35850I1944J-1650D01*
G01*
G75*
G02*
X174600Y34207I-2550J0D01*
G01*
Y18850D01*
X185915D01*
X239450Y72385D01*
Y77552D01*
G75*
G02*
X219050Y81050I-9900J3498D01*
G01*
G75*
G02*
X239450Y84548I10500J0D01*
G01*
Y96649D01*
X237444D01*
G75*
G02*
X237800Y95350I-2194J-1300D01*
G01*
G75*
G02*
X232700I-2550J0D01*
G01*
G75*
G02*
X233225Y96900I2550J0D01*
G01*
X232299D01*
Y96649D01*
X226600D01*
Y99022D01*
G75*
G02*
Y100678I2850J828D01*
G01*
Y103051D01*
X232299D01*
Y102800D01*
X235000D01*
Y103051D01*
X239450D01*
Y137252D01*
X235000D01*
Y138000D01*
X232299D01*
Y137252D01*
X228200D01*
Y134600D01*
X230948D01*
Y131366D01*
G75*
G02*
X233650Y133000I2702J-1416D01*
G01*
G75*
G02*
Y126900I0J-3050D01*
G01*
G75*
G02*
X230948Y128534I0J3050D01*
G01*
Y123401D01*
X228450D01*
Y116901D01*
X230948D01*
Y111766D01*
G75*
G02*
X233650Y113400I2702J-1416D01*
G01*
G75*
G02*
Y107300I0J-3050D01*
G01*
G75*
G02*
X230948Y108934I0J3050D01*
G01*
Y105700D01*
X222551D01*
Y108610D01*
X222500Y108662D01*
Y105901D01*
X221657D01*
Y104644D01*
G75*
G02*
X222500Y102750I-1708J-1894D01*
G01*
G75*
G02*
X217400I-2550J0D01*
G01*
G75*
G02*
X218443Y104807I2550J0D01*
G01*
Y105901D01*
X213100D01*
Y114700D01*
X214100D01*
Y116052D01*
G75*
G02*
X213400Y116779I1450J2098D01*
G01*
G75*
G02*
X212857Y116170I-2150J1371D01*
G01*
Y106250D01*
G75*
G02*
X212385Y105111I-1607J0D01*
G01*
X200021Y92789D01*
Y89980D01*
X195957D01*
Y89722D01*
G75*
G02*
X196184Y86921I-2007J-1572D01*
G01*
X200021D01*
Y79696D01*
X195957D01*
Y78801D01*
X196299D01*
Y73901D01*
X187500D01*
Y78801D01*
X191743D01*
Y79696D01*
X187679D01*
Y86921D01*
X191716D01*
G75*
G02*
X191644Y89239I2234J1229D01*
G01*
Y89980D01*
X187679D01*
Y91394D01*
G75*
G02*
X186199Y93952I1470J2557D01*
G01*
Y103651D01*
G75*
G02*
X187064Y105737I2950J0D01*
G01*
X191265Y109936D01*
G75*
G02*
X193350Y110800I2086J-2086D01*
G01*
X196330D01*
Y111547D01*
X202767D01*
Y110018D01*
X204400Y111651D01*
Y118950D01*
G75*
G02*
X204825Y119975I1450J0D01*
G01*
X211925Y127075D01*
G75*
G02*
X212950Y127500I1025J-1025D01*
G01*
X222551D01*
Y128700D01*
X230868D01*
G75*
G02*
X230670Y129299I2782J1249D01*
G01*
X222551D01*
Y134600D01*
X225300D01*
Y137249D01*
X225208Y137341D01*
G75*
G02*
X222200Y139850I-458J2509D01*
G01*
G75*
G02*
X224742Y142400I2550J0D01*
G01*
X220742Y146400D01*
X213487D01*
G75*
G02*
X213107Y146035I-2237J1949D01*
G01*
X206551Y139479D01*
Y128901D01*
X200149D01*
Y145200D01*
X203928D01*
X208935Y150207D01*
G75*
G02*
X210134Y151100I2315J-1857D01*
G01*
X208448D01*
Y167000D01*
X216850D01*
Y151100D01*
X212366D01*
G75*
G02*
X213487Y150300I-1116J-2750D01*
G01*
X221550D01*
G75*
G02*
X222929Y149729I0J-1950D01*
G01*
X229009Y143649D01*
X232299D01*
Y142900D01*
X235000D01*
Y143649D01*
X239450D01*
Y157552D01*
G75*
G02*
X219050Y161050I-9900J3498D01*
G01*
G75*
G02*
X239450Y164548I10500J0D01*
G01*
Y170215D01*
X209082Y200582D01*
X169750Y161250D01*
Y126450D01*
X168014Y124714D01*
X169143Y100085D02*
Y101578D01*
X162696D01*
Y106441D01*
X169179D01*
G75*
G02*
X169760Y107540I2071J-391D01*
G01*
X171560Y109340D01*
G75*
G02*
X172980Y109956I1490J-1490D01*
G01*
Y113921D01*
X180204D01*
Y109700D01*
X180901D01*
Y114100D01*
X185799D01*
Y105299D01*
X180901D01*
Y105800D01*
X180204D01*
Y101578D01*
X173357D01*
Y100085D01*
G75*
G02*
X173800Y98650I-2107J-1435D01*
G01*
G75*
G02*
X168700I-2550J0D01*
G01*
G75*
G02*
X169143Y100085I2550J0D01*
G01*
X175700Y81050D02*
G75*
G02*
X180800I2550J0D01*
G01*
G75*
G02*
X175700I-2550J0D01*
G01*
X180937Y33447D02*
X186947Y27437D01*
X180937Y21426D01*
X174926Y27437D01*
X180937Y33447D01*
X183400Y136750D02*
G75*
G02*
X178300I-2550J0D01*
G01*
G75*
G02*
X183400I2550J0D01*
G01*
X188008Y40518D02*
X194018Y34508D01*
X188008Y28498D01*
X181998Y34508D01*
X188008Y40518D01*
X190350Y167000D02*
Y151100D01*
X181948D01*
Y167000D01*
X190350D01*
X191800Y156950D02*
G75*
G02*
X196900I2550J0D01*
G01*
G75*
G02*
X191800I-2550J0D01*
G01*
X192500Y128901D02*
X192252D01*
Y145200D01*
X198649D01*
Y128901D01*
X198400D01*
Y120472D01*
X200325Y118547D01*
X202767D01*
Y111756D01*
X196330D01*
Y114198D01*
X193364Y117164D01*
G75*
G02*
X192500Y119250I2086J2086D01*
G01*
Y128901D01*
X195079Y47589D02*
X201089Y41579D01*
X195079Y35569D01*
X189069Y41579D01*
X195079Y47589D01*
X202150Y54660D02*
X208160Y48650D01*
X202150Y42640D01*
X196140Y48650D01*
X202150Y54660D01*
X206500Y63700D02*
X215000D01*
Y55200D01*
X206500D01*
Y63700D01*
Y83700D02*
X215000D01*
Y75200D01*
X206500D01*
Y83700D01*
Y93700D02*
X215000D01*
Y85200D01*
X206500D01*
Y93700D01*
X221600Y65350D02*
G75*
G02*
X226700I2550J0D01*
G01*
G75*
G02*
X221600I-2550J0D01*
G01*
X174600Y27437D02*
G36*
X174600Y27437D02*
Y19100D01*
X186165D01*
X194501Y27437D01*
X186947D01*
X180937Y21426D01*
X174926Y27437D01*
X174600D01*
G37*
Y34207D02*
G36*
X174600Y34207D02*
Y27437D01*
X174926D01*
X180937Y33447D01*
X186947Y27437D01*
X194501D01*
X201572Y34508D01*
X194018D01*
X188008Y28498D01*
X181998Y34508D01*
X178719D01*
G75*
G02*
X174600Y34207I-2169J1342D01*
G01*
G37*
Y39643D02*
G36*
X174600Y39643D02*
Y37500D01*
X174606D01*
G75*
G02*
X179100Y35850I1944J-1650D01*
G01*
Y35850D01*
G75*
G02*
X178719Y34508I-2550J0D01*
G01*
X181998D01*
X188008Y40518D01*
X194018Y34508D01*
X201572D01*
X208643Y41579D01*
X201089D01*
X195079Y35569D01*
X189069Y41579D01*
X176683D01*
G75*
G02*
X176375Y41125I-1333J572D01*
G01*
X175275Y40025D01*
G75*
G02*
X174600Y39643I-1026J1026D01*
G01*
G37*
X176800Y42150D02*
G36*
X176800Y42150D02*
G75*
G02*
X176683Y41579I-1451J0D01*
G01*
X189069D01*
X195079Y47589D01*
X201089Y41579D01*
X208643D01*
X215715Y48650D01*
X208160D01*
X202150Y42640D01*
X196140Y48650D01*
X176800D01*
Y42150D01*
G37*
Y59450D02*
G36*
X176800Y59450D02*
Y48650D01*
X196140D01*
X202150Y54660D01*
X208160Y48650D01*
X215715D01*
X226515Y59450D01*
X215000D01*
Y55200D01*
X206500D01*
Y59450D01*
X176800D01*
G37*
X173700Y65350D02*
G36*
X173700Y65350D02*
X176375Y62675D01*
G75*
G02*
X176800Y61650I-1028J-1026D01*
G01*
Y59450D01*
X206500D01*
Y63700D01*
X215000D01*
Y59450D01*
X226515D01*
X232415Y65350D01*
X226700D01*
G75*
G02*
X221600I-2550J0D01*
G01*
X215000D01*
Y65200D01*
X206500D01*
Y65350D01*
X173700D01*
G37*
X149961Y77444D02*
G36*
X149961Y77444D02*
X151447D01*
G75*
G02*
X155694Y78000I2303J-1094D01*
G01*
X160450D01*
G75*
G02*
X161475Y77575I-1J-1453D01*
G01*
X173700Y65350D01*
X206500D01*
Y68000D01*
X178450D01*
G75*
G02*
X177425Y68425I-1J1446D01*
G01*
X164799Y81050D01*
X152322D01*
Y80456D01*
X152157D01*
G75*
G02*
X151540Y79023I-2106J57D01*
G01*
X149961Y77444D01*
G37*
X175700Y81050D02*
G36*
X175700Y81050D02*
X168901D01*
X179051Y70900D01*
X206500D01*
Y73700D01*
X215000D01*
Y65350D01*
X221600D01*
G75*
G02*
X226700I2550J0D01*
G01*
X232415D01*
X239200Y72135D01*
Y76911D01*
G75*
G02*
X219050Y81050I-9650J4138D01*
G01*
Y81050D01*
X215000D01*
Y75200D01*
X206500D01*
Y81050D01*
X200021D01*
Y79696D01*
X195957D01*
Y78801D01*
X196299D01*
Y73901D01*
X187500D01*
Y78801D01*
X191743D01*
Y79696D01*
X187679D01*
Y81050D01*
X180800D01*
G75*
G02*
X175700I-2550J0D01*
G01*
G37*
X149653Y87924D02*
G36*
X149653Y87924D02*
Y87681D01*
X152322D01*
Y81050D01*
X164799D01*
X156399Y89450D01*
X153470D01*
Y89236D01*
X150998D01*
X149653Y87924D01*
G37*
X160500Y89450D02*
G36*
X160500Y89450D02*
X168901Y81050D01*
X175700D01*
G75*
G02*
X180800I2550J0D01*
G01*
X187679D01*
Y86921D01*
X191716D01*
G75*
G02*
X191400Y88150I2234J1229D01*
G01*
G75*
G02*
X191644Y89239I2549J0D01*
G01*
Y89450D01*
X160500D01*
G37*
X196500Y88150D02*
G36*
X196500Y88150D02*
G75*
G02*
X196184Y86921I-2552J0D01*
G01*
X200021D01*
Y81050D01*
X206500D01*
Y83700D01*
X215000D01*
Y81050D01*
X219050D01*
G75*
G02*
X223251Y89450I10500J0D01*
G01*
X215000D01*
Y85200D01*
X206500D01*
Y89450D01*
X196143D01*
G75*
G02*
X196500Y88150I-2196J-1301D01*
G01*
G37*
X235849Y89450D02*
G36*
X235849Y89450D02*
G75*
G02*
X239200Y85189I-6299J-8401D01*
G01*
Y89450D01*
X235849D01*
G37*
X152200Y97078D02*
G36*
X152200Y97078D02*
Y96067D01*
X153470D01*
Y95027D01*
G75*
G02*
X157500Y92949I1480J-2078D01*
G01*
G75*
G02*
X157459Y92492I-2550J0D01*
G01*
X160500Y89450D01*
X191644D01*
Y89980D01*
X187679D01*
Y91394D01*
G75*
G02*
X186199Y93951I1469J2557D01*
G01*
G75*
G02*
Y93952I3470J0D01*
G01*
Y103651D01*
G75*
G02*
Y103652I4101J0D01*
G01*
G75*
G02*
X186580Y105100I2948J0D01*
G01*
X180204D01*
Y101578D01*
X173357D01*
Y100085D01*
G75*
G02*
X173800Y98650I-2114J-1437D01*
G01*
G75*
G02*
X168700I-2550J0D01*
G01*
Y98650D01*
G75*
G02*
X169143Y100085I2548J0D01*
G01*
Y101578D01*
X162696D01*
Y105100D01*
X158799D01*
Y100299D01*
X158231D01*
G75*
G02*
X157840Y99760I-1887J956D01*
G01*
X156140Y98060D01*
G75*
G02*
X154650Y97443I-1490J1489D01*
G01*
X152704D01*
Y97078D01*
X152200D01*
G37*
X153470Y90873D02*
G36*
X153470Y90873D02*
Y89450D01*
X156399D01*
X155408Y90441D01*
G75*
G02*
X153470Y90873I-459J2504D01*
G01*
G37*
X195957Y89980D02*
G36*
X195957Y89980D02*
Y89722D01*
G75*
G02*
X196143Y89450I-2010J-1572D01*
G01*
X206500D01*
Y93700D01*
X215000D01*
Y89450D01*
X223251D01*
G75*
G02*
X235849I6299J-8400D01*
G01*
X239200D01*
Y96649D01*
X237444D01*
G75*
G02*
X237800Y95350I-2205J-1302D01*
G01*
G75*
G02*
X232700I-2550J0D01*
G01*
G75*
G02*
Y95351I2256J0D01*
G01*
G75*
G02*
X233225Y96900I2547J0D01*
G01*
X232299D01*
Y96649D01*
X226600D01*
Y99022D01*
G75*
G02*
X226482Y99850I2840J828D01*
G01*
G75*
G02*
X226600Y100678I2958J0D01*
G01*
Y103051D01*
X232299D01*
Y102800D01*
X235000D01*
Y103051D01*
X239200D01*
Y105100D01*
X221657D01*
Y104644D01*
G75*
G02*
X222500Y102750I-1713J-1896D01*
G01*
G75*
G02*
X217400I-2550J0D01*
G01*
G75*
G02*
Y102751I2374J0D01*
G01*
G75*
G02*
X218443Y104807I2548J0D01*
G01*
Y105100D01*
X212373D01*
X200021Y92789D01*
Y89980D01*
X195957D01*
G37*
X152200Y110799D02*
G36*
X152200Y110799D02*
Y109421D01*
X152704D01*
Y109098D01*
X153901D01*
Y109100D01*
X158799D01*
Y105100D01*
X162696D01*
Y106441D01*
X169179D01*
G75*
G02*
X169760Y107540I2068J-389D01*
G01*
X171560Y109340D01*
G75*
G02*
X172980Y109956I1491J-1492D01*
G01*
Y113921D01*
X180204D01*
Y109700D01*
X180901D01*
Y114100D01*
X185799D01*
Y105299D01*
X180901D01*
Y105800D01*
X180204D01*
Y105100D01*
X186580D01*
G75*
G02*
X187064Y105737I2568J-1449D01*
G01*
X191265Y109936D01*
G75*
G02*
X193350Y110800I2087J-2089D01*
G01*
X196330D01*
Y111547D01*
X202767D01*
Y110018D01*
X204400Y111651D01*
Y118950D01*
Y118950D01*
G75*
G02*
X204825Y119975I1448J0D01*
G01*
X211925Y127075D01*
G75*
G02*
X212950Y127500I1026J-1026D01*
G01*
X222551D01*
Y128700D01*
X230868D01*
G75*
G02*
X230670Y129299I2751J1239D01*
G01*
X222551D01*
Y134600D01*
X225300D01*
Y136750D01*
X206551D01*
Y128901D01*
X200149D01*
Y136750D01*
X198649D01*
Y128901D01*
X198400D01*
Y120472D01*
X200325Y118547D01*
X202767D01*
Y111756D01*
X196330D01*
Y114198D01*
X193364Y117164D01*
G75*
G02*
X192500Y119249I2082J2085D01*
G01*
G75*
G02*
Y119250I2603J1D01*
G01*
Y128901D01*
X192252D01*
Y136750D01*
X183400D01*
G75*
G02*
X178300I-2550J0D01*
G01*
X169750D01*
Y126450D01*
X168014Y124714D01*
G75*
G02*
X168600Y122950I-2367J-1765D01*
G01*
Y122370D01*
X169047D01*
Y115933D01*
X168600D01*
Y113921D01*
X169921D01*
Y109059D01*
X168010D01*
G75*
G02*
X164607I-1702J2430D01*
G01*
X162696D01*
Y111300D01*
X160799D01*
Y110799D01*
X152200D01*
G37*
X212385Y105111D02*
G36*
X212385Y105111D02*
X212373Y105100D01*
X218443D01*
Y105901D01*
X213100D01*
Y114700D01*
X214100D01*
Y116052D01*
G75*
G02*
X213400Y116779I1434J2083D01*
G01*
G75*
G02*
X212857Y116170I-2151J1372D01*
G01*
Y106250D01*
G75*
G02*
X212385Y105111I-1610J1D01*
G01*
G37*
X221657Y105901D02*
G36*
X221657Y105901D02*
Y105100D01*
X239200D01*
Y136750D01*
X228200D01*
Y134600D01*
X230948D01*
Y131366D01*
G75*
G02*
X233650Y133000I2702J-1417D01*
G01*
G75*
G02*
X236700Y129950I0J-3050D01*
G01*
G75*
G02*
X233650Y126900I-3050J0D01*
G01*
G75*
G02*
X230948Y128534I-1J3049D01*
G01*
Y123401D01*
X228450D01*
Y116901D01*
X230948D01*
Y111766D01*
G75*
G02*
X233650Y113400I2702J-1416D01*
G01*
G75*
G02*
X236700Y110350I0J-3050D01*
G01*
G75*
G02*
X233650Y107300I-3050J0D01*
G01*
G75*
G02*
X230948Y108934I-1J3049D01*
G01*
Y105700D01*
X222551D01*
Y108610D01*
X222500Y108662D01*
Y105901D01*
X221657D01*
G37*
X169750Y159050D02*
G36*
X169750Y159050D02*
Y136750D01*
X178300D01*
G75*
G02*
X183400I2550J0D01*
G01*
X192252D01*
Y145200D01*
X198649D01*
Y136750D01*
X200149D01*
Y145200D01*
X203928D01*
X208935Y150207D01*
G75*
G02*
X210134Y151100I2317J-1860D01*
G01*
X208448D01*
Y159050D01*
X195797D01*
G75*
G02*
X196900Y156950I-1447J-2100D01*
G01*
G75*
G02*
X191800I-2550J0D01*
G01*
G75*
G02*
X192903Y159050I2550J0D01*
G01*
X190350D01*
Y151100D01*
X181948D01*
Y159050D01*
X169750D01*
G37*
X206551Y139479D02*
G36*
X206551Y139479D02*
Y136750D01*
X225300D01*
Y137249D01*
X225208Y137341D01*
G75*
G02*
X222200Y139849I-458J2508D01*
G01*
G75*
G02*
Y139850I2654J0D01*
G01*
G75*
G02*
X224742Y142400I2550J0D01*
G01*
X220742Y146400D01*
X213487D01*
G75*
G02*
X213107Y146035I-2241J1952D01*
G01*
X206551Y139479D01*
G37*
X212366Y151100D02*
G36*
X212366Y151100D02*
G75*
G02*
X213487Y150300I-1122J-2759D01*
G01*
X221550D01*
G75*
G02*
X222929Y149729I-2J-1954D01*
G01*
X229009Y143649D01*
X232299D01*
Y142900D01*
X235000D01*
Y143649D01*
X239200D01*
Y156911D01*
G75*
G02*
X219242Y159050I-9650J4138D01*
G01*
X216850D01*
Y151100D01*
X212366D01*
G37*
X228200Y137252D02*
G36*
X228200Y137252D02*
Y136750D01*
X239200D01*
Y137252D01*
X235000D01*
Y138000D01*
X232299D01*
Y137252D01*
X228200D01*
G37*
X169750Y161250D02*
G36*
X169750Y161250D02*
Y159050D01*
X181948D01*
Y167000D01*
X190350D01*
Y159050D01*
X192903D01*
G75*
G02*
X195797I1447J-2100D01*
G01*
X208448D01*
Y167000D01*
X216850D01*
Y159050D01*
X219242D01*
G75*
G02*
X219050Y161050I10308J2000D01*
G01*
Y161050D01*
G75*
G02*
X239200Y165189I10500J0D01*
G01*
Y170465D01*
X209332Y200332D01*
X208832D01*
X169750Y161250D01*
G37*
D02*
D13*
X44043Y131657D02*
Y131143D01*
X40550Y127650D01*
X49150Y119050D01*
Y111650D01*
X40550Y103050D01*
Y100550D01*
X80550Y60550D01*
X84692D01*
X87874Y63733D01*
X51115Y124585D02*
X51350D01*
Y113750D01*
X88050Y77050D01*
Y76350D01*
X87850Y76150D01*
X86250Y74570D01*
X81793Y70114D01*
Y69814D01*
X58185Y117515D02*
X57750D01*
Y111250D01*
X64350Y104650D01*
X66350D01*
X70850Y109150D01*
X75550D01*
X87650Y97050D01*
X97350D01*
X72672Y78935D02*
X76050Y82314D01*
Y84050D01*
X75712Y75895D02*
X79350Y79533D01*
Y81050D01*
X76644Y161572D02*
Y159572D01*
Y162450D02*
X74644D01*
X78613Y161572D02*
Y159572D01*
X79750Y194050D02*
X77750D01*
X80581Y161572D02*
Y159572D01*
X81550Y193650D02*
Y191650D01*
X81793Y69814D02*
X81950D01*
Y70250D01*
X87950Y76250D01*
X108650D01*
Y76050D01*
X82550Y161572D02*
Y159572D01*
Y162450D02*
X84550D01*
X83350Y194050D02*
X85350D01*
X92550Y93650D02*
Y79850D01*
X88750D01*
X71650Y96950D01*
Y103095D01*
X72228Y103672D01*
Y103372D01*
X72328D01*
X92550Y93650D02*
Y79950D01*
X97044Y161572D02*
Y159572D01*
Y162450D02*
X95044D01*
X97350Y97050D02*
Y82950D01*
X99013Y161572D02*
Y159572D01*
X99150Y194250D02*
X97150D01*
X100950Y193850D02*
Y191850D01*
X100981Y161572D02*
Y159572D01*
X101750Y72550D02*
X100550D01*
X110150Y62950D01*
X122850D01*
X130550Y55250D01*
Y55150D01*
X139850D01*
X102750Y194250D02*
X104750D01*
X102950Y161572D02*
Y159572D01*
Y162450D02*
X104950D01*
X103850Y47650D02*
Y56950D01*
X94150Y66650D01*
X90792D01*
X87874Y63733D01*
X105050Y100250D02*
Y100350D01*
X87950D01*
X76550Y111750D01*
X66750D01*
X65443Y110443D01*
X65257D01*
X113950Y31050D02*
Y32050D01*
X73650D01*
X27650Y78050D01*
Y127715D01*
X27685D01*
X113950Y41050D02*
X89950D01*
X32350Y98650D01*
Y118250D01*
X34857Y120757D01*
Y120643D01*
X34757D01*
X113950Y46050D02*
X107550D01*
X105550Y44050D01*
X92450D01*
X36750Y99750D01*
Y109550D01*
X41550Y114350D01*
X41650Y113750D01*
X41828Y113572D01*
X114844Y161572D02*
Y159572D01*
Y162450D02*
X112844D01*
X116813Y161572D02*
Y159572D01*
X118781Y161572D02*
Y159572D01*
X119350Y194650D02*
X117350D01*
X120350Y134650D02*
Y132650D01*
X120750Y161572D02*
Y159572D01*
Y162450D02*
X122750D01*
X121050Y135350D02*
X123050D01*
X121050Y139150D02*
X123050D01*
X121150Y194250D02*
Y192250D01*
X121296Y142704D02*
X123150Y140850D01*
X122950Y194650D02*
X124950D01*
X124250Y142850D02*
Y140850D01*
X125350Y80650D02*
Y84150D01*
X121950Y87550D01*
X127404Y142704D02*
X125550Y140850D01*
X127550Y139750D02*
X125550D01*
X128250Y139050D02*
Y137050D01*
X132444Y161572D02*
Y159572D01*
Y162450D02*
X130444D01*
X134413Y161572D02*
Y159572D01*
X136381Y161572D02*
Y159572D01*
X138350Y161572D02*
Y159572D01*
Y162450D02*
X140350D01*
X139150Y194850D02*
X137150D01*
X140950Y194450D02*
Y192450D01*
X142750Y194850D02*
X144750D01*
X151244Y161572D02*
Y159572D01*
Y162450D02*
X149244D01*
X152450Y30550D02*
X159650D01*
Y31050D01*
X166750D01*
X152450Y30550D02*
Y54150D01*
X157750Y59450D01*
Y70250D01*
X156850Y71150D01*
Y71950D01*
X153213Y161572D02*
Y159572D01*
X153750Y76350D02*
Y76550D01*
X160450D01*
X175350Y61650D01*
Y42150D01*
X174250Y41050D01*
X166750D01*
X155181Y161572D02*
Y159572D01*
Y167568D02*
Y162450D01*
X156850Y51050D02*
X156650Y51250D01*
X157150Y161572D02*
Y159572D01*
Y162450D02*
X159150D01*
X158950Y143850D02*
X156950D01*
X159150Y195050D02*
X157150D01*
X160950Y194650D02*
Y192650D01*
X161450Y141350D02*
Y139350D01*
Y146350D02*
Y148350D01*
X162750Y195050D02*
X164750D01*
X163950Y143850D02*
X165950D01*
X166750Y36050D02*
X176350D01*
X176550Y35850D01*
X166750Y46050D02*
X156550D01*
X156450Y46150D01*
X169550Y207450D02*
X167550D01*
X169550Y217450D02*
X167550D01*
X172050Y204950D02*
Y202950D01*
Y209950D02*
Y211950D01*
Y214950D02*
Y212950D01*
Y219950D02*
Y221950D01*
X174550Y207450D02*
X176550D01*
X174550Y217450D02*
X176550D01*
X179350Y195250D02*
X177350D01*
X179350Y200368D02*
X177350D01*
X181150Y194850D02*
Y192850D01*
Y200768D02*
Y202768D01*
X182950Y195250D02*
X184950D01*
X197590Y93592D02*
Y93550D01*
X198550D01*
X211250Y106250D01*
Y118150D01*
X199550Y108150D02*
X202950D01*
X205850Y111050D01*
Y118950D01*
X212950Y126050D01*
X226750D01*
X210750Y69450D02*
X178450D01*
X154950Y92950D01*
X215550Y112250D02*
Y118150D01*
X220050Y108350D02*
Y102850D01*
X219950Y102750D01*
X220050Y108350D02*
X215550D01*
X220050Y112250D02*
Y118050D01*
X226750Y108350D02*
X225550D01*
Y108450D01*
X225050D01*
X221050Y112450D01*
X220650Y112550D01*
Y112250D01*
X220050D01*
X226750Y131950D02*
Y137850D01*
X224750Y139850D01*
X235250Y95350D02*
Y99550D01*
X235150Y99650D01*
X229450D01*
Y99850D01*
D02*
D14*
X72050Y207450D02*
X72150Y207050D01*
Y205250D01*
X68750Y201850D01*
Y197950D01*
X70250Y196450D01*
X72950D01*
Y196550D01*
Y194050D02*
X68550D01*
X63750Y198850D01*
Y206950D01*
X63250Y207450D01*
X62050D01*
X76644Y167568D02*
X76650D01*
Y169050D01*
X74556Y171144D01*
Y174550D01*
X74050D01*
X78613Y167568D02*
X78650D01*
Y175650D01*
X77950Y176350D01*
Y176550D01*
X80581Y167568D02*
X80650D01*
Y171550D01*
X82050Y172950D01*
Y174550D01*
X81550Y196609D02*
X78550D01*
X77350Y197809D01*
Y211750D01*
X72050Y217050D01*
Y217450D01*
X81550Y199168D02*
Y206950D01*
X82050Y207450D01*
X82550Y167568D02*
Y169950D01*
X85750Y173150D01*
Y176550D01*
X92350Y194250D02*
X88750D01*
X86550Y196450D01*
Y213350D01*
X82450Y217450D01*
X82050D01*
X92350Y196750D02*
X89850D01*
X88950Y197650D01*
Y203950D01*
X92050Y207050D01*
Y207450D01*
X97044Y167568D02*
X96950D01*
Y169150D01*
X92850Y173250D01*
Y174550D01*
X99013Y167568D02*
X99050D01*
Y170550D01*
X96950Y172650D01*
Y176450D01*
X97050Y176550D01*
X97150D01*
X100950Y196809D02*
X98391D01*
X96950Y198250D01*
Y212350D01*
X92050Y217250D01*
Y217450D01*
X100950Y199368D02*
Y206350D01*
X102050Y207450D01*
X100981Y167568D02*
Y170550D01*
X100950D01*
X102750Y172350D01*
Y176550D01*
X102850Y176650D01*
Y176550D01*
X102950Y167568D02*
Y169450D01*
X108550Y175050D01*
Y176650D01*
X112550Y194650D02*
X108350D01*
X106550Y196450D01*
Y211950D01*
X102050Y216450D01*
Y217450D01*
X112550Y197150D02*
X109850D01*
X108950Y198050D01*
Y204350D01*
X112050Y207450D01*
X114844Y167568D02*
X114850D01*
Y170350D01*
X113050Y172150D01*
Y174550D01*
X116813Y167568D02*
Y176287D01*
X116550Y176550D01*
X118781Y167568D02*
Y173281D01*
X120050Y174550D01*
X120750Y167568D02*
Y169750D01*
X123350Y172350D01*
Y176350D01*
X123550Y176550D01*
X121150Y197209D02*
X118591D01*
X117150Y198650D01*
Y212350D01*
X112050Y217450D01*
X121150Y199768D02*
Y206550D01*
X122050Y207450D01*
X132350Y194850D02*
X128550D01*
X126950Y196450D01*
Y212550D01*
X122050Y217450D01*
X132350Y197350D02*
X129850D01*
X128750Y198450D01*
Y204150D01*
X132050Y207450D01*
X132444Y167568D02*
Y169950D01*
X132450D01*
X128350Y174050D01*
Y176550D01*
X128250D01*
X133450D02*
X133350D01*
Y176350D01*
X134413Y175287D01*
Y167568D01*
X136381D02*
Y171250D01*
X136350D01*
X139350Y174250D01*
Y176650D01*
X138350Y167568D02*
Y169550D01*
X142950Y174150D01*
Y174550D01*
X144250D01*
X140950Y197409D02*
X138191D01*
X137150Y198450D01*
Y212350D01*
X132050Y217450D01*
X140950Y199968D02*
Y206350D01*
X142050Y207450D01*
X151244Y167568D02*
Y168644D01*
X151250Y168650D01*
Y176550D01*
X152350Y195050D02*
X148750D01*
X146750Y197050D01*
Y212750D01*
X142050Y217450D01*
X152350Y197550D02*
X149650D01*
X148550Y198650D01*
Y203950D01*
X152050Y207450D01*
X153213Y167568D02*
X153150D01*
Y171050D01*
X155250Y173150D01*
X155350D01*
Y174750D01*
X157150Y167568D02*
X161750Y172168D01*
Y174550D01*
X160950Y197609D02*
X158591D01*
X157150Y199050D01*
Y212350D01*
X152050Y217450D01*
X162050D02*
Y207450D01*
X172050Y217450D02*
Y207450D01*
X172550Y195250D02*
X169150D01*
X166950Y197450D01*
Y202550D01*
X162050Y207450D01*
X181150Y197809D02*
X184909D01*
X185950Y198850D01*
Y203550D01*
X182050Y207450D01*
X181150Y200368D02*
X179132D01*
X172050Y207450D01*
D02*
D16*
X28310Y144208D02*
X26543Y142440D01*
X28310Y147390D02*
X26543Y149157D01*
X31492Y144208D02*
X33260Y142440D01*
X31492Y147390D02*
X33260Y149157D01*
X77056Y71157D02*
X75288Y69390D01*
X80450Y74552D02*
X82218Y76319D01*
X82291Y23191D02*
X80523Y21423D01*
X82291Y26585D02*
X80523Y28353D01*
X85685Y23191D02*
X87453Y21423D01*
X85685Y26585D02*
X87453Y28353D01*
X98700Y21850D02*
X96200D01*
X99550Y21000D02*
Y18500D01*
Y22700D02*
Y25200D01*
X100400Y21850D02*
X102900D01*
X100400Y111350D02*
X97900D01*
X101250Y110500D02*
Y108000D01*
Y112200D02*
Y114700D01*
X102100Y111350D02*
X104600D01*
X103600Y63450D02*
X101100D01*
X104450Y62600D02*
Y60100D01*
X108100Y26050D02*
X105600D01*
X119800D02*
X122300D01*
X125200Y92950D02*
X122700D01*
X126050Y93800D02*
Y96300D01*
X126900Y92950D02*
X129400D01*
X127749Y104849D02*
X125981Y103081D01*
X127749Y106051D02*
X125981Y107819D01*
X128451Y62649D02*
X130219Y60881D01*
X128451Y63851D02*
X130219Y65619D01*
X128951Y104849D02*
X130719Y103081D01*
X128951Y106051D02*
X130719Y107819D01*
X129500Y72850D02*
X127000D01*
X130350Y72000D02*
Y69500D01*
Y73700D02*
Y76200D01*
X133800Y44150D02*
X131300D01*
X134650Y43300D02*
Y40800D01*
Y45000D02*
Y47500D01*
X135500Y44150D02*
X138000D01*
X174980Y111490D02*
X172480D01*
X176500Y96550D02*
X174000D01*
X176592Y103579D02*
Y101079D01*
Y111921D02*
Y114421D01*
X177350Y95700D02*
Y93200D01*
Y97400D02*
Y99900D01*
X178200Y96550D02*
X180700D01*
X178204Y104010D02*
X180704D01*
X183350Y112100D02*
Y114600D01*
X183800Y111650D02*
X186300D01*
X184000Y84250D02*
X181500D01*
X184515Y34508D02*
X181291D01*
X184850Y83400D02*
Y80900D01*
Y85100D02*
Y87600D01*
X188008Y31015D02*
Y27791D01*
Y38000D02*
Y41225D01*
X188900Y133650D02*
X186400D01*
X189500Y76351D02*
X187000D01*
X189679Y83308D02*
X187179D01*
X189750Y132800D02*
Y130300D01*
Y134500D02*
Y137000D01*
X189950Y75901D02*
Y73401D01*
X190110Y84920D02*
Y87420D01*
X191500Y34508D02*
X194725D01*
X226750Y126050D02*
Y114250D01*
D02*
D17*
X26215Y69248D02*
X26752D01*
X30750Y65250D01*
X55418Y93502D02*
Y93882D01*
X51250Y98050D01*
X78753Y72854D02*
Y72953D01*
X83350Y77550D01*
X84834Y66773D02*
X84873D01*
X89550Y71450D01*
X95794Y52560D02*
X89940D01*
X88150Y54350D01*
X100550Y149850D02*
X102950Y147450D01*
X112850D01*
X108887Y139650D02*
X112350D01*
X115950D01*
X116450Y139150D01*
X112850Y143550D02*
X112750D01*
Y140550D01*
X113550D01*
X115250Y142250D01*
Y140150D01*
X116650D01*
X112850Y143550D02*
Y143250D01*
X113550D01*
Y140350D01*
X112850Y139650D01*
X112350D01*
X112850Y143550D02*
X116650D01*
X112850Y147450D02*
X116550D01*
Y147350D01*
X116650D01*
Y147450D01*
X113950Y6050D02*
Y11050D01*
Y21050D02*
X106250D01*
X103050Y17850D01*
Y6350D01*
X102750Y6050D01*
X99850D01*
X116450Y135350D02*
Y139150D01*
X116650Y140150D02*
Y139650D01*
X116450D01*
Y139150D01*
X116650Y143550D02*
Y140150D01*
Y147450D02*
X120450D01*
X120350Y139150D02*
X120150Y135350D01*
Y137750D01*
X124750D01*
X120350Y139150D02*
Y135350D01*
X120450Y143550D02*
X120750D01*
X122550Y141750D01*
X120450Y143550D02*
X121150D01*
X120450D02*
X120250D01*
Y139250D01*
X120350Y139150D01*
X124250Y143550D02*
X120450D01*
X124250Y147450D02*
X127850D01*
X128050Y147650D01*
X124250Y147450D02*
X120450D01*
X124750Y137750D02*
X125750D01*
X126550Y138650D01*
Y143450D01*
X127750D01*
X128300Y143350D01*
X128250D01*
Y143550D01*
X124750Y137750D02*
X124787Y141950D01*
X125250D01*
Y143550D01*
X124250D01*
X128250Y139750D02*
Y141850D01*
X127350D01*
Y143650D01*
X128250D01*
Y143550D01*
X128950Y87550D02*
X135750D01*
X136450Y86850D01*
X132150Y139750D02*
Y139850D01*
X140550D01*
X145950Y134450D01*
X147150D01*
X132150Y143550D02*
Y139750D01*
X133950Y92850D02*
Y99550D01*
X138808D01*
Y99510D01*
X134150Y114350D02*
X121050D01*
X119550Y112850D01*
X135250Y73850D02*
Y73750D01*
X142510D01*
Y73832D01*
X135250Y80850D02*
X137150D01*
Y80650D01*
X139050Y78750D01*
X148287D01*
X150050Y80513D01*
Y83745D01*
X149990Y83805D01*
Y84068D01*
X137850Y92850D02*
Y90850D01*
X136450Y89450D01*
Y86850D01*
X142510Y84068D02*
Y84250D01*
X139050D01*
X136650Y86650D01*
X136450D01*
Y86850D01*
X146250Y73832D02*
Y69250D01*
Y84068D02*
X146350D01*
Y87550D01*
X150250Y91450D01*
Y92650D01*
X146350Y113350D02*
X141150D01*
X149092Y99510D02*
X150250Y98352D01*
Y92650D01*
X149092Y99510D02*
Y103250D01*
Y106990D02*
Y106950D01*
X156350D01*
Y106650D01*
X149990Y73832D02*
Y69450D01*
X150250Y113350D02*
Y106990D01*
X149092D01*
X150250Y113350D02*
Y115550D01*
X150350D01*
Y117850D01*
X154450Y113250D02*
X150250D01*
Y113350D01*
X156350Y102750D02*
Y101250D01*
X154650Y99550D01*
X149250D01*
X149050Y99750D01*
Y102950D01*
X149092Y102250D01*
Y99510D01*
X158350Y113250D02*
X164548D01*
X166308Y111490D01*
X171250Y98650D02*
Y106050D01*
X173050Y107850D01*
X179750D01*
X179350Y107750D01*
X176592D01*
X183350D02*
X176592D01*
X189150Y93952D02*
X189510Y93592D01*
X190110D01*
X190050Y101150D02*
X190150D01*
Y93952D01*
X190110Y93911D01*
Y93592D01*
Y83308D02*
Y76510D01*
X189950Y76351D01*
X193850D02*
X193950Y76350D01*
Y93592D01*
X193850D01*
X193950Y101150D02*
X193750D01*
Y97750D01*
X193650Y88850D01*
X193950D01*
Y88150D01*
X229450Y140450D02*
X221550Y148350D01*
X211250D01*
D02*
D18*
X30750Y65250D03*
X41950Y162750D03*
X51250Y98050D03*
X69350Y184650D03*
X70750Y138050D03*
X74050Y174550D03*
X76050Y84050D03*
X77950Y176550D03*
X78150Y35450D03*
X79350Y81050D03*
X79488Y10512D03*
X82050Y174550D03*
X83350Y77550D03*
X85750Y176550D03*
X88150Y54350D03*
X88250Y90450D03*
X89550Y71450D03*
X92550Y79950D03*
Y93650D03*
X92850Y174550D03*
X95150Y114750D03*
X97150Y176550D03*
X97350Y82950D03*
Y97050D03*
X98650Y47650D03*
X99550Y21850D03*
X100550Y149850D03*
X100950Y127850D03*
X101250Y111350D03*
X101750Y37350D03*
Y72550D03*
X102850Y176550D03*
X103750Y95350D03*
X103850Y47650D03*
X104450Y63450D03*
X105050Y100250D03*
X108550Y176650D03*
X108650Y76050D03*
X108887Y139650D03*
X111650Y66250D03*
X111850Y96850D03*
X113050Y174550D03*
X116450Y100750D03*
Y105350D03*
X116550Y176550D03*
X119550Y112850D03*
X120050Y174550D03*
X123550Y50950D03*
Y176550D03*
X124750Y137750D03*
X125350Y80650D03*
X125550Y67150D03*
X126050Y92950D03*
X127850Y63250D03*
X128050Y147650D03*
X128150Y110450D03*
X128250Y176550D03*
X128350Y105450D03*
X128450Y100250D03*
X129950Y129350D03*
X130350Y72850D03*
X133050Y155450D03*
X133450Y176550D03*
X134650Y44150D03*
X134750Y59650D03*
X136450Y86850D03*
X137850Y67450D03*
X139350Y176650D03*
X139850Y55150D03*
X144250Y174550D03*
X145550Y57250D03*
X147150Y134450D03*
X150350Y117850D03*
X151250Y176550D03*
X152450Y30550D03*
X153350Y65550D03*
X153450Y61050D03*
X153750Y76350D03*
X154950Y21050D03*
Y92950D03*
X155350Y174750D03*
X156450Y46150D03*
X156650Y51250D03*
X156850Y71950D03*
X161750Y174550D03*
X161950Y126650D03*
X162350Y63450D03*
X171250Y98650D03*
X171550Y185750D03*
X176550Y35850D03*
X177350Y96550D03*
X178250Y81050D03*
X180850Y136750D03*
X184850Y84250D03*
X189750Y133650D03*
X193950Y88150D03*
X194350Y156950D03*
X211250Y118150D03*
Y148350D03*
X215550Y118150D03*
X219950Y102750D03*
X220050Y118050D03*
X224150Y65350D03*
X224750Y139850D03*
X235250Y95350D03*
D02*
D19*
X20615Y134785D02*
Y134815D01*
X22650Y136850D01*
X33030D01*
X34908Y138728D01*
X36972D01*
X74512Y15412D02*
X69348Y20576D01*
Y26115D01*
X74512Y15412D02*
X74550D01*
Y15450D01*
X79488Y10512D01*
X99850Y6050D02*
X83950D01*
X79488Y10512D01*
X113950Y6050D02*
X99850D01*
X113950Y51050D02*
Y56050D01*
Y50950D01*
X123550D01*
X122550Y141750D02*
Y139950D01*
X124750Y137750D01*
X143250Y92650D02*
X142250D01*
X136450Y86850D01*
X166750Y21050D02*
X154950D01*
X166750Y51050D02*
X156850D01*
X166750D02*
Y56050D01*
X184850Y84250D02*
X189168D01*
X190110Y83308D01*
X237850Y140450D02*
X229450D01*
D02*
D70*
X138808Y106990D02*
X141150Y109332D01*
Y114350D01*
Y113350D02*
Y114350D01*
Y118150D01*
X129950Y129350D01*
X158650Y119150D02*
X151650D01*
X150350Y117850D01*
X161950Y126650D02*
X165650Y122950D01*
Y119150D01*
Y112148D01*
X166308Y111490D01*
X195450Y137050D02*
Y119250D01*
X199550Y115150D01*
Y108150D02*
Y107851D01*
X193350D01*
X189150Y103651D01*
Y93952D01*
X203350Y137050D02*
Y140450D01*
X211250Y148350D01*
X237850Y99850D02*
X229450D01*
D02*
D21*
X112850Y143550D03*
Y147450D03*
X116650Y143550D03*
Y147450D03*
X120450Y143550D03*
Y147450D03*
X124250Y143550D03*
Y147450D03*
X156350Y102750D03*
Y106650D03*
X183350Y107750D03*
Y111650D03*
X215550Y108350D03*
Y112250D03*
X220050Y108350D03*
Y112250D03*
D02*
D23*
X116450Y135350D03*
Y139150D03*
X120350Y135350D03*
Y139150D03*
X128250Y139750D03*
Y143550D03*
X132150Y139750D03*
Y143550D03*
X133950Y92850D03*
X137850D03*
X146350Y113350D03*
X150250D03*
X154450Y113250D03*
X158350D03*
X189950Y76351D03*
X190050Y101150D03*
X193850Y76351D03*
X193950Y101150D03*
D02*
D25*
X121950Y87550D03*
X128950D03*
X134150Y114350D03*
X141150D03*
X143250Y92650D03*
X150250D03*
D02*
D26*
X135250Y73850D03*
Y80850D03*
D02*
D29*
X62050Y207450D03*
Y217450D03*
X72050Y207450D03*
Y217450D03*
X82050Y207450D03*
Y217450D03*
X92050Y207450D03*
Y217450D03*
X102050Y207450D03*
Y217450D03*
X112050Y207450D03*
Y217450D03*
X122050Y207450D03*
Y217450D03*
X132050Y207450D03*
Y217450D03*
X142050Y207450D03*
Y217450D03*
X152050Y207450D03*
Y217450D03*
X161450Y143850D03*
Y153850D03*
X162050Y207450D03*
Y217450D03*
X172050Y207450D03*
Y217450D03*
X182050Y207450D03*
Y217450D03*
X210750Y59450D03*
Y69450D03*
Y79450D03*
Y89450D03*
D02*
D75*
X29901Y145798D03*
X36972Y138728D03*
X44043Y131656D03*
X51114Y124585D03*
X58185Y117514D03*
X65256Y110443D03*
X72328Y103372D03*
X79398Y96301D03*
X180937Y27437D03*
X188007Y34507D03*
X195079Y41579D03*
X202150Y48650D03*
D02*
D76*
X72950Y194050D03*
Y196550D03*
Y199050D03*
X81550Y194050D03*
Y196609D03*
Y199168D03*
X92350Y194250D03*
Y196750D03*
Y199250D03*
X100950Y194250D03*
Y196809D03*
Y199368D03*
X112550Y194650D03*
Y197150D03*
Y199650D03*
X121150Y194650D03*
Y197209D03*
Y199768D03*
X132350Y194850D03*
Y197350D03*
Y199850D03*
X140950Y194850D03*
Y197409D03*
Y199968D03*
X152350Y195050D03*
Y197550D03*
Y200050D03*
X160950Y195050D03*
Y197609D03*
Y200168D03*
X172550Y195250D03*
Y197750D03*
Y200250D03*
X181150Y195250D03*
Y197809D03*
Y200368D03*
D02*
D77*
X38165Y55035D03*
X60438Y32761D03*
D02*
D78*
X199550Y108150D03*
Y115150D03*
D02*
D112*
X138808Y99510D03*
Y106990D03*
X149092Y99510D03*
Y103250D03*
Y106990D03*
X166308Y104010D03*
Y111490D03*
X176592Y104010D03*
Y107750D03*
Y111490D03*
D02*
D113*
X142510Y73832D03*
Y84068D03*
X146250Y73832D03*
Y84068D03*
X149990Y73832D03*
Y84068D03*
D02*
D114*
X190110Y83308D03*
Y93592D03*
X193850D03*
X197590Y83308D03*
Y93592D03*
D02*
D115*
X158650Y119150D03*
X165650D03*
D02*
D116*
X74512Y15412D03*
X83987Y24887D03*
D02*
D117*
X76644Y162450D03*
Y167568D03*
X78613Y162450D03*
Y167568D03*
X80581Y162450D03*
Y167568D03*
X82550Y162450D03*
Y167568D03*
X97044Y162450D03*
Y167568D03*
X99013Y162450D03*
Y167568D03*
X100981Y162450D03*
Y167568D03*
X102950Y162450D03*
Y167568D03*
X114844Y162450D03*
Y167568D03*
X116813Y162450D03*
Y167568D03*
X118781Y162450D03*
Y167568D03*
X120750Y162450D03*
Y167568D03*
X132444Y162450D03*
Y167568D03*
X134413Y162450D03*
Y167568D03*
X136381Y162450D03*
Y167568D03*
X138350Y162450D03*
Y167568D03*
X151244Y162450D03*
Y167568D03*
X153213Y162450D03*
Y167568D03*
X155181Y162450D03*
Y167568D03*
X157150Y162450D03*
Y167568D03*
D02*
D118*
X113950Y6050D03*
Y11050D03*
Y16050D03*
Y21050D03*
Y26050D03*
Y31050D03*
Y36050D03*
Y41050D03*
Y46050D03*
Y51050D03*
Y56050D03*
X166750Y21050D03*
Y26050D03*
Y31050D03*
Y36050D03*
Y41050D03*
Y46050D03*
Y51050D03*
Y56050D03*
D02*
D119*
X69631Y81976D03*
X72671Y78935D03*
X75712Y75895D03*
X78752Y72854D03*
X81793Y69814D03*
X84833Y66773D03*
X87874Y63733D03*
X90915Y60692D03*
X93955Y57652D03*
D02*
D120*
X26215Y69248D03*
X69348Y26115D03*
D02*
D121*
X55418Y93502D03*
D02*
D122*
X95794Y52560D03*
D02*
D123*
X186150Y159050D03*
X212650D03*
D02*
D124*
X195450Y137050D03*
X203350D03*
D02*
D125*
X226750Y108350D03*
Y114250D03*
Y126050D03*
Y131950D03*
D02*
D126*
X229450Y99850D03*
Y140450D03*
X237850Y99850D03*
Y140450D03*
D02*
D127*
X20614Y134785D03*
X27685Y127714D03*
X34756Y120643D03*
X41828Y113572D03*
X0Y0D02*
M02*
