G05
M48
;#@! TF.GenerationSoftware,DesignSpark,DesignSpark PCB,13.0.
;#@! TF.CreationDate,2026-07-02T16:58:36--5:-30*
;#@! TF.FileFunction,Plated,1,4,PTH
;FILE_FORMAT=3:5
;TYPE=PLATED
INCH,TZ
FMAT,2
T1C000.01600
T2C000.03500
%
T001
X0.30750Y0.65250
X0.41950Y1.62750
X0.51250Y0.98050
X0.69350Y1.84650
X0.70750Y1.38050
X0.74050Y1.74550
X0.76050Y0.84050
X0.77950Y1.76550
X0.78150Y0.35450
X0.79350Y0.81050
X0.79488Y0.10512
X0.82050Y1.74550
X0.83350Y0.77550
X0.85750Y1.76550
X0.88150Y0.54350
X0.88250Y0.90450
X0.89550Y0.71450
X0.92550Y0.79950
X0.92550Y0.93650
X0.92850Y1.74550
X0.95150Y1.14750
X0.97150Y1.76550
X0.97350Y0.82950
X0.97350Y0.97050
X0.98650Y0.47650
X0.99550Y0.21850
X1.00550Y1.49850
X1.00950Y1.27850
X1.01250Y1.11350
X1.01750Y0.37350
X1.01750Y0.72550
X1.02850Y1.76550
X1.03750Y0.95350
X1.03850Y0.47650
X1.04450Y0.63450
X1.05050Y1.00250
X1.08550Y1.76650
X1.08650Y0.76050
X1.08887Y1.39650
X1.11650Y0.66250
X1.11850Y0.96850
X1.13050Y1.74550
X1.16450Y1.00750
X1.16450Y1.05350
X1.16550Y1.76550
X1.19550Y1.12850
X1.20050Y1.74550
X1.23550Y0.50950
X1.23550Y1.76550
X1.24750Y1.37750
X1.25350Y0.80650
X1.25550Y0.67150
X1.26050Y0.92950
X1.27850Y0.63250
X1.28050Y1.47650
X1.28150Y1.10450
X1.28250Y1.76550
X1.28350Y1.05450
X1.28450Y1.00250
X1.29950Y1.29350
X1.30350Y0.72850
X1.33050Y1.55450
X1.33450Y1.76550
X1.34650Y0.44150
X1.34750Y0.59650
X1.36450Y0.86850
X1.37850Y0.67450
X1.39350Y1.76650
X1.39850Y0.55150
X1.44250Y1.74550
X1.45550Y0.57250
X1.47150Y1.34450
X1.50350Y1.17850
X1.51250Y1.76550
X1.52450Y0.30550
X1.53350Y0.65550
X1.53450Y0.61050
X1.53750Y0.76350
X1.54950Y0.21050
X1.54950Y0.92950
X1.55350Y1.74750
X1.56450Y0.46150
X1.56650Y0.51250
X1.56850Y0.71950
X1.61750Y1.74550
X1.61950Y1.26650
X1.62350Y0.63450
X1.71250Y0.98650
X1.71550Y1.85750
X1.76550Y0.35850
X1.77350Y0.96550
X1.78250Y0.81050
X1.80850Y1.36750
X1.84850Y0.84250
X1.89750Y1.33650
X1.93950Y0.88150
X1.94350Y1.56950
X2.11250Y1.18150
X2.11250Y1.48350
X2.15550Y1.18150
X2.19950Y1.02750
X2.20050Y1.18050
X2.24150Y0.65350
X2.24750Y1.39850
X2.35250Y0.95350
T002
X0.29901Y1.45798
X0.36972Y1.38728
X0.44043Y1.31656
X0.51114Y1.24585
X0.58185Y1.17514
X0.62050Y2.07450
X0.62050Y2.17450
X0.65256Y1.10443
X0.72050Y2.07450
X0.72050Y2.17450
X0.72328Y1.03372
X0.79398Y0.96301
X0.82050Y2.07450
X0.82050Y2.17450
X0.92050Y2.07450
X0.92050Y2.17450
X1.02050Y2.07450
X1.02050Y2.17450
X1.12050Y2.07450
X1.12050Y2.17450
X1.22050Y2.07450
X1.22050Y2.17450
X1.32050Y2.07450
X1.32050Y2.17450
X1.42050Y2.07450
X1.42050Y2.17450
X1.52050Y2.07450
X1.52050Y2.17450
X1.61450Y1.43850
X1.61450Y1.53850
X1.62050Y2.07450
X1.62050Y2.17450
X1.72050Y2.07450
X1.72050Y2.17450
X1.80937Y0.27437
X1.82050Y2.07450
X1.82050Y2.17450
X1.88007Y0.34507
X1.95079Y0.41579
X2.02150Y0.48650
X2.10750Y0.59450
X2.10750Y0.69450
X2.10750Y0.79450
X2.10750Y0.89450
M30
