G04 DesignSpark PCB Gerber Version 13.0 Build *
%FSLAX35Y35*%
%MOIN*%
%ADD159C,0.01600*%
%ADD161C,0.03500*%
%ADD162C,0.03600*%
%ADD160C,0.18500*%
X0Y0D02*
D02*
D159*
X30750Y65250D03*
X41950Y162750D03*
X51250Y98050D03*
X69350Y184650D03*
X70750Y138050D03*
X74050Y174550D03*
X76050Y84050D03*
X77950Y176550D03*
X78150Y35450D03*
X79350Y81050D03*
X79488Y10512D03*
X82050Y174550D03*
X83350Y77550D03*
X85750Y176550D03*
X88150Y54350D03*
X88250Y90450D03*
X89550Y71450D03*
X92550Y79950D03*
Y93650D03*
X92850Y174550D03*
X95150Y114750D03*
X97150Y176550D03*
X97350Y82950D03*
Y97050D03*
X98650Y47650D03*
X99550Y21850D03*
X100550Y149850D03*
X100950Y127850D03*
X101250Y111350D03*
X101750Y37350D03*
Y72550D03*
X102850Y176550D03*
X103750Y95350D03*
X103850Y47650D03*
X104450Y63450D03*
X105050Y100250D03*
X108550Y176650D03*
X108650Y76050D03*
X108887Y139650D03*
X111650Y66250D03*
X111850Y96850D03*
X113050Y174550D03*
X116450Y100750D03*
Y105350D03*
X116550Y176550D03*
X119550Y112850D03*
X120050Y174550D03*
X123550Y50950D03*
Y176550D03*
X124750Y137750D03*
X125350Y80650D03*
X125550Y67150D03*
X126050Y92950D03*
X127850Y63250D03*
X128050Y147650D03*
X128150Y110450D03*
X128250Y176550D03*
X128350Y105450D03*
X128450Y100250D03*
X129950Y129350D03*
X130350Y72850D03*
X133050Y155450D03*
X133450Y176550D03*
X134650Y44150D03*
X134750Y59650D03*
X136450Y86850D03*
X137850Y67450D03*
X139350Y176650D03*
X139850Y55150D03*
X144250Y174550D03*
X145550Y57250D03*
X147150Y134450D03*
X150350Y117850D03*
X151250Y176550D03*
X152450Y30550D03*
X153350Y65550D03*
X153450Y61050D03*
X153750Y76350D03*
X154950Y21050D03*
Y92950D03*
X155350Y174750D03*
X156450Y46150D03*
X156650Y51250D03*
X156850Y71950D03*
X161750Y174550D03*
X161950Y126650D03*
X162350Y63450D03*
X171250Y98650D03*
X171550Y185750D03*
X176550Y35850D03*
X177350Y96550D03*
X178250Y81050D03*
X180850Y136750D03*
X184850Y84250D03*
X189750Y133650D03*
X193950Y88150D03*
X194350Y156950D03*
X211250Y118150D03*
Y148350D03*
X215550Y118150D03*
X219950Y102750D03*
X220050Y118050D03*
X224150Y65350D03*
X224750Y139850D03*
X235250Y95350D03*
D02*
D160*
X13250Y81050D03*
Y161050D03*
X229550Y81050D03*
Y161050D03*
D02*
D161*
X29901Y145798D03*
X36972Y138728D03*
X38165Y55035D03*
X44043Y131656D03*
X51114Y124585D03*
X58185Y117514D03*
X60438Y32761D03*
X62050Y207450D03*
Y217450D03*
X65256Y110443D03*
X72050Y207450D03*
Y217450D03*
X72328Y103372D03*
X79398Y96301D03*
X82050Y207450D03*
Y217450D03*
X92050Y207450D03*
Y217450D03*
X102050Y207450D03*
Y217450D03*
X112050Y207450D03*
Y217450D03*
X122050Y207450D03*
Y217450D03*
X132050Y207450D03*
Y217450D03*
X142050Y207450D03*
Y217450D03*
X152050Y207450D03*
Y217450D03*
X161450Y143850D03*
Y153850D03*
X162050Y207450D03*
Y217450D03*
X172050Y207450D03*
Y217450D03*
X180937Y27437D03*
X182050Y207450D03*
Y217450D03*
X188007Y34507D03*
X195079Y41579D03*
X202150Y48650D03*
X210750Y59450D03*
Y69450D03*
Y79450D03*
Y89450D03*
D02*
D162*
X233650Y110350D03*
Y129950D03*
X0Y0D02*
M02*
