G04 DesignSpark PCB Gerber Version 13.0 Build *
%FSLAX35Y35*%
%MOIN*%
%ADD29R,0.06000X0.06000*%
%ADD10C,0.00500*%
%ADD16C,0.01500*%
%ADD18C,0.03200*%
%ADD77C,0.03600*%
%AMT75*0 Rectangle Pad at angle 45*21,1,0.06000,0.06000,0,0,45*%
%ADD75T75*%
X0Y0D02*
D02*
D10*
X25768Y193032D02*
X2850Y170115D01*
Y162496D01*
G75*
G02*
X23750Y161050I10400J-1446D01*
G01*
G75*
G02*
X2850Y159604I-10500J0D01*
G01*
Y82496D01*
G75*
G02*
X23750Y81050I10400J-1446D01*
G01*
G75*
G02*
X2850Y79604I-10500J0D01*
G01*
Y72285D01*
X72085Y3050D01*
X121050D01*
Y18650D01*
X185715D01*
X239450Y72385D01*
Y77552D01*
G75*
G02*
X219050Y81050I-9900J3498D01*
G01*
G75*
G02*
X239450Y84548I10500J0D01*
G01*
Y157552D01*
G75*
G02*
X219050Y161050I-9900J3498D01*
G01*
G75*
G02*
X239450Y164548I10500J0D01*
G01*
Y170215D01*
X209332Y200332D01*
X170350Y161350D01*
Y128450D01*
X165250Y123350D01*
X132250D01*
Y121450D01*
X99250D01*
Y117550D01*
X73750D01*
X57850Y133450D01*
Y160950D01*
X25768Y193032D01*
X23891Y145799D02*
X29901Y151809D01*
X35911Y145799D01*
X29901Y139789D01*
X23891Y145799D01*
X30962Y138728D02*
X36972Y144738D01*
X42983Y138728D01*
X36972Y132717D01*
X30962Y138728D01*
X36008Y57192D02*
G75*
G02*
X40321Y52879I2157J-2157D01*
G01*
G75*
G02*
X36008Y57192I-2157J2157D01*
G01*
X38033Y131657D02*
X44043Y137667D01*
X50054Y131657D01*
X44043Y125646D01*
X38033Y131657D01*
X45104Y124585D02*
X51115Y130596D01*
X57125Y124585D01*
X51115Y118575D01*
X45104Y124585D01*
X52175Y117515D02*
X58185Y123525D01*
X64196Y117515D01*
X58185Y111504D01*
X52175Y117515D01*
X58282Y34918D02*
G75*
G02*
X62595Y30605I2157J-2157D01*
G01*
G75*
G02*
X58282Y34918I-2157J2157D01*
G01*
X59246Y110443D02*
X65257Y116454D01*
X71267Y110443D01*
X65257Y104433D01*
X59246Y110443D01*
X66317Y103372D02*
X72328Y109383D01*
X78338Y103372D01*
X72328Y97362D01*
X66317Y103372D01*
X73389Y96301D02*
X79399Y102311D01*
X85409Y96301D01*
X79399Y90291D01*
X73389Y96301D01*
X76868Y81635D02*
G75*
G02*
X73500Y84050I-818J2415D01*
G01*
G75*
G02*
X78600I2550J0D01*
G01*
G75*
G02*
X78532Y83465I-2550J1D01*
G01*
G75*
G02*
X81900Y81050I818J-2415D01*
G01*
G75*
G02*
X76800I-2550J0D01*
G01*
G75*
G02*
X76868Y81635I2550J-1D01*
G01*
X80700Y35450D02*
G75*
G02*
X75600I-2550J0D01*
G01*
G75*
G02*
X80700I2550J0D01*
G01*
X80800Y77550D02*
G75*
G02*
X85900I2550J0D01*
G01*
G75*
G02*
X80800I-2550J0D01*
G01*
X85700Y90450D02*
G75*
G02*
X90800I2550J0D01*
G01*
G75*
G02*
X85700I-2550J0D01*
G01*
X95100Y79950D02*
G75*
G02*
X90000I-2550J0D01*
G01*
G75*
G02*
X95100I2550J0D01*
G01*
Y93650D02*
G75*
G02*
X90000I-2550J0D01*
G01*
G75*
G02*
X95100I2550J0D01*
G01*
X99200Y72550D02*
G75*
G02*
X104300I2550J0D01*
G01*
G75*
G02*
X99200I-2550J0D01*
G01*
X99900Y82950D02*
G75*
G02*
X94800I-2550J0D01*
G01*
G75*
G02*
X99900I2550J0D01*
G01*
Y97050D02*
G75*
G02*
X94800I-2550J0D01*
G01*
G75*
G02*
X99900I2550J0D01*
G01*
X101200Y47650D02*
G75*
G02*
X96100I-2550J0D01*
G01*
G75*
G02*
X101200I2550J0D01*
G01*
X101900Y63450D02*
G75*
G02*
X107000I2550J0D01*
G01*
G75*
G02*
X101900I-2550J0D01*
G01*
X102100Y21850D02*
G75*
G02*
X97000I-2550J0D01*
G01*
G75*
G02*
X102100I2550J0D01*
G01*
X103800Y111350D02*
G75*
G02*
X98700I-2550J0D01*
G01*
G75*
G02*
X103800I2550J0D01*
G01*
X104131Y97871D02*
G75*
G02*
X102500Y100250I919J2379D01*
G01*
G75*
G02*
X107600I2550J0D01*
G01*
G75*
G02*
X104669Y97729I-2550J0D01*
G01*
G75*
G02*
X106300Y95350I-919J-2379D01*
G01*
G75*
G02*
X101200I-2550J0D01*
G01*
G75*
G02*
X104131Y97871I2550J0D01*
G01*
X106400Y47650D02*
G75*
G02*
X101300I-2550J0D01*
G01*
G75*
G02*
X106400I2550J0D01*
G01*
X109100Y66250D02*
G75*
G02*
X114200I2550J0D01*
G01*
G75*
G02*
X109100I-2550J0D01*
G01*
X109300Y96850D02*
G75*
G02*
X114400I2550J0D01*
G01*
G75*
G02*
X109300I-2550J0D01*
G01*
X111200Y76050D02*
G75*
G02*
X106100I-2550J0D01*
G01*
G75*
G02*
X111200I2550J0D01*
G01*
X115349Y103050D02*
G75*
G02*
X113900Y105350I1101J2300D01*
G01*
G75*
G02*
X119000I2550J0D01*
G01*
G75*
G02*
X117551Y103050I-2550J0D01*
G01*
G75*
G02*
X119000Y100750I-1101J-2300D01*
G01*
G75*
G02*
X113900I-2550J0D01*
G01*
G75*
G02*
X115349Y103050I2550J0D01*
G01*
X122800Y80650D02*
G75*
G02*
X127900I2550J0D01*
G01*
G75*
G02*
X122800I-2550J0D01*
G01*
X123500Y92950D02*
G75*
G02*
X128600I2550J0D01*
G01*
G75*
G02*
X123500I-2550J0D01*
G01*
X125300Y63250D02*
G75*
G02*
X130400I2550J0D01*
G01*
G75*
G02*
X125300I-2550J0D01*
G01*
X127758Y107930D02*
G75*
G02*
X125600Y110450I392J2520D01*
G01*
G75*
G02*
X130700I2550J0D01*
G01*
G75*
G02*
X128742Y107970I-2550J0D01*
G01*
G75*
G02*
X130900Y105450I-392J-2520D01*
G01*
G75*
G02*
X125800I-2550J0D01*
G01*
G75*
G02*
X127758Y107930I2550J0D01*
G01*
X127800Y72850D02*
G75*
G02*
X132900I2550J0D01*
G01*
G75*
G02*
X127800I-2550J0D01*
G01*
X131000Y100250D02*
G75*
G02*
X125900I-2550J0D01*
G01*
G75*
G02*
X131000I2550J0D01*
G01*
X132100Y44150D02*
G75*
G02*
X137200I2550J0D01*
G01*
G75*
G02*
X132100I-2550J0D01*
G01*
X135300Y67450D02*
G75*
G02*
X140400I2550J0D01*
G01*
G75*
G02*
X135300I-2550J0D01*
G01*
X137300Y55150D02*
G75*
G02*
X142400I2550J0D01*
G01*
G75*
G02*
X137300I-2550J0D01*
G01*
Y59650D02*
G75*
G02*
X132200I-2550J0D01*
G01*
G75*
G02*
X137300I2550J0D01*
G01*
X143000Y57250D02*
G75*
G02*
X148100I2550J0D01*
G01*
G75*
G02*
X143000I-2550J0D01*
G01*
X149900Y30550D02*
G75*
G02*
X155000I2550J0D01*
G01*
G75*
G02*
X149900I-2550J0D01*
G01*
X151200Y76350D02*
G75*
G02*
X156300I2550J0D01*
G01*
G75*
G02*
X151200I-2550J0D01*
G01*
X152201Y63273D02*
G75*
G02*
X150800Y65550I1149J2276D01*
G01*
G75*
G02*
X155900I2550J0D01*
G01*
G75*
G02*
X154599Y63327I-2550J0D01*
G01*
G75*
G02*
X156000Y61050I-1149J-2277D01*
G01*
G75*
G02*
X150900I-2550J0D01*
G01*
G75*
G02*
X152201Y63273I2550J0D01*
G01*
X152400Y92950D02*
G75*
G02*
X157500I2550J0D01*
G01*
G75*
G02*
X152400I-2550J0D01*
G01*
X153900Y46150D02*
G75*
G02*
X159000I2550J0D01*
G01*
G75*
G02*
X153900I-2550J0D01*
G01*
X154300Y71950D02*
G75*
G02*
X159400I2550J0D01*
G01*
G75*
G02*
X154300I-2550J0D01*
G01*
X174000Y35850D02*
G75*
G02*
X179100I2550J0D01*
G01*
G75*
G02*
X174000I-2550J0D01*
G01*
X174800Y96550D02*
G75*
G02*
X179900I2550J0D01*
G01*
G75*
G02*
X174800I-2550J0D01*
G01*
X175700Y81050D02*
G75*
G02*
X180800I2550J0D01*
G01*
G75*
G02*
X175700I-2550J0D01*
G01*
X180937Y33447D02*
X186947Y27437D01*
X180937Y21426D01*
X174926Y27437D01*
X180937Y33447D01*
X184850Y81700D02*
G75*
G02*
Y86800I0J2550D01*
G01*
G75*
G02*
Y81700I0J-2550D01*
G01*
X187200Y133650D02*
G75*
G02*
X192300I2550J0D01*
G01*
G75*
G02*
X187200I-2550J0D01*
G01*
X188008Y40518D02*
X194018Y34508D01*
X188008Y28498D01*
X181998Y34508D01*
X188008Y40518D01*
X195079Y47589D02*
X201089Y41579D01*
X195079Y35569D01*
X189069Y41579D01*
X195079Y47589D01*
X202150Y54660D02*
X208160Y48650D01*
X202150Y42640D01*
X196140Y48650D01*
X202150Y54660D01*
X206500Y63700D02*
X215000D01*
Y55200D01*
X206500D01*
Y63700D01*
Y73700D02*
X215000D01*
Y65200D01*
X206500D01*
Y73700D01*
Y83700D02*
X215000D01*
Y75200D01*
X206500D01*
Y83700D01*
Y93700D02*
X215000D01*
Y85200D01*
X206500D01*
Y93700D01*
X208700Y118150D02*
G75*
G02*
X213800I2550J0D01*
G01*
G75*
G02*
X208700I-2550J0D01*
G01*
X217400Y102750D02*
G75*
G02*
X222500I2550J0D01*
G01*
G75*
G02*
X217400I-2550J0D01*
G01*
X217500Y118050D02*
G75*
G02*
X222600I2550J0D01*
G01*
G75*
G02*
X217500I-2550J0D01*
G01*
X222200Y139850D02*
G75*
G02*
X227300I2550J0D01*
G01*
G75*
G02*
X222200I-2550J0D01*
G01*
X233650Y107300D02*
G75*
G02*
Y113400I0J3050D01*
G01*
G75*
G02*
Y107300I0J-3050D01*
G01*
Y126900D02*
G75*
G02*
Y133000I0J3050D01*
G01*
G75*
G02*
Y126900I0J-3050D01*
G01*
X53285Y21850D02*
G36*
X53285Y21850D02*
X71835Y3300D01*
X121050D01*
Y18650D01*
X185715D01*
X188915Y21850D01*
X181360D01*
X180937Y21426D01*
X180513Y21850D01*
X102100D01*
G75*
G02*
X97000I-2550J0D01*
G01*
X53285D01*
G37*
X42374Y32761D02*
G36*
X42374Y32761D02*
X53285Y21850D01*
X97000D01*
G75*
G02*
X102100I2550J0D01*
G01*
X180513D01*
X174926Y27437D01*
X180251Y32761D01*
X153720D01*
G75*
G02*
X155000Y30550I-1270J-2211D01*
G01*
G75*
G02*
X149900I-2550J0D01*
G01*
G75*
G02*
X151180Y32761I2550J0D01*
G01*
X63489D01*
G75*
G02*
X62595Y30605I-3050J0D01*
G01*
G75*
G02*
X57389Y32761I-2157J2157D01*
G01*
X42374D01*
G37*
X183744D02*
G36*
X183744Y32761D02*
X181622D01*
X186947Y27437D01*
X181360Y21850D01*
X188915D01*
X199826Y32761D01*
X192272D01*
X188008Y28498D01*
X183744Y32761D01*
G37*
X39685Y35450D02*
G36*
X39685Y35450D02*
X42374Y32761D01*
X57389D01*
G75*
G02*
X58282Y34918I3050J0D01*
G01*
G75*
G02*
X58998Y35450I2157J-2157D01*
G01*
X39685D01*
G37*
X61879D02*
G36*
X61879Y35450D02*
G75*
G02*
X63489Y32761I-1440J-2689D01*
G01*
X151180D01*
G75*
G02*
X153720I1270J-2211D01*
G01*
X180251D01*
X180937Y33447D01*
X181622Y32761D01*
X183744D01*
X181998Y34508D01*
X182940Y35450D01*
X179069D01*
G75*
G02*
X174031I-2519J400D01*
G01*
X80700D01*
G75*
G02*
X75600I-2550J0D01*
G01*
X61879D01*
G37*
X194018Y34508D02*
G36*
X194018Y34508D02*
X192272Y32761D01*
X199826D01*
X202515Y35450D01*
X193076D01*
X194018Y34508D01*
G37*
X30985Y44150D02*
G36*
X30985Y44150D02*
X39685Y35450D01*
X58998D01*
G75*
G02*
X61879I1440J-2689D01*
G01*
X75600D01*
G75*
G02*
X80700I2550J0D01*
G01*
X174031D01*
G75*
G02*
X174000Y35850I2519J400D01*
G01*
G75*
G02*
X179100I2550J0D01*
G01*
G75*
G02*
X179069Y35450I-2550J0D01*
G01*
X182940D01*
X188008Y40518D01*
X193076Y35450D01*
X202515D01*
X211215Y44150D01*
X203660D01*
X202150Y42640D01*
X200640Y44150D01*
X198518D01*
X201089Y41579D01*
X195079Y35569D01*
X189069Y41579D01*
X191640Y44150D01*
X158032D01*
G75*
G02*
X154868I-1582J2000D01*
G01*
X137200D01*
G75*
G02*
X132100I-2550J0D01*
G01*
X30985D01*
G37*
X27485Y47650D02*
G36*
X27485Y47650D02*
X30985Y44150D01*
X132100D01*
G75*
G02*
X137200I2550J0D01*
G01*
X154868D01*
G75*
G02*
X153900Y46150I1582J2000D01*
G01*
G75*
G02*
X154388Y47650I2550J0D01*
G01*
X106400D01*
G75*
G02*
X101300I-2550J0D01*
G01*
X101200D01*
G75*
G02*
X96100I-2550J0D01*
G01*
X27485D01*
G37*
X159000Y46150D02*
G36*
X159000Y46150D02*
G75*
G02*
X158032Y44150I-2550J0D01*
G01*
X191640D01*
X195079Y47589D01*
X198518Y44150D01*
X200640D01*
X197140Y47650D01*
X158512D01*
G75*
G02*
X159000Y46150I-2062J-1500D01*
G01*
G37*
X207160Y47650D02*
G36*
X207160Y47650D02*
X203660Y44150D01*
X211215D01*
X214715Y47650D01*
X207160D01*
G37*
X20100Y55035D02*
G36*
X20100Y55035D02*
X27485Y47650D01*
X96100D01*
G75*
G02*
X101200I2550J0D01*
G01*
X101300D01*
G75*
G02*
X106400I2550J0D01*
G01*
X154388D01*
G75*
G02*
X158512I2062J-1500D01*
G01*
X197140D01*
X196140Y48650D01*
X202150Y54660D01*
X208160Y48650D01*
X207160Y47650D01*
X214715D01*
X222100Y55035D01*
X146814D01*
G75*
G02*
X144286I-1264J2215D01*
G01*
X142397D01*
G75*
G02*
X137303I-2547J115D01*
G01*
X41215D01*
G75*
G02*
X40321Y52879I-3050J0D01*
G01*
G75*
G02*
X35115Y55035I-2157J2157D01*
G01*
X20100D01*
G37*
X15485Y59650D02*
G36*
X15485Y59650D02*
X20100Y55035D01*
X35115D01*
G75*
G02*
X36008Y57192I3050J0D01*
G01*
G75*
G02*
X41215Y55035I2157J-2157D01*
G01*
X137303D01*
G75*
G02*
X137300Y55150I2547J119D01*
G01*
G75*
G02*
X142400I2550J0D01*
G01*
G75*
G02*
X142397Y55035I-2550J4D01*
G01*
X144286D01*
G75*
G02*
X143000Y57250I1264J2215D01*
G01*
G75*
G02*
X144688Y59650I2550J0D01*
G01*
X137300D01*
G75*
G02*
X132200I-2550J0D01*
G01*
X15485D01*
G37*
X148100Y57250D02*
G36*
X148100Y57250D02*
G75*
G02*
X146814Y55035I-2550J0D01*
G01*
X222100D01*
X226715Y59650D01*
X215000D01*
Y55200D01*
X206500D01*
Y59650D01*
X155581D01*
G75*
G02*
X151319I-2131J1400D01*
G01*
X146412D01*
G75*
G02*
X148100Y57250I-862J-2400D01*
G01*
G37*
X11685Y63450D02*
G36*
X11685Y63450D02*
X15485Y59650D01*
X132200D01*
G75*
G02*
X137300I2550J0D01*
G01*
X144688D01*
G75*
G02*
X146412I862J-2400D01*
G01*
X151319D01*
G75*
G02*
X150900Y61050I2131J1400D01*
G01*
G75*
G02*
Y61051I2374J0D01*
G01*
G75*
G02*
X152201Y63273I2548J0D01*
G01*
G75*
G02*
X151903Y63450I1146J2276D01*
G01*
X130392D01*
G75*
G02*
X130400Y63250I-2543J-200D01*
G01*
G75*
G02*
X125300I-2550J0D01*
G01*
G75*
G02*
X125308Y63450I2550J0D01*
G01*
X107000D01*
G75*
G02*
X101900I-2550J0D01*
G01*
X11685D01*
G37*
X154796D02*
G36*
X154796Y63450D02*
G75*
G02*
X154599Y63327I-1446J2099D01*
G01*
G75*
G02*
X156000Y61050I-1149J-2277D01*
G01*
G75*
G02*
X155581Y59650I-2550J0D01*
G01*
X206500D01*
Y63450D01*
X154796D01*
G37*
X215000D02*
G36*
X215000Y63450D02*
Y59650D01*
X226715D01*
X230515Y63450D01*
X215000D01*
G37*
X8885Y66250D02*
G36*
X8885Y66250D02*
X11685Y63450D01*
X101900D01*
G75*
G02*
X107000I2550J0D01*
G01*
X125308D01*
G75*
G02*
X130392I2542J-200D01*
G01*
X151903D01*
G75*
G02*
X150800Y65548I1444J2098D01*
G01*
G75*
G02*
Y65550I2820J1D01*
G01*
G75*
G02*
X150898Y66250I2550J0D01*
G01*
X140100D01*
G75*
G02*
X135600I-2250J1200D01*
G01*
X114200D01*
G75*
G02*
X109100I-2550J0D01*
G01*
X8885D01*
G37*
X155802D02*
G36*
X155802Y66250D02*
G75*
G02*
X155900Y65550I-2452J-700D01*
G01*
Y65550D01*
G75*
G02*
X154796Y63450I-2549J0D01*
G01*
X206500D01*
Y63700D01*
X215000D01*
Y63450D01*
X230515D01*
X233315Y66250D01*
X215000D01*
Y65200D01*
X206500D01*
Y66250D01*
X155802D01*
G37*
X3100Y72550D02*
G36*
X3100Y72550D02*
Y72035D01*
X8885Y66250D01*
X109100D01*
G75*
G02*
X114200I2550J0D01*
G01*
X135600D01*
G75*
G02*
X135300Y67450I2250J1200D01*
G01*
G75*
G02*
X140400I2550J0D01*
G01*
G75*
G02*
X140100Y66250I-2550J0D01*
G01*
X150898D01*
G75*
G02*
X155802I2452J-700D01*
G01*
X206500D01*
Y72550D01*
X159328D01*
G75*
G02*
X159400Y71950I-2479J-600D01*
G01*
G75*
G02*
X154300I-2550J0D01*
G01*
G75*
G02*
X154372Y72550I2550J0D01*
G01*
X132882D01*
G75*
G02*
X127818I-2532J300D01*
G01*
X104300D01*
G75*
G02*
X99200I-2550J0D01*
G01*
X19415D01*
G75*
G02*
X7085I-6165J8500D01*
G01*
X3100D01*
G37*
X215000D02*
G36*
X215000Y72550D02*
Y66250D01*
X233315D01*
X239200Y72135D01*
Y72550D01*
X235715D01*
G75*
G02*
X223385I-6165J8500D01*
G01*
X215000D01*
G37*
X3100Y77550D02*
G36*
X3100Y77550D02*
Y72550D01*
X7085D01*
G75*
G02*
X3350Y77550I6165J8500D01*
G01*
X3100D01*
G37*
X23150D02*
G36*
X23150Y77550D02*
G75*
G02*
X19415Y72550I-9900J3500D01*
G01*
X99200D01*
G75*
G02*
X104300I2550J0D01*
G01*
X127818D01*
G75*
G02*
X127800Y72850I2532J300D01*
G01*
G75*
G02*
X132900I2550J0D01*
G01*
G75*
G02*
X132882Y72550I-2550J0D01*
G01*
X154372D01*
G75*
G02*
X159328I2478J-600D01*
G01*
X206500D01*
Y73700D01*
X215000D01*
Y72550D01*
X223385D01*
G75*
G02*
X219650Y77550I6165J8500D01*
G01*
X215000D01*
Y75200D01*
X206500D01*
Y77550D01*
X156000D01*
G75*
G02*
X156300Y76350I-2250J-1200D01*
G01*
G75*
G02*
X151200I-2550J0D01*
G01*
G75*
G02*
X151500Y77550I2550J0D01*
G01*
X110712D01*
G75*
G02*
X111200Y76050I-2062J-1500D01*
G01*
G75*
G02*
X106100I-2550J0D01*
G01*
G75*
G02*
X106588Y77550I2550J0D01*
G01*
X93412D01*
G75*
G02*
X91688I-862J2400D01*
G01*
X85900D01*
G75*
G02*
X80800I-2550J0D01*
G01*
X23150D01*
G37*
X235715Y72550D02*
G36*
X235715Y72550D02*
X239200D01*
Y76911D01*
G75*
G02*
X235715Y72550I-9650J4139D01*
G01*
G37*
X3100Y78361D02*
G36*
X3100Y78361D02*
Y77550D01*
X3350D01*
G75*
G02*
X3100Y78361I9900J3499D01*
G01*
G37*
X23692Y79950D02*
G36*
X23692Y79950D02*
G75*
G02*
X23150Y77550I-10443J1099D01*
G01*
X80800D01*
G75*
G02*
X82488Y79950I2550J0D01*
G01*
X81650D01*
G75*
G02*
X77050I-2300J1100D01*
G01*
X23692D01*
G37*
X84212D02*
G36*
X84212Y79950D02*
G75*
G02*
X85900Y77550I-862J-2400D01*
G01*
X91688D01*
G75*
G02*
X90000Y79950I862J2400D01*
G01*
X84212D01*
G37*
X95100D02*
G36*
X95100Y79950D02*
G75*
G02*
X93412Y77550I-2550J0D01*
G01*
X106588D01*
G75*
G02*
X110712I2062J-1500D01*
G01*
X151500D01*
G75*
G02*
X156000I2250J-1200D01*
G01*
X206500D01*
Y79950D01*
X180550D01*
G75*
G02*
X175950I-2300J1100D01*
G01*
X127802D01*
G75*
G02*
X122898I-2452J700D01*
G01*
X95100D01*
G37*
X215000D02*
G36*
X215000Y79950D02*
Y77550D01*
X219650D01*
G75*
G02*
X219108Y79950I9900J3499D01*
G01*
X215000D01*
G37*
X23642Y82550D02*
G36*
X23642Y82550D02*
G75*
G02*
X23750Y81050I-10393J-1501D01*
G01*
Y81050D01*
G75*
G02*
X23692Y79950I-10499J1D01*
G01*
X77050D01*
G75*
G02*
X76800Y81050I2300J1100D01*
G01*
G75*
G02*
Y81052I2707J1D01*
G01*
G75*
G02*
X76868Y81635I2524J0D01*
G01*
G75*
G02*
X73987Y82550I-819J2415D01*
G01*
X23642D01*
G37*
X81900Y81050D02*
G36*
X81900Y81050D02*
G75*
G02*
X81650Y79950I-2550J0D01*
G01*
X82488D01*
G75*
G02*
X84212I862J-2400D01*
G01*
X90000D01*
G75*
G02*
X95100I2550J0D01*
G01*
X122898D01*
G75*
G02*
X122800Y80650I2452J700D01*
G01*
G75*
G02*
X123649Y82550I2550J0D01*
G01*
X99869D01*
G75*
G02*
X94831I-2519J400D01*
G01*
X81412D01*
G75*
G02*
X81900Y81050I-2063J-1501D01*
G01*
G37*
X127900Y80650D02*
G36*
X127900Y80650D02*
G75*
G02*
X127802Y79950I-2550J0D01*
G01*
X175950D01*
G75*
G02*
X175700Y81050I2300J1100D01*
G01*
G75*
G02*
X176188Y82550I2550J0D01*
G01*
X127051D01*
G75*
G02*
X127900Y80650I-1701J-1900D01*
G01*
G37*
X180800Y81050D02*
G36*
X180800Y81050D02*
G75*
G02*
X180550Y79950I-2550J0D01*
G01*
X206500D01*
Y82550D01*
X186751D01*
G75*
G02*
X184850Y81700I-1901J1700D01*
G01*
G75*
G02*
X182949Y82550I0J2550D01*
G01*
X180312D01*
G75*
G02*
X180800Y81050I-2062J-1500D01*
G01*
G37*
X215000Y82550D02*
G36*
X215000Y82550D02*
Y79950D01*
X219108D01*
G75*
G02*
X219050Y81050I10443J1101D01*
G01*
Y81050D01*
G75*
G02*
X219158Y82550I10500J-1D01*
G01*
X215000D01*
G37*
X3100Y90450D02*
G36*
X3100Y90450D02*
Y83738D01*
G75*
G02*
X8572Y90450I10150J-2689D01*
G01*
X3100D01*
G37*
X17928D02*
G36*
X17928Y90450D02*
G75*
G02*
X23642Y82550I-4679J-9400D01*
G01*
X73987D01*
G75*
G02*
X73500Y84050I2062J1499D01*
G01*
Y84050D01*
G75*
G02*
X78600I2550J0D01*
G01*
G75*
G02*
X78532Y83465I-2576J4D01*
G01*
G75*
G02*
X81412Y82550I818J-2416D01*
G01*
X94831D01*
G75*
G02*
X94800Y82950I2519J400D01*
G01*
G75*
G02*
X99900I2550J0D01*
G01*
G75*
G02*
X99869Y82550I-2550J0D01*
G01*
X123649D01*
G75*
G02*
X127051I1701J-1900D01*
G01*
X176188D01*
G75*
G02*
X180312I2062J-1500D01*
G01*
X182949D01*
G75*
G02*
X182300Y84250I1901J1700D01*
G01*
G75*
G02*
X184850Y86800I2550J0D01*
G01*
G75*
G02*
X187400Y84250I0J-2550D01*
G01*
G75*
G02*
X186751Y82550I-2550J0D01*
G01*
X206500D01*
Y83700D01*
X215000D01*
Y82550D01*
X219158D01*
G75*
G02*
X224872Y90450I10393J-1500D01*
G01*
X215000D01*
Y85200D01*
X206500D01*
Y90450D01*
X155452D01*
G75*
G02*
X154448I-502J2500D01*
G01*
X126552D01*
G75*
G02*
X125548I-502J2500D01*
G01*
X90800D01*
G75*
G02*
X85700I-2550J0D01*
G01*
X79558D01*
X79399Y90291D01*
X79240Y90450D01*
X17928D01*
G37*
X234228D02*
G36*
X234228Y90450D02*
G75*
G02*
X239200Y85189I-4678J-9400D01*
G01*
Y90450D01*
X234228D01*
G37*
X3100Y93650D02*
G36*
X3100Y93650D02*
Y90450D01*
X8572D01*
G75*
G02*
X17928I4678J-9400D01*
G01*
X79240D01*
X76040Y93650D01*
X3100D01*
G37*
X82758D02*
G36*
X82758Y93650D02*
X79558Y90450D01*
X85700D01*
G75*
G02*
X90800I2550J0D01*
G01*
X125548D01*
G75*
G02*
X123500Y92950I502J2500D01*
G01*
G75*
G02*
X123598Y93650I2550J0D01*
G01*
X105651D01*
G75*
G02*
X101849I-1901J1700D01*
G01*
X95100D01*
G75*
G02*
X90000I-2550J0D01*
G01*
X82758D01*
G37*
X128600Y92950D02*
G36*
X128600Y92950D02*
G75*
G02*
X126552Y90450I-2550J0D01*
G01*
X154448D01*
G75*
G02*
X152400Y92950I502J2500D01*
G01*
G75*
G02*
X152498Y93650I2550J0D01*
G01*
X128502D01*
G75*
G02*
X128600Y92950I-2452J-700D01*
G01*
G37*
X157500D02*
G36*
X157500Y92950D02*
G75*
G02*
X155452Y90450I-2550J0D01*
G01*
X206500D01*
Y93650D01*
X157402D01*
G75*
G02*
X157500Y92950I-2452J-700D01*
G01*
G37*
X215000Y93650D02*
G36*
X215000Y93650D02*
Y90450D01*
X224872D01*
G75*
G02*
X234228I4678J-9400D01*
G01*
X239200D01*
Y93650D01*
X215000D01*
G37*
X3100Y96301D02*
G36*
X3100Y96301D02*
Y93650D01*
X76040D01*
X73389Y96301D01*
X3100D01*
G37*
X85409D02*
G36*
X85409Y96301D02*
X82758Y93650D01*
X90000D01*
G75*
G02*
X95100I2550J0D01*
G01*
X101849D01*
G75*
G02*
X101200Y95350I1901J1700D01*
G01*
G75*
G02*
X101384Y96301I2550J0D01*
G01*
X99787D01*
G75*
G02*
X94913I-2437J749D01*
G01*
X85409D01*
G37*
X106300Y95350D02*
G36*
X106300Y95350D02*
G75*
G02*
X105651Y93650I-2550J0D01*
G01*
X123598D01*
G75*
G02*
X128502I2452J-700D01*
G01*
X152498D01*
G75*
G02*
X157402I2452J-700D01*
G01*
X206500D01*
Y93700D01*
X215000D01*
Y93650D01*
X239200D01*
Y96301D01*
X179888D01*
G75*
G02*
X174812I-2538J249D01*
G01*
X114340D01*
G75*
G02*
X109360I-2490J549D01*
G01*
X106116D01*
G75*
G02*
X106300Y95350I-2367J-952D01*
G01*
G37*
X3100Y100250D02*
G36*
X3100Y100250D02*
Y96301D01*
X73389D01*
X77337Y100250D01*
X75215D01*
X72328Y97362D01*
X69440Y100250D01*
X3100D01*
G37*
X81460D02*
G36*
X81460Y100250D02*
X85409Y96301D01*
X94913D01*
G75*
G02*
X94800Y97050I2438J750D01*
G01*
G75*
G02*
X99900I2550J0D01*
G01*
G75*
G02*
X99787Y96301I-2550J1D01*
G01*
X101384D01*
G75*
G02*
X104131Y97871I2366J-951D01*
G01*
G75*
G02*
X102500Y100250I919J2378D01*
G01*
Y100250D01*
X81460D01*
G37*
X104669Y97729D02*
G36*
X104669Y97729D02*
G75*
G02*
X106116Y96301I-920J-2380D01*
G01*
X109360D01*
G75*
G02*
X109300Y96850I2490J549D01*
G01*
G75*
G02*
X114400I2550J0D01*
G01*
G75*
G02*
X114340Y96301I-2550J0D01*
G01*
X174812D01*
G75*
G02*
X174800Y96550I2538J249D01*
G01*
G75*
G02*
X179900I2550J0D01*
G01*
G75*
G02*
X179888Y96301I-2550J0D01*
G01*
X239200D01*
Y100250D01*
X220452D01*
G75*
G02*
X219448I-502J2500D01*
G01*
X131000D01*
G75*
G02*
X125900I-2550J0D01*
G01*
X118950D01*
G75*
G02*
X113950I-2500J500D01*
G01*
X107600D01*
G75*
G02*
X104669Y97729I-2550J0D01*
G01*
G37*
X3100Y103372D02*
G36*
X3100Y103372D02*
Y100250D01*
X69440D01*
X66317Y103372D01*
X3100D01*
G37*
X75215Y100250D02*
G36*
X75215Y100250D02*
X77337D01*
X79399Y102311D01*
X81460Y100250D01*
X102500D01*
G75*
G02*
X107600I2550J0D01*
G01*
X113950D01*
G75*
G02*
X113900Y100750I2501J500D01*
G01*
G75*
G02*
Y100751I3222J0D01*
G01*
G75*
G02*
X115349Y103050I2549J0D01*
G01*
G75*
G02*
X114840Y103372I1099J2298D01*
G01*
X78338D01*
X75215Y100250D01*
G37*
X118060Y103372D02*
G36*
X118060Y103372D02*
G75*
G02*
X117551Y103050I-1610J1977D01*
G01*
G75*
G02*
X119000Y100750I-1102J-2300D01*
G01*
G75*
G02*
X118950Y100250I-2550J0D01*
G01*
X125900D01*
G75*
G02*
X131000I2550J0D01*
G01*
X219448D01*
G75*
G02*
X217400Y102750I502J2500D01*
G01*
G75*
G02*
X217477Y103372I2550J0D01*
G01*
X129829D01*
G75*
G02*
X126871I-1479J2078D01*
G01*
X118060D01*
G37*
X222500Y102750D02*
G36*
X222500Y102750D02*
G75*
G02*
X220452Y100250I-2550J0D01*
G01*
X239200D01*
Y103372D01*
X222423D01*
G75*
G02*
X222500Y102750I-2473J-622D01*
G01*
G37*
X3100Y110443D02*
G36*
X3100Y110443D02*
Y103372D01*
X66317D01*
X72328Y109383D01*
X78338Y103372D01*
X114840D01*
G75*
G02*
X113900Y105349I1608J1976D01*
G01*
G75*
G02*
Y105350I2256J1D01*
G01*
G75*
G02*
X119000I2550J0D01*
G01*
Y105350D01*
G75*
G02*
X118060Y103372I-2550J0D01*
G01*
X126871D01*
G75*
G02*
X125800Y105450I1479J2078D01*
G01*
G75*
G02*
Y105451I2374J0D01*
G01*
G75*
G02*
X127758Y107930I2549J0D01*
G01*
G75*
G02*
X125600Y110443I391J2519D01*
G01*
X103633D01*
G75*
G02*
X98867I-2383J907D01*
G01*
X71267D01*
X65257Y104433D01*
X59246Y110443D01*
X3100D01*
G37*
X130700D02*
G36*
X130700Y110443D02*
G75*
G02*
X128742Y107970I-2550J7D01*
G01*
G75*
G02*
X130900Y105450I-393J-2520D01*
G01*
G75*
G02*
X129829Y103372I-2550J0D01*
G01*
X217477D01*
G75*
G02*
X222423I2473J-622D01*
G01*
X239200D01*
Y110443D01*
X236698D01*
G75*
G02*
X236700Y110350I-3049J-98D01*
G01*
G75*
G02*
X233650Y107300I-3050J0D01*
G01*
G75*
G02*
X230600Y110350I0J3050D01*
G01*
G75*
G02*
X230602Y110443I3050J-5D01*
G01*
X130700D01*
G37*
X3100Y117515D02*
G36*
X3100Y117515D02*
Y110443D01*
X59246D01*
X65257Y116454D01*
X71267Y110443D01*
X98867D01*
G75*
G02*
X98700Y111350I2383J906D01*
G01*
G75*
G02*
X103800I2550J0D01*
G01*
G75*
G02*
X103633Y110443I-2550J0D01*
G01*
X125600D01*
G75*
G02*
Y110449I2487J3D01*
G01*
G75*
G02*
Y110450I2942J1D01*
G01*
G75*
G02*
X130700I2550J0D01*
G01*
G75*
G02*
Y110443I-2557J-3D01*
G01*
X230602D01*
G75*
G02*
X233650Y113400I3048J-93D01*
G01*
G75*
G02*
X236698Y110443I0J-3050D01*
G01*
X239200D01*
Y117515D01*
X222543D01*
G75*
G02*
X217557I-2493J535D01*
G01*
X213720D01*
G75*
G02*
X208780I-2470J635D01*
G01*
X64196D01*
X58185Y111504D01*
X52175Y117515D01*
X3100D01*
G37*
Y124585D02*
G36*
X3100Y124585D02*
Y117515D01*
X52175D01*
X58185Y123525D01*
X64196Y117515D01*
X208780D01*
G75*
G02*
X208700Y118150I2470J635D01*
G01*
G75*
G02*
X213800I2550J0D01*
G01*
G75*
G02*
X213720Y117515I-2550J0D01*
G01*
X217557D01*
G75*
G02*
X217500Y118050I2493J535D01*
G01*
G75*
G02*
X222600I2550J0D01*
G01*
G75*
G02*
X222543Y117515I-2550J-1D01*
G01*
X239200D01*
Y124585D01*
X166485D01*
X165250Y123350D01*
X132250D01*
Y121450D01*
X99250D01*
Y117550D01*
X73750D01*
X66715Y124585D01*
X57125D01*
X51115Y118575D01*
X45104Y124585D01*
X3100D01*
G37*
Y131657D02*
G36*
X3100Y131657D02*
Y124585D01*
X45104D01*
X51115Y130596D01*
X57125Y124585D01*
X66715D01*
X59643Y131657D01*
X50054D01*
X44043Y125646D01*
X38033Y131657D01*
X3100D01*
G37*
X170350Y128450D02*
G36*
X170350Y128450D02*
X166485Y124585D01*
X239200D01*
Y131657D01*
X236178D01*
G75*
G02*
X236700Y129950I-2528J-1706D01*
G01*
G75*
G02*
X233650Y126900I-3050J0D01*
G01*
G75*
G02*
X230600Y129950I0J3050D01*
G01*
G75*
G02*
X231122Y131657I3050J0D01*
G01*
X191340D01*
G75*
G02*
X188160I-1590J1993D01*
G01*
X170350D01*
Y128450D01*
G37*
X3100Y138728D02*
G36*
X3100Y138728D02*
Y131657D01*
X38033D01*
X44043Y137667D01*
X50054Y131657D01*
X59643D01*
X57850Y133450D01*
Y138728D01*
X42983D01*
X36972Y132717D01*
X30962Y138728D01*
X3100D01*
G37*
X170350D02*
G36*
X170350Y138728D02*
Y131657D01*
X188160D01*
G75*
G02*
X187200Y133650I1590J1994D01*
G01*
G75*
G02*
X192300I2550J0D01*
G01*
G75*
G02*
X191340Y131657I-2550J0D01*
G01*
X231122D01*
G75*
G02*
X233650Y133000I2528J-1707D01*
G01*
G75*
G02*
X236178Y131657I0J-3050D01*
G01*
X239200D01*
Y138728D01*
X227040D01*
G75*
G02*
X222460I-2290J1122D01*
G01*
X170350D01*
G37*
X3100Y145799D02*
G36*
X3100Y145799D02*
Y138728D01*
X30962D01*
X36972Y144738D01*
X42983Y138728D01*
X57850D01*
Y145799D01*
X35911D01*
X29901Y139789D01*
X23891Y145799D01*
X3100D01*
G37*
X170350D02*
G36*
X170350Y145799D02*
Y138728D01*
X222460D01*
G75*
G02*
X222200Y139850I2290J1122D01*
G01*
G75*
G02*
X227300I2550J0D01*
G01*
G75*
G02*
X227040Y138728I-2550J0D01*
G01*
X239200D01*
Y145799D01*
X170350D01*
G37*
X3100Y158361D02*
G36*
X3100Y158361D02*
Y145799D01*
X23891D01*
X29901Y151809D01*
X35911Y145799D01*
X57850D01*
Y160950D01*
X25768Y193032D01*
X3100Y170365D01*
Y163738D01*
G75*
G02*
X23750Y161050I10150J-2689D01*
G01*
Y161050D01*
G75*
G02*
X3100Y158361I-10500J0D01*
G01*
G37*
X170350Y161350D02*
G36*
X170350Y161350D02*
Y145799D01*
X239200D01*
Y156911D01*
G75*
G02*
X219050Y161050I-9650J4138D01*
G01*
Y161050D01*
G75*
G02*
X239200Y165189I10500J0D01*
G01*
Y170465D01*
X209582Y200082D01*
X209082D01*
X170350Y161350D01*
G37*
X26868Y194132D02*
X59350Y161650D01*
Y133550D01*
X74150Y118750D01*
X98150D01*
Y123350D01*
X165250D01*
X168450Y126550D01*
Y162050D01*
X208032Y201632D01*
X170215Y239450D01*
X72185D01*
X26868Y194132D01*
X66300Y211700D02*
Y203200D01*
X57800D01*
Y211700D01*
X66300D01*
Y221700D02*
Y213200D01*
X57800D01*
Y221700D01*
X66300D01*
X73300Y138050D02*
G75*
G02*
X68200I-2550J0D01*
G01*
G75*
G02*
X73300I2550J0D01*
G01*
X75405Y176710D02*
G75*
G02*
X80500Y176575I2545J-160D01*
G01*
G75*
G02*
X83214Y176819I1550J-2024D01*
G01*
G75*
G02*
X88300Y176550I2536J-269D01*
G01*
G75*
G02*
X84586Y174281I-2550J0D01*
G01*
G75*
G02*
X79500Y174525I-2536J269D01*
G01*
G75*
G02*
X76595Y174390I-1550J2025D01*
G01*
G75*
G02*
X71500Y174550I-2545J160D01*
G01*
G75*
G02*
X75405Y176710I2550J0D01*
G01*
X76300Y211700D02*
Y203200D01*
X67800D01*
Y211700D01*
X76300D01*
Y221700D02*
Y213200D01*
X67800D01*
Y221700D01*
X76300D01*
X86300Y211700D02*
Y203200D01*
X77800D01*
Y211700D01*
X86300D01*
Y221700D02*
Y213200D01*
X77800D01*
Y221700D01*
X86300D01*
X94604Y176400D02*
G75*
G02*
X94600Y176550I2548J149D01*
G01*
G75*
G02*
X99700I2550J0D01*
G01*
G75*
G02*
X95396Y174700I-2550J0D01*
G01*
G75*
G02*
X95400Y174550I-2549J-149D01*
G01*
G75*
G02*
X90300I-2550J0D01*
G01*
G75*
G02*
X94604Y176400I2550J0D01*
G01*
X96300Y211700D02*
Y203200D01*
X87800D01*
Y211700D01*
X96300D01*
Y221700D02*
Y213200D01*
X87800D01*
Y221700D01*
X96300D01*
X103100Y149850D02*
G75*
G02*
X98000I-2550J0D01*
G01*
G75*
G02*
X103100I2550J0D01*
G01*
X105400Y176550D02*
G75*
G02*
X100300I-2550J0D01*
G01*
G75*
G02*
X105400I2550J0D01*
G01*
X106300Y211700D02*
Y203200D01*
X97800D01*
Y211700D01*
X106300D01*
Y221700D02*
Y213200D01*
X97800D01*
Y221700D01*
X106300D01*
X110554Y175074D02*
G75*
G02*
X106000Y176650I-2004J1576D01*
G01*
G75*
G02*
X111100I2550J0D01*
G01*
G75*
G02*
X111046Y176126I-2550J0D01*
G01*
G75*
G02*
X114025Y176906I2004J-1576D01*
G01*
G75*
G02*
X119075I2525J-356D01*
G01*
G75*
G02*
X121025I975J-2357D01*
G01*
G75*
G02*
X125900Y177540I2525J-356D01*
G01*
G75*
G02*
X130800Y176550I2350J-990D01*
G01*
G75*
G02*
X125900Y175560I-2550J0D01*
G01*
G75*
G02*
X122575Y174194I-2350J990D01*
G01*
G75*
G02*
X117525I-2525J356D01*
G01*
G75*
G02*
X115575I-975J2357D01*
G01*
G75*
G02*
X110500Y174550I-2525J356D01*
G01*
G75*
G02*
X110554Y175074I2550J0D01*
G01*
X111437Y139650D02*
G75*
G02*
X106337I-2550J0D01*
G01*
G75*
G02*
X111437I2550J0D01*
G01*
X116300Y211700D02*
Y203200D01*
X107800D01*
Y211700D01*
X116300D01*
Y221700D02*
Y213200D01*
X107800D01*
Y221700D01*
X116300D01*
X126300Y211700D02*
Y203200D01*
X117800D01*
Y211700D01*
X126300D01*
Y221700D02*
Y213200D01*
X117800D01*
Y221700D01*
X126300D01*
X130600Y147650D02*
G75*
G02*
X125500I-2550J0D01*
G01*
G75*
G02*
X130600I2550J0D01*
G01*
X132500Y129350D02*
G75*
G02*
X127400I-2550J0D01*
G01*
G75*
G02*
X132500I2550J0D01*
G01*
X136000Y176550D02*
G75*
G02*
X130900I-2550J0D01*
G01*
G75*
G02*
X136000I2550J0D01*
G01*
X136300Y211700D02*
Y203200D01*
X127800D01*
Y211700D01*
X136300D01*
Y221700D02*
Y213200D01*
X127800D01*
Y221700D01*
X136300D01*
X141900Y176650D02*
G75*
G02*
X136800I-2550J0D01*
G01*
G75*
G02*
X141900I2550J0D01*
G01*
X144600Y134450D02*
G75*
G02*
X149700I2550J0D01*
G01*
G75*
G02*
X144600I-2550J0D01*
G01*
X146300Y211700D02*
Y203200D01*
X137800D01*
Y211700D01*
X146300D01*
Y221700D02*
Y213200D01*
X137800D01*
Y221700D01*
X146300D01*
X146800Y174550D02*
G75*
G02*
X141700I-2550J0D01*
G01*
G75*
G02*
X146800I2550J0D01*
G01*
X152809Y174532D02*
G75*
G02*
X148700Y176550I-1559J2018D01*
G01*
G75*
G02*
X153791Y176768I2550J0D01*
G01*
G75*
G02*
X157900Y174750I1559J-2018D01*
G01*
G75*
G02*
X152809Y174532I-2550J0D01*
G01*
X156300Y211700D02*
Y203200D01*
X147800D01*
Y211700D01*
X156300D01*
Y221700D02*
Y213200D01*
X147800D01*
Y221700D01*
X156300D01*
X164300Y174550D02*
G75*
G02*
X159200I-2550J0D01*
G01*
G75*
G02*
X164300I2550J0D01*
G01*
X164500Y126650D02*
G75*
G02*
X159400I-2550J0D01*
G01*
G75*
G02*
X164500I2550J0D01*
G01*
X165700Y139600D02*
X157200D01*
Y148100D01*
X165700D01*
Y139600D01*
Y149600D02*
X157200D01*
Y158100D01*
X165700D01*
Y149600D01*
X166300Y211700D02*
Y203200D01*
X157800D01*
Y211700D01*
X166300D01*
Y221700D02*
Y213200D01*
X157800D01*
Y221700D01*
X166300D01*
X176300Y211700D02*
Y203200D01*
X167800D01*
Y211700D01*
X176300D01*
Y221700D02*
Y213200D01*
X167800D01*
Y221700D01*
X176300D01*
X186300Y211700D02*
Y203200D01*
X177800D01*
Y211700D01*
X186300D01*
Y221700D02*
Y213200D01*
X177800D01*
Y221700D01*
X186300D01*
X66250Y126650D02*
G36*
X66250Y126650D02*
X73900Y119000D01*
X98150D01*
Y123350D01*
X165250D01*
X168450Y126550D01*
Y126650D01*
X164500D01*
G75*
G02*
X159400I-2550J0D01*
G01*
X66250D01*
G37*
X63550Y129350D02*
G36*
X63550Y129350D02*
X66250Y126650D01*
X159400D01*
G75*
G02*
X164500I2550J0D01*
G01*
X168450D01*
Y129350D01*
X132500D01*
G75*
G02*
X127400I-2550J0D01*
G01*
X63550D01*
G37*
X59350Y134450D02*
G36*
X59350Y134450D02*
Y133550D01*
X63550Y129350D01*
X127400D01*
G75*
G02*
X132500I2550J0D01*
G01*
X168450D01*
Y134450D01*
X149700D01*
G75*
G02*
X144600I-2550J0D01*
G01*
X59350D01*
G37*
Y138050D02*
G36*
X59350Y138050D02*
Y134450D01*
X144600D01*
G75*
G02*
X149700I2550J0D01*
G01*
X168450D01*
Y138050D01*
X110872D01*
G75*
G02*
X106901I-1985J1600D01*
G01*
X73300D01*
G75*
G02*
X68200I-2550J0D01*
G01*
X59350D01*
G37*
Y143850D02*
G36*
X59350Y143850D02*
Y138050D01*
X68200D01*
G75*
G02*
X73300I2550J0D01*
G01*
X106901D01*
G75*
G02*
X106337Y139650I1985J1600D01*
G01*
G75*
G02*
X111437I2550J0D01*
G01*
G75*
G02*
X110872Y138050I-2550J0D01*
G01*
X168450D01*
Y143850D01*
X165700D01*
Y139600D01*
X157200D01*
Y143850D01*
X59350D01*
G37*
Y149850D02*
G36*
X59350Y149850D02*
Y143850D01*
X157200D01*
Y148100D01*
X165700D01*
Y143850D01*
X168450D01*
Y149850D01*
X165700D01*
Y149600D01*
X157200D01*
Y149850D01*
X129339D01*
G75*
G02*
X130600Y147650I-1289J-2200D01*
G01*
G75*
G02*
X125500I-2550J0D01*
G01*
G75*
G02*
X126761Y149850I2550J0D01*
G01*
X103100D01*
G75*
G02*
X98000I-2550J0D01*
G01*
X59350D01*
G37*
Y161650D02*
G36*
X59350Y161650D02*
Y149850D01*
X98000D01*
G75*
G02*
X103100I2550J0D01*
G01*
X126761D01*
G75*
G02*
X129339I1289J-2200D01*
G01*
X157200D01*
Y158100D01*
X165700D01*
Y149850D01*
X168450D01*
Y162050D01*
X181950Y175550D01*
X164096D01*
G75*
G02*
X164300Y174550I-2346J-1000D01*
G01*
G75*
G02*
X159200I-2550J0D01*
G01*
G75*
G02*
X159404Y175550I2550J0D01*
G01*
X157771D01*
G75*
G02*
X157900Y174750I-2422J-800D01*
G01*
G75*
G02*
X152809Y174532I-2550J0D01*
G01*
G75*
G02*
X148904Y175550I-1560J2017D01*
G01*
X146596D01*
G75*
G02*
X146800Y174550I-2346J-1000D01*
G01*
G75*
G02*
X141700I-2550J0D01*
G01*
G75*
G02*
X141904Y175550I2550J0D01*
G01*
X141650D01*
G75*
G02*
X137050I-2300J1100D01*
G01*
X135796D01*
G75*
G02*
X131104I-2346J1000D01*
G01*
X130596D01*
G75*
G02*
X125904I-2346J1000D01*
G01*
X125896D01*
G75*
G02*
X122575Y174194I-2346J1000D01*
G01*
G75*
G02*
X117525I-2525J356D01*
G01*
G75*
G02*
X115575I-975J2353D01*
G01*
G75*
G02*
X110500Y174550I-2525J356D01*
G01*
G75*
G02*
Y174554I2506J2D01*
G01*
G75*
G02*
X110554Y175074I2512J0D01*
G01*
G75*
G02*
X106249Y175550I-2004J1576D01*
G01*
X105196D01*
G75*
G02*
X100504I-2346J1000D01*
G01*
X99496D01*
G75*
G02*
X95396Y174700I-2346J1000D01*
G01*
G75*
G02*
X95400Y174550I-2843J-157D01*
G01*
G75*
G02*
X90300I-2550J0D01*
G01*
G75*
G02*
X90504Y175550I2550J0D01*
G01*
X88096D01*
G75*
G02*
X84586Y174281I-2346J1000D01*
G01*
G75*
G02*
X79500Y174525I-2536J269D01*
G01*
G75*
G02*
X76595Y174390I-1550J2023D01*
G01*
G75*
G02*
X71500Y174550I-2545J160D01*
G01*
G75*
G02*
X71704Y175550I2550J0D01*
G01*
X45450D01*
X59350Y161650D01*
G37*
X27118Y194382D02*
G36*
X27118Y194382D02*
Y193882D01*
X45450Y175550D01*
X71704D01*
G75*
G02*
X75405Y176710I2346J-1000D01*
G01*
G75*
G02*
X80500Y176575I2545J-161D01*
G01*
G75*
G02*
X83214Y176819I1550J-2025D01*
G01*
G75*
G02*
X88300Y176550I2536J-269D01*
G01*
G75*
G02*
X88096Y175550I-2550J0D01*
G01*
X90504D01*
G75*
G02*
X94604Y176400I2346J-1000D01*
G01*
G75*
G02*
X94600Y176533I2012J132D01*
G01*
G75*
G02*
Y176550I2024J8D01*
G01*
G75*
G02*
X99700I2550J0D01*
G01*
Y176550D01*
G75*
G02*
X99496Y175550I-2550J0D01*
G01*
X100504D01*
G75*
G02*
X100300Y176550I2346J1000D01*
G01*
G75*
G02*
X105400I2550J0D01*
G01*
G75*
G02*
X105196Y175550I-2550J0D01*
G01*
X106249D01*
G75*
G02*
X106000Y176650I2300J1099D01*
G01*
Y176650D01*
G75*
G02*
X111100I2550J0D01*
G01*
G75*
G02*
X111046Y176126I-2577J3D01*
G01*
G75*
G02*
X114025Y176906I2004J-1576D01*
G01*
G75*
G02*
X119075I2525J-357D01*
G01*
G75*
G02*
X121025I975J-2358D01*
G01*
G75*
G02*
X125900Y177540I2525J-357D01*
G01*
G75*
G02*
X130800Y176550I2350J-990D01*
G01*
G75*
G02*
X130596Y175550I-2550J0D01*
G01*
X131104D01*
G75*
G02*
X130900Y176550I2346J1000D01*
G01*
G75*
G02*
X136000I2550J0D01*
G01*
G75*
G02*
X135796Y175550I-2550J0D01*
G01*
X137050D01*
G75*
G02*
X136800Y176650I2300J1100D01*
G01*
G75*
G02*
X141900I2550J0D01*
G01*
G75*
G02*
X141650Y175550I-2550J0D01*
G01*
X141904D01*
G75*
G02*
X146596I2346J-1000D01*
G01*
X148904D01*
G75*
G02*
X148700Y176549I2345J999D01*
G01*
G75*
G02*
Y176550I3470J0D01*
G01*
G75*
G02*
X153791Y176768I2550J0D01*
G01*
G75*
G02*
X157771Y175550I1559J-2018D01*
G01*
X159404D01*
G75*
G02*
X164096I2346J-1000D01*
G01*
X181950D01*
X207782Y201382D01*
Y201882D01*
X202215Y207450D01*
X186300D01*
Y203200D01*
X177800D01*
Y207450D01*
X176300D01*
Y203200D01*
X167800D01*
Y207450D01*
X166300D01*
Y203200D01*
X157800D01*
Y207450D01*
X156300D01*
Y203200D01*
X147800D01*
Y207450D01*
X146300D01*
Y203200D01*
X137800D01*
Y207450D01*
X136300D01*
Y203200D01*
X127800D01*
Y207450D01*
X126300D01*
Y203200D01*
X117800D01*
Y207450D01*
X116300D01*
Y203200D01*
X107800D01*
Y207450D01*
X106300D01*
Y203200D01*
X97800D01*
Y207450D01*
X96300D01*
Y203200D01*
X87800D01*
Y207450D01*
X86300D01*
Y203200D01*
X77800D01*
Y207450D01*
X76300D01*
Y203200D01*
X67800D01*
Y207450D01*
X66300D01*
Y203200D01*
X57800D01*
Y207450D01*
X40185D01*
X27118Y194382D01*
G37*
X125900Y175560D02*
G36*
X125900Y175560D02*
G75*
G02*
X125896Y175550I-2357J991D01*
G01*
X125904D01*
G75*
G02*
X125900Y175560I2353J1002D01*
G01*
G37*
X50185Y217450D02*
G36*
X50185Y217450D02*
X40185Y207450D01*
X57800D01*
Y211700D01*
X66300D01*
Y207450D01*
X67800D01*
Y211700D01*
X76300D01*
Y207450D01*
X77800D01*
Y211700D01*
X86300D01*
Y207450D01*
X87800D01*
Y211700D01*
X96300D01*
Y207450D01*
X97800D01*
Y211700D01*
X106300D01*
Y207450D01*
X107800D01*
Y211700D01*
X116300D01*
Y207450D01*
X117800D01*
Y211700D01*
X126300D01*
Y207450D01*
X127800D01*
Y211700D01*
X136300D01*
Y207450D01*
X137800D01*
Y211700D01*
X146300D01*
Y207450D01*
X147800D01*
Y211700D01*
X156300D01*
Y207450D01*
X157800D01*
Y211700D01*
X166300D01*
Y207450D01*
X167800D01*
Y211700D01*
X176300D01*
Y207450D01*
X177800D01*
Y211700D01*
X186300D01*
Y207450D01*
X202215D01*
X192215Y217450D01*
X186300D01*
Y213200D01*
X177800D01*
Y217450D01*
X176300D01*
Y213200D01*
X167800D01*
Y217450D01*
X166300D01*
Y213200D01*
X157800D01*
Y217450D01*
X156300D01*
Y213200D01*
X147800D01*
Y217450D01*
X146300D01*
Y213200D01*
X137800D01*
Y217450D01*
X136300D01*
Y213200D01*
X127800D01*
Y217450D01*
X126300D01*
Y213200D01*
X117800D01*
Y217450D01*
X116300D01*
Y213200D01*
X107800D01*
Y217450D01*
X106300D01*
Y213200D01*
X97800D01*
Y217450D01*
X96300D01*
Y213200D01*
X87800D01*
Y217450D01*
X86300D01*
Y213200D01*
X77800D01*
Y217450D01*
X76300D01*
Y213200D01*
X67800D01*
Y217450D01*
X66300D01*
Y213200D01*
X57800D01*
Y217450D01*
X50185D01*
G37*
G36*
X50185Y217450D02*
X57800D01*
Y221700D01*
X66300D01*
Y217450D01*
X67800D01*
Y221700D01*
X76300D01*
Y217450D01*
X77800D01*
Y221700D01*
X86300D01*
Y217450D01*
X87800D01*
Y221700D01*
X96300D01*
Y217450D01*
X97800D01*
Y221700D01*
X106300D01*
Y217450D01*
X107800D01*
Y221700D01*
X116300D01*
Y217450D01*
X117800D01*
Y221700D01*
X126300D01*
Y217450D01*
X127800D01*
Y221700D01*
X136300D01*
Y217450D01*
X137800D01*
Y221700D01*
X146300D01*
Y217450D01*
X147800D01*
Y221700D01*
X156300D01*
Y217450D01*
X157800D01*
Y221700D01*
X166300D01*
Y217450D01*
X167800D01*
Y221700D01*
X176300D01*
Y217450D01*
X177800D01*
Y221700D01*
X186300D01*
Y217450D01*
X192215D01*
X170465Y239200D01*
X71935D01*
X50185Y217450D01*
G37*
D02*
D16*
X29900Y65250D02*
X27400D01*
X30750Y64400D02*
Y61900D01*
Y66100D02*
Y68600D01*
X31600Y65250D02*
X34100D01*
X33480Y138728D02*
X30255D01*
X36972Y135235D02*
Y132010D01*
Y142220D02*
Y145445D01*
X40465Y138728D02*
X43690D01*
X41100Y162750D02*
X38600D01*
X41950Y161900D02*
Y159400D01*
Y163600D02*
Y166100D01*
X42800Y162750D02*
X45300D01*
X50400Y98050D02*
X47900D01*
X51250Y97200D02*
Y94700D01*
Y98900D02*
Y101400D01*
X52100Y98050D02*
X54600D01*
X78638Y10512D02*
X76138D01*
X79488Y9662D02*
Y7162D01*
Y11362D02*
Y13862D01*
X80338Y10512D02*
X82838D01*
X87300Y54350D02*
X84800D01*
X88150Y53500D02*
Y51000D01*
Y55200D02*
Y57700D01*
X88700Y71450D02*
X86200D01*
X89000Y54350D02*
X91500D01*
X89550Y70600D02*
Y68100D01*
Y72300D02*
Y74800D01*
X90400Y71450D02*
X92900D01*
X94300Y114750D02*
X91800D01*
X95150Y113900D02*
Y111400D01*
X96000Y114750D02*
X98500D01*
X100900Y37350D02*
X98400D01*
X101750Y36500D02*
Y34000D01*
Y38200D02*
Y40700D01*
X102600Y37350D02*
X105100D01*
X118700Y112850D02*
X116200D01*
X119550Y112000D02*
Y109500D01*
Y113700D02*
Y116200D01*
X120400Y112850D02*
X122900D01*
X122700Y50950D02*
X120200D01*
X123550Y50100D02*
Y47600D01*
Y51800D02*
Y54300D01*
X124400Y50950D02*
X126900D01*
X124700Y67150D02*
X122200D01*
X125550Y68000D02*
Y70500D01*
X126400Y67150D02*
X128900D01*
X135600Y86850D02*
X133100D01*
X136450Y86000D02*
Y83500D01*
Y87700D02*
Y90200D01*
X137300Y86850D02*
X139800D01*
X149500Y117850D02*
X147000D01*
X150350Y117000D02*
Y114500D01*
Y118700D02*
Y121200D01*
X151200Y117850D02*
X153700D01*
X154100Y21050D02*
X151600D01*
X154950Y21900D02*
Y24400D01*
X155800Y21050D02*
X158300D01*
X156049Y50649D02*
X154281Y48881D01*
X156049Y51851D02*
X154281Y53619D01*
X157251Y50649D02*
X159019Y48881D01*
X157251Y51851D02*
X159019Y53619D01*
X159200Y143850D02*
X156700D01*
X161450Y141600D02*
Y139100D01*
Y146100D02*
Y148600D01*
X161500Y63450D02*
X159000D01*
X162350Y62600D02*
Y60100D01*
Y64300D02*
Y66800D01*
X163200Y63450D02*
X165700D01*
X163700Y143850D02*
X166200D01*
X169800Y207450D02*
X167300D01*
X169800Y217450D02*
X167300D01*
X170400Y98650D02*
X167900D01*
X171250Y97800D02*
Y95300D01*
Y99500D02*
Y102000D01*
X172050Y205200D02*
Y202700D01*
Y209700D02*
Y212200D01*
Y215200D02*
Y212700D01*
Y219700D02*
Y222200D01*
X172100Y98650D02*
X174600D01*
X174300Y207450D02*
X176800D01*
X174300Y217450D02*
X176800D01*
X177444Y27437D02*
X174219D01*
X180000Y136750D02*
X177500D01*
X180850Y135900D02*
Y133400D01*
Y137600D02*
Y140100D01*
X180937Y23944D02*
Y20719D01*
Y30929D02*
Y34154D01*
X181700Y136750D02*
X184200D01*
X184429Y27437D02*
X187654D01*
X193100Y88150D02*
X190600D01*
X193500Y156950D02*
X191000D01*
X193950Y87300D02*
Y84800D01*
Y89000D02*
Y91500D01*
X194350Y156100D02*
Y153600D01*
Y157800D02*
Y160300D01*
X194800Y88150D02*
X197300D01*
X195200Y156950D02*
X197700D01*
X210400Y148350D02*
X207900D01*
X211250Y147500D02*
Y145000D01*
Y149200D02*
Y151700D01*
X212100Y148350D02*
X214600D01*
X215550Y117300D02*
Y114800D01*
Y119000D02*
Y121500D01*
X223300Y65350D02*
X220800D01*
X224150Y64500D02*
Y62000D01*
Y66200D02*
Y68700D01*
X225000Y65350D02*
X227500D01*
X234400Y95350D02*
X231900D01*
X235250Y94500D02*
Y92000D01*
Y96200D02*
Y98700D01*
X236100Y95350D02*
X238600D01*
D02*
D18*
X30750Y65250D03*
X41950Y162750D03*
X51250Y98050D03*
X69350Y184650D03*
X70750Y138050D03*
X74050Y174550D03*
X76050Y84050D03*
X77950Y176550D03*
X78150Y35450D03*
X79350Y81050D03*
X79488Y10512D03*
X82050Y174550D03*
X83350Y77550D03*
X85750Y176550D03*
X88150Y54350D03*
X88250Y90450D03*
X89550Y71450D03*
X92550Y79950D03*
Y93650D03*
X92850Y174550D03*
X95150Y114750D03*
X97150Y176550D03*
X97350Y82950D03*
Y97050D03*
X98650Y47650D03*
X99550Y21850D03*
X100550Y149850D03*
X100950Y127850D03*
X101250Y111350D03*
X101750Y37350D03*
Y72550D03*
X102850Y176550D03*
X103750Y95350D03*
X103850Y47650D03*
X104450Y63450D03*
X105050Y100250D03*
X108550Y176650D03*
X108650Y76050D03*
X108887Y139650D03*
X111650Y66250D03*
X111850Y96850D03*
X113050Y174550D03*
X116450Y100750D03*
Y105350D03*
X116550Y176550D03*
X119550Y112850D03*
X120050Y174550D03*
X123550Y50950D03*
Y176550D03*
X124750Y137750D03*
X125350Y80650D03*
X125550Y67150D03*
X126050Y92950D03*
X127850Y63250D03*
X128050Y147650D03*
X128150Y110450D03*
X128250Y176550D03*
X128350Y105450D03*
X128450Y100250D03*
X129950Y129350D03*
X130350Y72850D03*
X133050Y155450D03*
X133450Y176550D03*
X134650Y44150D03*
X134750Y59650D03*
X136450Y86850D03*
X137850Y67450D03*
X139350Y176650D03*
X139850Y55150D03*
X144250Y174550D03*
X145550Y57250D03*
X147150Y134450D03*
X150350Y117850D03*
X151250Y176550D03*
X152450Y30550D03*
X153350Y65550D03*
X153450Y61050D03*
X153750Y76350D03*
X154950Y21050D03*
Y92950D03*
X155350Y174750D03*
X156450Y46150D03*
X156650Y51250D03*
X156850Y71950D03*
X161750Y174550D03*
X161950Y126650D03*
X162350Y63450D03*
X171250Y98650D03*
X171550Y185750D03*
X176550Y35850D03*
X177350Y96550D03*
X178250Y81050D03*
X180850Y136750D03*
X184850Y84250D03*
X189750Y133650D03*
X193950Y88150D03*
X194350Y156950D03*
X211250Y118150D03*
Y148350D03*
X215550Y118150D03*
X219950Y102750D03*
X220050Y118050D03*
X224150Y65350D03*
X224750Y139850D03*
X235250Y95350D03*
D02*
D29*
X62050Y207450D03*
Y217450D03*
X72050Y207450D03*
Y217450D03*
X82050Y207450D03*
Y217450D03*
X92050Y207450D03*
Y217450D03*
X102050Y207450D03*
Y217450D03*
X112050Y207450D03*
Y217450D03*
X122050Y207450D03*
Y217450D03*
X132050Y207450D03*
Y217450D03*
X142050Y207450D03*
Y217450D03*
X152050Y207450D03*
Y217450D03*
X161450Y143850D03*
Y153850D03*
X162050Y207450D03*
Y217450D03*
X172050Y207450D03*
Y217450D03*
X182050Y207450D03*
Y217450D03*
X210750Y59450D03*
Y69450D03*
Y79450D03*
Y89450D03*
D02*
D75*
X29901Y145798D03*
X36972Y138728D03*
X44043Y131656D03*
X51114Y124585D03*
X58185Y117514D03*
X65256Y110443D03*
X72328Y103372D03*
X79398Y96301D03*
X180937Y27437D03*
X188007Y34507D03*
X195079Y41579D03*
X202150Y48650D03*
D02*
D77*
X38165Y55035D03*
X60438Y32761D03*
X0Y0D02*
M02*
